/* XPM */
static char *result[] = {
/* columns rows colors chars-per-pixel */
"64 64 251 2 ",
"   c #0C1154",
".  c #142454",
"X  c #0B136E",
"o  c #182567",
"O  c #163072",
"+  c #263671",
"@  c #233254",
"#  c #36497D",
"$  c #0B1689",
"%  c #0B139D",
"&  c #0B1695",
"*  c #101498",
"=  c #1A2886",
"-  c #1C289B",
";  c #133095",
":  c #263496",
">  c #0B14A3",
",  c #091BAC",
"<  c #0917AA",
"1  c #0A18B6",
"2  c #1117BC",
"3  c #0523B4",
"4  c #0829B7",
"5  c #142DAE",
"6  c #2738B7",
"7  c #2430AA",
"8  c #1B4998",
"9  c #185393",
"0  c #3A508D",
"q  c #1C55BB",
"w  c #194AAE",
"e  c #3348AF",
"r  c #455EA9",
"t  c #4B67B9",
"y  c #5069AE",
"u  c #465B96",
"i  c #0D14C4",
"p  c #0D16CC",
"a  c #0D19CC",
"s  c #0B1AC4",
"d  c #1017CC",
"f  c #0E16D3",
"g  c #0D19D3",
"h  c #0D1BDB",
"j  c #0E16DB",
"k  c #111BDC",
"l  c #1018D5",
"z  c #1A25CA",
"x  c #0B38C4",
"c  c #1738C7",
"v  c #0C22D8",
"b  c #1929D6",
"n  c #1637D8",
"m  c #092CCB",
"M  c #2B3CCD",
"N  c #2736C7",
"B  c #2A3CD4",
"V  c #2B3EDC",
"C  c #2736D6",
"Z  c #222CCB",
"A  c #0E1AE2",
"S  c #101AE3",
"D  c #151CF5",
"F  c #0D27E6",
"G  c #1526E7",
"H  c #1837E5",
"J  c #1525FA",
"K  c #142CFE",
"L  c #1826F6",
"P  c #1434FF",
"I  c #143BFD",
"U  c #0B34ED",
"Y  c #232CED",
"T  c #2B3EE5",
"R  c #273AE9",
"E  c #222BF4",
"W  c #242DFD",
"Q  c #292EFF",
"!  c #262AF2",
"~  c #2432FE",
"^  c #2932FF",
"/  c #2B3BFF",
"(  c #2734F5",
")  c #1847C5",
"_  c #195CCC",
"`  c #1957C8",
"'  c #1544DE",
"]  c #144BDD",
"[  c #1447D6",
"{  c #175AD9",
"}  c #0F43CE",
"|  c #2D48C7",
" . c #3245CB",
".. c #334ACC",
"X. c #3345C7",
"o. c #2B41DC",
"O. c #2F43D6",
"+. c #344CD3",
"@. c #3347D9",
"#. c #3A53D7",
"$. c #205CDA",
"%. c #1664D3",
"&. c #1A64D4",
"*. c #1B64D9",
"=. c #1869D9",
"-. c #1965D0",
";. c #2163D2",
":. c #144DE3",
">. c #1848E6",
",. c #1554E3",
"<. c #145BE4",
"1. c #1559EA",
"2. c #1546FD",
"3. c #1255FA",
"4. c #0E59F8",
"5. c #2C42E3",
"6. c #2E41EC",
"7. c #2743E8",
"8. c #3142EC",
"9. c #3247E8",
"0. c #3448F8",
"q. c #3B54FA",
"w. c #2F4FF3",
"e. c #1766E9",
"r. c #1872EA",
"t. c #186AF5",
"y. c #1878F5",
"u. c #0C6BFE",
"i. c #246BF9",
"p. c #227BFE",
"a. c #2274F9",
"s. c #346DF0",
"d. c #4557D3",
"f. c #4D6BC9",
"g. c #526ECC",
"h. c #526CC2",
"j. c #5372CD",
"k. c #5C78C8",
"l. c #4F6CD3",
"z. c #536ED4",
"x. c #5474D3",
"c. c #5878DA",
"v. c #4F70CF",
"b. c #647DD7",
"n. c #485CEB",
"m. c #465CF6",
"M. c #4C63EE",
"N. c #4A63EA",
"B. c #4C64F4",
"V. c #4E66FD",
"C. c #4D6BFD",
"Z. c #4967F7",
"A. c #526AF5",
"S. c #5266FD",
"D. c #536CFF",
"F. c #576BFC",
"G. c #4C73FE",
"H. c #4C7BFF",
"J. c #4679FF",
"K. c #5474FE",
"L. c #5B76FF",
"P. c #5B7AFF",
"I. c #557AFF",
"U. c #566FEA",
"Y. c #627CFF",
"T. c #6177FF",
"R. c #6579E7",
"E. c #6884B4",
"W. c #1D84FD",
"Q. c #1E88FF",
"!. c #1581FA",
"~. c #2384FF",
"^. c #2289FF",
"/. c #2F94F8",
"(. c #36B7FF",
"). c #39A6FA",
"_. c #6B8ADC",
"`. c #6586D9",
"'. c #7798DA",
"]. c #6E8CCC",
"[. c #4B8BFF",
"{. c #4A84FF",
"}. c #5583FF",
"|. c #5A83FF",
" X c #5589FF",
".X c #5C8CFF",
"XX c #4C9BFF",
"oX c #4996FF",
"OX c #5C94FF",
"+X c #5D9CFF",
"@X c #5495FF",
"#X c #6C8CE4",
"$X c #6889E5",
"%X c #6E91E7",
"&X c #7397EA",
"*X c #6483FF",
"=X c #648BFF",
"-X c #6C8BFF",
";X c #629BFF",
":X c #6A97FF",
">X c #7499F9",
",X c #718CFF",
"<X c #4AABFF",
"1X c #4CA4FF",
"2X c #5BA4FF",
"3X c #4AB5FF",
"4X c #57B8FF",
"5X c #7CA1ED",
"6X c #64A6FF",
"7X c #77A6F8",
"8X c #67B8FF",
"9X c #74B5FF",
"0X c #59C9FF",
"qX c #59D9FE",
"wX c #49CDFE",
"eX c #69C6FF",
"rX c #67D9FF",
"tX c #71D9FF",
"yX c #71C5FF",
"uX c #4BE8FF",
"iX c #59E8FF",
"pX c #45FFFF",
"aX c #4AFEFF",
"sX c #4BF3FF",
"dX c #53FEFF",
"fX c #5BFDFF",
"gX c #5AF5FF",
"hX c #67E8FF",
"jX c #71E7FF",
"kX c #64FEFF",
"lX c #6BFFFF",
"zX c #67F3FF",
"xX c #70FFFF",
"cX c #73F4FF",
"vX c #97B9C9",
"bX c #8EADD3",
"nX c #899DE3",
"mX c #89A7EB",
"MX c #A3B5E6",
"NX c #9EC5CC",
"BX c #A4C6CD",
"VX c #A9CCD4",
"CX c #A5CAD7",
"ZX c #ADD2DA",
"AX c #B4D6DD",
"SX c #BEDAE1",
"DX c #CBE1DF",
"FX c #C4D8E3",
"GX c #CBE0E2",
"HX c #C9DCDF",
"JX c None",
/* pixels */
"JXJXJXJXJXJXJXJXJXJXJXJXJXJXJXJXJXJXJXJXJXJXJXJXJXJXJXJXJXJXJXJXJXJXJXJXJXJXJXJXJXJXJXJXJXJXJXJXJXJXJXJXJXJXJXJXJXJXJXJXJXJXJXJX",
"JXJXJXJXJXJXJXJXJXJXJXJXJXJXJXJXJXJXJXJXJXJXJXJXJXJXJXJXJXJXJXJXJXJXJXJXJXJXJXJXJXJXJXJXJXJXJXJXJXJXJXJXJXJXJXJXJXJXJXJXJXJXJXJX",
"JXJXJXJXJXJXJXJXJXJXJXJXJXJXJXJXJXJXJXJXJXJXJXJXJXJXJXJXJXJXJXJXJXJXJXJXJXJXJXJXJXJXJXJXJXJXJXJXJXJXJXJXJXJXJXJXJXJXJXJXJXJXJXJX",
"JXJXJXJXJXJXJXJXJXJXJXJXJXJXJXJXJXJXJXJXJXJXJXJXJXJXJXJXJXJX+ e y 0 + JXJXJXJXJXJXJXJXJXJXJXJXJXJXJXJXJXJXJXJXJXJXJXJXJXJXJXJXJX",
"JXJXJXJXJXJXJXJXJXJXJXJXJXJXJXJXJXJXJXJXJXJXJXJXJXJXJXo : 6 M g.b.g.f.r # JXJXJXJXJXJXJXJXJXJXJXJXJXJXJXJXJXJXJXJXJXJXJXJXJXJXJX",
"JXJXJXJXJXJXJXJXJXJXJXJXJXJXJXJXJXJXJXJXJXJXJXJXJXo 6 M B C #.b.`.j.f.g.g.t u + JXJXJXJXJXJXJXJXJXJXJXJXJXJXJXJXJXJXJXJXJXJXJXJX",
"JXJXJXJXJXJXJXJXJXJXJXJXJXJXJXJXJXJXJXJXJXJXJX= 7 M B V B B z.].`.k.x.x.j.g.h.t 0 @ JXJXJXJXJXJXJXJXJXJXJXJXJXJXJXJXJXJXJXJXJXJX",
"JXJXJXJXJXJXJXJXJXJXJXJXJXJXJXJXJXJXJXJX+ 7 N B V V B V V V _._.b.`.c.l.v.x.j.j.g.h.t 0 JXJXJXJXJXJXJXJXJXJXJXJXJXJXJXJXJXJXJXJX",
"JXJXJXJXJXJXJXJXJXJXJXJXJXJXJXJXJXJXo 7 N B T T V V o.V V #.'._.`.`.`.f.v.x.x.x.v.f.g.h.0 0 JXJXJXJXJXJXJXJXJXJXJXJXJXJXJXJXJXJX",
"JXJXJXJXJXJXJXJXJXJXJXJXJXJXJX= 6 B T T T T T T T T T 5.5.R._.`.`.`.`.x.l.x.x.j.x.x.g.j.g.g.t r 0 + JXJXJXJXJXJXJXJXJXJXJXJXJXJX",
"JXJXJXJXJXJXJXJXJXJXJXJXJX= N o.T T T T 9.m.R T T T 5.5.#.&X$X$X$X`._.`.x.x.x.v.x.j.x.j.j.j.h.g.t t 0 # JXJXJXJXJXJXJXJXJXJXJXJX",
"JXJXJXJXJXJXJXJXJXJXJXJX .9.9.9.T 0.T 8.T T T T T 8.5.9.N.&X$X$X$X`.$X`.{.l.x.`.x.x.x.x.j.j.v.f.j.h.f.h.u JXJXJXJXJXJXJXJXJXJXJX",
"JXJXJXJXJXJXJXJXJXJXJX6 R ( 6.6.0.9.0.8.6.6.6.T 0.8.T m.$X&X%X#X$X_.#X_.`.c.x.U.x.x.x.j.x.j.v.f.j.y ].'.E.+ JXJXJXJXJXJXJXJXJXJX",
"JXJXJXJXJXJXJXJXJXJX- R E E E ( ( T 0.w.0.8.0.0.8.T / R.&X&X%X%X%X%X%X%X$Xc.x.c.c.c.x.v.x.v.k.].'.vXvXNXh.7 JXJXJXJXJXJXJXJXJXJX",
"JXJXJXJXJXJXJXJXJXJXZ Y Y W E E E ~ ~ ( 0.0.0.0.0.0.w.&X7X&X&X%X%X&X%X%X#X`.c.U.c.c.c.`.].'.vXBXNXNXNXvXX.6 + JXJXJXJXJXJXJXJXJX",
"JXJXJXJXJXJXJXJXJX. Y Y Y ! P ~ K W ( W ~ ~ / 0.0.0.K.mX5X>X>X>X&X&X&X&X&X&X$X`.`._.'.MXCXCXCXCXBXNXNXbXN X.: JXJXJXJXJXJXJXJXJX",
"JXJXJXJXJXJXJXJXJX- ! Y Y ( ^ W W ~ W K ^ W ~ ~ / 0.*XmX7X7XmX7X&X5X5X&X5X5X'.5XmXMXZXZXVXZXVXBXBXBXNXE.N X.e . JXJXJXJXJXJXJXJX",
"JXJXJXJXJXJXJXJXJXC ! ! ! L P W P W ~ W W ~ W ~ ^ / D.F.S.F.S.S.F.F.A.U.M.M.M.mXDXSXAXAXZXZXVXCXBXBXbXf.M X.X.: JXJXJXJXJXJXJXJX",
"JXJXJXJXJXJXJXJX= ! ! ! W E W ~ ^ ~ W ~ ~ W K / q.V.S.S.S.S.S.V.F.V.B.B.M.M.n.n.nXFXGXAXZXZXZXVXCXBXk. . ... .e JXJXJXJXJXJXJXJX",
"JXJXJXJXJXJXJXJX7 W W W Q W ~ ~ ~ ~ K ^ ~ W ^ q.S.F.C.F.S.D.S.S.S.S.S.A.F.A.B.N.U.MXGXFXAXAXZXVXVXBXd.M X... .X.o JXJXJXJXJXJXJX",
"JXJXJXJXJXJXJXJXC W W W W W W ~ ^ ^ ^ ~ ~ ^ q.V.F.D.F.K.D.F.D.D.D.D.D.F.F.A.B.M.n.R.mXDXAXAXAXZXCXbX+.B X. .X. .7 JXJXJXJXJXJXJX",
"JXJXJXJXJXJXJX- ^ Q W W W ^ ^ ^ ~ ^ P ^ / q.F.F.D.D.D.D.L.L.P.P.L.F.L.L.F.S.B.M.N.n.n.&XHXDXAXZXCX_.O.+.+...X.....+ JXJXJXJXJXJX",
"JXJXJXJXJXJXo C W W W Q Q Q W W ~ ~ ^ / m.D.D.F.F.D.D.D.P.T.T.T.T.T.T.L.L.S.m.F.M.n.n.n.nXHXHXZXMXz.O.#.+..... ...6 JXJXJXJXJXJX",
"JXJXJXJXJXJX- R Q ^ W ^ W Q ^ W ~ / / q.D.K.K.K.K.K.K.K.P.Y.T.T.Y.T.T.T.F.S.S.F.M.M.M.n.R.mXAXHXnXd.@.+.+...X. . .e JXJXJXJXJXJX",
"JXJXJXJXJXJXC Q Q Q Q Q Q ^ ^ ^ ~ 0.q.I.I.K.K.K.I.K.K.K.P.*X*X*X=XY.Y.T.D.C.V.S.B.M.M.M.n.N.nXDX'.9.@.#.+.+.....X.e O JXJXJXJXJX",
"JXJXJXJXJX. ( Q ^ ^ ^ ^ ^ ^ ~ ~ ~ q.=XI.I.K.K.I.K.I.K.P.Y.*X,X=X=X-X=XL.F.S.V.I.C.B.B.M.N.n.n.mX`.#.#.#.+.+.O. .O. .: JXJXJXJXJX",
"JXJXJXJXJXB ^ W W ^ ^ ^ ^ ~ ^ L Y G.:X|.|.|.}.}.}.}.|.|.=X=X:X,X,X,X-XK.C.G.D.C.C.B.B.B.A.A.M.B.9.@.#.#.+.#.+... . .e o JXJXJXJX",
"JXJXJXJXo R ^ ^ ^ ~ ^ ^ ~ ( L L K H.:X X=X X X X}. X X.X.X:X:X>X>X,X=XK.K.D.C.D.C.A.K.K.K.A.A.n.5.T @.@.#.+.+..... . .: JXJXJXJX",
"JXJXJXJX7 ^ Q Q ^ ^ W E L J J K ~ H.6XOXOXOX;X+XOX@XOXOX;X:X>X7X>X:X|.K.G.C.G.K.L.P.P.L.L.K.A.n.V T o.o.O.| +.+.....O.e JXJXJXJX",
"JXJXJXJXN ^ Q Q ~ L L L J K J K I H.6X@X+X2X6X2X6X6X2X+X+X6X6X7X7X:X|.K.K.K.P.P.*XP.P.L.L.K.B.m.H 5.o.o.o.B O.+.+...|  .= JXJXJX",
"JXJXJX7 R W ! L L L J J K K P P I  X8X2X2X4X8X8X8X8X8XeX8X8X9X9X9XOX.XOX=X=X=X=XP.P.P.P.K.A.B.n.7.T o.o.V o.B M M M  .X.X.JXJXJX",
"JXJXJXN ! D D L L J J K K K P P 2. XeX4X8X0X4XeXeXeXeXeXeX9X8X9X8X+X;X;X;X=X.X*X|.P.L.P.I.A.Z.n.R 5.5.o.o.B B B B B M M X.+ JXJX",
"JXJXJXz G D D L J K K K P P I I 3.oXeX0X0X0XrXqXrXrXrXrXtXtXyXeX6X2X;X;X;XOX=X.X|.P.K.I.K.D.B.m.R 5.5.5.V o.B B M M M N N O JXJX",
"JXJXJX- G A J J J K P P I I I 2.2.XXrX0XqXqXqXrXhXrXhXjXjXrX0X4X4X2X1X@X+XOX=X X|.I.P.K.K.A.B.m.7.T 5.o.V o.B B C M N z 2   JXJX",
"JXJXJXo Z z b D K K P P I 2.I 2.3.<XiXqXqXiXiXzXhXzXhXhXqX0X4X4X4X4X1X@X@XOXOX X}.I.I.K.G.C.B.m.R T 5.5.V V B B M N z i > JXJXJX",
"JXJXJXJX- b z z m U I U 2.2.3.4.t.3XzXiXgXgXkXgXgXgXiXuXuXwXwXwX0X4X4XXXXX[. X X XI.I.I.C.Z.Z.m.7.7.5.o.V V C b a a i 1 X JXJXJX",
"JXJXJXJXo b b c b m H H >.2.4.4.u.3XgXdXfXfXfXaXaXsXsXuXuXuXwXqXqX0X0X1XXXoX[.[.{.I.I.K.G.Z.m.Z.( 7.6.5.b b g a d d d * JXJXJXJX",
"JXJXJXJXJXC b b b n n ' >.>.4.u.u.wXfXdXdXdXaXaXaXpXsXsXuXuXiXiXiXrX0X3X1XXXoX{.}.H.H.G.G.Z.m.B.R R R b v g a p d d 2 X JXJXJXJX",
"JXJXJXJXJXo R b n n n ' :.:.:.1.y.wXkXaXpXaXpXaXpXaXpXpXaXsXfXgXhXqXqX4X<XXXXX[.{.H.G.J.C.V.B.B.L G G k l l l a p p > JXJXJXJXJX",
"JXJXJXJXJXJXc n n n ' ' >.:.1.1.r./.qXfXaXaXpXpXpXpXpXpXpXaXkXfXgXzXhX0X3X<XXX@X{.{.H.J.G.Z.q.b A S h j k l a p p i X JXJXJXJXJX",
"JXJXJXJXJXJX7 R n n ] ] >.,.,.e.y.~.(.gXdXaXpXpXpXpXpXpXpXdXkXkXkXzXhXqX3X<X1XXX[.{.I.G.Z.q.7.d k S S j g g g a p 2   JXJXJXJXJX",
"JXJXJXJXJXJXo ) n ' ' >.:.,.1.r.~.~.~.(.iXaXpXaXpXpXpXpXaXfXkXkXkXkXzXrX0X<X1XoX[.{.H.J.q.R v l f A S h j g f p p > JXJXJXJXJXJX",
"JXJXJXJXJXJXJX; >.' ] ] ,.,.e.t.~.~.~.^.(.iXaXpXpXpXpXpXaXkXkXkXkXkXkXhXqX3X1XXX[.H.J.G.H v h a f k S j l g p a p * JXJXJXJXJXJX",
"JXJXJXJXJXJXJXO o.>.' :.,.1.t.a.~.~.^.^.^.(.uXdXpXpXpXaXfXkXkXkXlXkXkXzXrX3X<XoXoXJ.s.7.F v h v f f S A j g g p 2 JXJXJXJXJXJXJX",
"JXJXJXJXJXJXJXJXq >.] :.,.<.a.p.^.^.Q.^.^.^.(.sXaXpXpXdXfXlXlXlXlXlXlXcXhX0X<XXX{.s.7.F F A h g p f A A h f f p $ JXJXJXJXJXJXJX",
"JXJXJXJXJXJXJXJX: 1.] ,.,.<.a.~.~.Q.Q.^.Q.Q./.(.sXaXpXfXlXlXlXlXlXlXxXzXjXrX<X).s.2.U G F A h j a l k h f g g i JXJXJXJXJXJXJXJX",
"JXJXJXJXJXJXJXJXJX$.:.,.{ 1.p.~.y.^.Q.Q.Q.Q.Q./.(.sXdXkXxXxXkXlXlXxXxXcXjXtX4XoXi.U F F h h h g a p l j f f f < JXJXJXJXJXJXJXJX",
"JXJXJXJXJXJXJXJXJX8 1.] ,.t.p.p.W.~.Q.Q.Q.Q.Q.Q.!./.qXjXjXjXhXhXjXtXtXtXtXyX4Xs.I U U G v F g f g p p f j l i X JXJXJXJXJXJXJXJX",
"JXJXJXJXJXJXJXJXJXo $.1.1.i.p.p.~.~.~.^.W.W.W.!.r.r./.(.(.).).).)././././.s.e.x F U U F F A h g a p i p k f > JXJXJXJXJXJXJXJXJX",
"JXJXJXJXJXJXJXJXJXJX_ 1.e.i.p.p.p.~.y.W.!.r.r.=.=.=.=.!.!.u.r.r.e.e.<.{ ) ) x 4 4 m s m A A h j a a i a j d $ JXJXJXJXJXJXJXJXJX",
"JXJXJXJXJXJXJXJXJXJXw e.i.i.a.p.y.y.r.r.r.=.=.=.=.%.=.!.!.r.e.u.e.<.<.{ n 4 4 4 3 3 3 , 1 s f j k l p p d i JXJXJXJXJXJXJXJXJXJX",
"JXJXJXJXJXJXJXJXJXJXO -.i.i.i.t.r.e.=.*.*.*.*.&.%.%.-.=.y.u.e.e.e.<.<.[ } 4 4 3 3 , , , > < > < 2 p p d i % JXJXJXJXJXJXJXJXJXJX",
"JXJXJXJXJXJXJXJXJXJXJX8 $.s.e.{ ;.*.*.&.&.%.%.%.%.-.%.%.r.u.e.<.{ <.{ } } 4 4 4 3 , , , > > % & % < 1 2 1 JXJXJXJXJXJXJXJXJXJXJX",
"JXJXJXJXJXJXJXJXJXJXJXJXJX8 ` ;.{ &._ *.&.&.&.-.%.-.` %.%.e.e.<.<.] ] x 4 4 4 3 , , , < > > % % % & X X JXJXJXJXJXJXJXJXJXJXJXJX",
"JXJXJXJXJXJXJXJXJXJXJXJXJXJXO 8 ;.;.$._ _ %.;._ -.%.` ` _ e.<.<.{ ] [ x 4 4 3 3 3 < < > > > % & X X JXJXJXJXJXJXJXJXJXJXJXJXJXJX",
"JXJXJXJXJXJXJXJXJXJXJXJXJXJXJXJXJXJX9 =.*._ _ _ _ _ ` ` ` %.4.<.,.} } 4 3 4 3 1 < < < % > &   JXJXJXJXJXJXJXJXJXJXJXJXJXJXJXJXJX",
"JXJXJXJXJXJXJXJXJXJXJXJXJXJXJXJXJXJXJXJX9 ` _ ` ` ` ` ) q } 1.,.[ } x 4 4 3 3 1 < > % $   JXJXJXJXJXJXJXJXJXJXJXJXJXJXJXJXJXJXJX",
"JXJXJXJXJXJXJXJXJXJXJXJXJXJXJXJXJXJXJXJXJXJX9 8 q ` ) q ) q ] :.[ x m 4 3 , , > $ X   JXJXJXJXJXJXJXJXJXJXJXJXJXJXJXJXJXJXJXJXJX",
"JXJXJXJXJXJXJXJXJXJXJXJXJXJXJXJXJXJXJXJXJXJXJXJXO 9 q ` ) w } :.} 4 4 4 4 > $ X JXJXJXJXJXJXJXJXJXJXJXJXJXJXJXJXJXJXJXJXJXJXJXJX",
"JXJXJXJXJXJXJXJXJXJXJXJXJXJXJXJXJXJXJXJXJXJXJXJXJXJXJXO w | 5 n n 3 3 & X JXJXJXJXJXJXJXJXJXJXJXJXJXJXJXJXJXJXJXJXJXJXJXJXJXJXJX",
"JXJXJXJXJXJXJXJXJXJXJXJXJXJXJXJXJXJXJXJXJXJXJXJXJXJXJXJXJXo 7 ) m ; X JXJXJXJXJXJXJXJXJXJXJXJXJXJXJXJXJXJXJXJXJXJXJXJXJXJXJXJXJX",
"JXJXJXJXJXJXJXJXJXJXJXJXJXJXJXJXJXJXJXJXJXJXJXJXJXJXJXJXJXJXJX; ; JXJXJXJXJXJXJXJXJXJXJXJXJXJXJXJXJXJXJXJXJXJXJXJXJXJXJXJXJXJXJX",
"JXJXJXJXJXJXJXJXJXJXJXJXJXJXJXJXJXJXJXJXJXJXJXJXJXJXJXJXJXJXJXJXJXJXJXJXJXJXJXJXJXJXJXJXJXJXJXJXJXJXJXJXJXJXJXJXJXJXJXJXJXJXJXJX",
"JXJXJXJXJXJXJXJXJXJXJXJXJXJXJXJXJXJXJXJXJXJXJXJXJXJXJXJXJXJXJXJXJXJXJXJXJXJXJXJXJXJXJXJXJXJXJXJXJXJXJXJXJXJXJXJXJXJXJXJXJXJXJXJX"
};
