/* XPM */
static char *result[] = {
/* columns rows colors chars-per-pixel */
"64 64 220 2 ",
"   c #131E4E",
".  c #0D1258",
"X  c #091078",
"o  c #17276B",
"O  c #14296D",
"+  c #09129E",
"@  c #0E1F99",
"#  c #08178C",
"$  c #1E2F98",
"%  c #1C2988",
"&  c #2B3A9B",
"*  c #091AAC",
"=  c #0A14A6",
"-  c #0C13B3",
";  c #0C1AB5",
":  c #0A22AE",
">  c #0623B2",
",  c #062AB6",
"<  c #0628B7",
"1  c #1B27A2",
"2  c #252DA6",
"3  c #1C4D9C",
"4  c #194B8E",
"5  c #3B518F",
"6  c #184BB0",
"7  c #4C6294",
"8  c #445FA6",
"9  c #4D67BD",
"0  c #0D16CD",
"q  c #0D1ACD",
"w  c #0915C4",
"e  c #1016CC",
"r  c #111ECC",
"t  c #0E16D4",
"y  c #0D19D1",
"u  c #0D1ADA",
"i  c #101AD6",
"p  c #121CDC",
"a  c #1015D2",
"s  c #0A36C2",
"d  c #1C33C1",
"f  c #1A2AD7",
"g  c #0231D2",
"h  c #1537D8",
"j  c #1926CD",
"k  c #202DC5",
"l  c #2C3BCB",
"z  c #253AC7",
"x  c #2632D6",
"c  c #2A3DD5",
"v  c #2B3EDB",
"b  c #2639D8",
"n  c #111BE3",
"m  c #0C1AE2",
"M  c #1029E5",
"N  c #0A32EE",
"B  c #1634E6",
"V  c #1425FA",
"C  c #132BFE",
"Z  c #1623F5",
"A  c #123DFC",
"S  c #1632FF",
"D  c #0E29E6",
"F  c #222AEE",
"G  c #2C3EE5",
"H  c #253EEC",
"J  c #2837E7",
"K  c #222CF4",
"L  c #232DFD",
"P  c #292FFF",
"I  c #2432FF",
"U  c #2831FF",
"Y  c #2B3BF9",
"T  c #0F42CC",
"R  c #1840CB",
"E  c #1957C9",
"W  c #1544DE",
"Q  c #144ED9",
"!  c #195ED4",
"~  c #185EDD",
"^  c #2F46C4",
"/  c #334ACC",
"(  c #3345C8",
")  c #2C42DB",
"_  c #354CD2",
"`  c #3347DA",
"'  c #205CDA",
"]  c #3951D9",
"[  c #1960CF",
"{  c #1664D3",
"}  c #1B64D4",
"|  c #1768D6",
" . c #1A6BDB",
".. c #2163D0",
"X. c #144CE3",
"o. c #134DEA",
"O. c #1451E4",
"+. c #145BE3",
"@. c #1358ED",
"#. c #1146FF",
"$. c #1053FF",
"%. c #2E41EC",
"&. c #2A44E5",
"*. c #3143ED",
"=. c #3046E0",
"-. c #3854EF",
";. c #3246F4",
":. c #354CFC",
">. c #3D52FF",
",. c #146CEC",
"<. c #1964E8",
"1. c #1874EF",
"2. c #1679F9",
"3. c #0A64FC",
"4. c #236EFA",
"5. c #227AFD",
"6. c #3673EB",
"7. c #4C6CC2",
"8. c #516FCC",
"9. c #546DC0",
"0. c #5473CD",
"q. c #4F6CD4",
"w. c #516FD0",
"e. c #5474D3",
"r. c #5977D6",
"t. c #5374DB",
"y. c #5B7BDD",
"u. c #455BFF",
"i. c #475CEA",
"p. c #4C63ED",
"a. c #5269EE",
"s. c #4C63F5",
"d. c #4F6BFF",
"f. c #4E69F2",
"g. c #536BF7",
"h. c #5466FD",
"j. c #546DFF",
"k. c #4B75FE",
"l. c #497AFE",
"z. c #5475FF",
"x. c #5C76FF",
"c. c #567AFF",
"v. c #5C79FF",
"b. c #557EE4",
"n. c #6377FF",
"m. c #6679E6",
"M. c #1C86FB",
"N. c #1F89FF",
"B. c #2F99EF",
"V. c #2283FF",
"C. c #228DFF",
"Z. c #349BFA",
"A. c #388BF7",
"S. c #36B6FF",
"D. c #3EA7FC",
"F. c #6B8ADC",
"G. c #6484DA",
"H. c #798EDD",
"J. c #7091DC",
"K. c #4C82FF",
"L. c #4C8DFF",
"P. c #4488FF",
"I. c #5681FF",
"U. c #5982FF",
"Y. c #5788FF",
"T. c #4C9BFF",
"R. c #4499FF",
"E. c #5B94FF",
"W. c #5A9CFF",
"Q. c #6D91EA",
"!. c #6E90E2",
"~. c #7498E9",
"^. c #6484FF",
"/. c #648BFF",
"(. c #6E8EFF",
"). c #6C95FF",
"_. c #619BFF",
"`. c #6C9DFF",
"'. c #7191EC",
"]. c #4BA4FE",
"[. c #4DAFFF",
"{. c #5AAAFF",
"}. c #47B2FF",
"|. c #56BDFF",
" X c #7CA0EB",
".X c #69B3FF",
"XX c #66B9FF",
"oX c #77A0F4",
"OX c #43C1FF",
"+X c #58C9FF",
"@X c #4ED5FF",
"#X c #5CD6FF",
"$X c #5CDCFF",
"%X c #60C3FF",
"&X c #69DCFF",
"*X c #4BEBFF",
"=X c #53EBFF",
"-X c #45FFFF",
";X c #49FEFF",
":X c #56FFFF",
">X c #5AFDFF",
",X c #58F3FF",
"<X c #65E3FF",
"1X c #6DE1FF",
"2X c #64FEFF",
"3X c #69F5FF",
"4X c #70FFFF",
"5X c #73F4FF",
"6X c #87A8CC",
"7X c #95B5D9",
"8X c #99BBC9",
"9X c #8A9FE2",
"0X c #82A4E3",
"qX c #9FC7CC",
"wX c #A9CBD4",
"eX c #B5D5DD",
"rX c #A3C5CC",
"tX c #C4DAE0",
"yX c #D3E0E2",
"uX c None",
/* pixels */
"uXuXuXuXuXuXuXuXuXuXuXuXuXuXuXuXuXuXuXuXuXuXuXuXuXuXuXuXuXuXuXuXuXuXuXuXuXuXuXuXuXuXuXuXuXuXuXuXuXuXuXuXuXuXuXuXuXuXuXuXuXuXuXuX",
"uXuXuXuXuXuXuXuXuXuXuXuXuXuXuXuXuXuXuXuXuXuXuXuXuXuXuXuXuXuXuXuXuXuXuXuXuXuXuXuXuXuXuXuXuXuXuXuXuXuXuXuXuXuXuXuXuXuXuXuXuXuXuXuX",
"uXuXuXuXuXuXuXuXuXuXuXuXuXuXuXuXuXuXuXuXuXuXuXuXuXuXuXuXuXuXuXuXuXuXuXuXuXuXuXuXuXuXuXuXuXuXuXuXuXuXuXuXuXuXuXuXuXuXuXuXuXuXuXuX",
"uXuXuXuXuXuXuXuXuXuXuXuXuXuXuXuXuXuXuXuXuXuXuXuXuXuXuXuXuXuXuXuXuXuXuXuXuXuXuXuXuXuXuXuXuXuXuXuXuXuXuXuXuXuXuXuXuXuXuXuXuXuXuXuX",
"uXuXuXuXuXuXuXuXuXuXuXuXuXuXuXuXuXuXuXuXuXuXuXuXuXuXuXuXuXuXuXuXuXuXuXuXuXuXuXuXuXuXuXuXuXuXuXuXuXuXuXuXuXuXuXuXuXuXuXuXuXuXuXuX",
"uXuXuXuXuXuXuXuXuXuXuXuXuXuXuXuXuXuXuXuXuXuXuXuXuXuXuXuXuXuXuXuXuXuXuXuXuXuXuXuXuXuXuXuXuXuXuXuXuXuXuXuXuXuXuXuXuXuXuXuXuXuXuXuX",
"uXuXuXuXuXuXuXuXuXuXuXuXuXuXuXuXuXuXuXuXuXuXuXuXuXuXuXuXuXuXuXuXuXuXuXuXuXuXuXuXuXuXuXuXuXuXuXuXuXuXuXuXuXuXuXuXuXuXuXuXuXuXuXuX",
"uXuXuXuXuXuXuXuXuXuXuXuXuXuXuXuXuXuXuXuXuXuXuXuXuXuXuXuXuXuXuXuXuXuXuXuXuXuXuXuXuXuXuXuXuXuXuXuXuXuXuXuXuXuXuXuXuXuXuXuXuXuXuXuX",
"uXuXuXuXuXuXuXuXuXuXuXuXuXuXuXuXuXuXuXuXuXuXuXuXuXuXuXuXuXuXuXuXuXuXuXuXuXuXuXuXuXuXuXuXuXuXuXuXuXuXuXuXuXuXuXuXuXuXuXuXuXuXuXuX",
"uXuXuXuXuXuXuXuXuXuXuXuXuXuXuXuXuXuXuXuXuXuXuXuXuXuXuXuXuXuXuXuXuXuXuXuXuXuXuXuXuXuXuXuXuXuXuXuXuXuXuXuXuXuXuXuXuXuXuXuXuXuXuXuX",
"uXuXuXuXuXuXuXuXuXuXuXuXuXuXuXuXuXuXuXuXuXuXuXuXuXuXuXuXuXuXuXuXuXuXuXuXuXuXuXuXuXuXuXuXuXuXuXuXuXuXuXuXuXuXuXuXuXuXuXuXuXuXuXuX",
"uXuXuXuXuXuXuXuXuXuXuXuXuXuXuXuXuXuXuXuXuXuXuXuXuXuXuXuXuXuXuXuXuXuXuXuXuXuXuXuXuXuXuXuXuXuXuXuXuXuXuXuXuXuXuXuXuXuXuXuXuXuXuXuX",
"uXuXuXuXuXuXuXuXuXuXuXuXuXuXuXuXuXuXuXuXuXuXuXuXuXuXuXuXuXuXuXuXuXuXuXuXuXuXuXuXuXuXuXuXuXuXuXuXuXuXuXuXuXuXuXuXuXuXuXuXuXuXuXuX",
"uXuXuXuXuXuXuXuXuXuXuXuXuXuXuXuXuXuXuXuXuXuXuXuXuXuXuXuXuXuXuXuXuXuXuXuXuXuXuXuXuXuXuXuXuXuXuXuXuXuXuXuXuXuXuXuXuXuXuXuXuXuXuXuX",
"uXuXuXuXuXuXuXuXuXuXuXuXuXuXuXuXuXuXuXuXuXuXuXuXuXuXuXuXuXuXuXuXuXuXuXuXuXuXuXuXuXuXuXuXuXuXuXuXuXuXuXuXuXuXuXuXuXuXuXuXuXuXuXuX",
"uXuXuXuXuXuXuXuXuXuXuXuXuXuXuXuXuXuXuXuXuXuXuXuXuXuXuXuXuXuXuXuXuXuXuXuXuXuXuXuXuXuXuXuXuXuXuXuXuXuXuXuXuXuXuXuXuXuXuXuXuXuXuXuX",
"uXuXuXuXuXuXuXuXuXuXuXuXuXuXuXuXuXuXuXuXuXuXuXuXuXuXuXuXuXuXuXuXuXuXuXuXuXuXuXuXuXuXuXuXuXuXuXuXuXuXuXuXuXuXuXuXuXuXuXuXuXuXuXuX",
"uXuXuXuXuXuXuXuXuXuXuXuXuXuXuXuXuXuXuXuXuXuXuXuXuXuXuXuXuXuXuXuXuXuXuXuXuXuXuXuXuXuXuXuXuXuXuXuXuXuXuXuXuXuXuXuXuXuXuXuXuXuXuXuX",
"uXuXuXuXuXuXuXuXuXuXuXuXuXuXuXuXuXuXuXuXuXuXuXuXuXuXuXuXuXuXuXuXuXuXuXuXuXuXuXuXuXuXuXuXuXuXuXuXuXuXuXuXuXuXuXuXuXuXuXuXuXuXuXuX",
"uXuXuXuXuXuXuXuXuXuXuXuXuXuXuXuXuXuXuXuXuXuXuXuXuXuXuXuXuXuX$ l 8.8 uXuXuXuXuXuXuXuXuXuXuXuXuXuXuXuXuXuXuXuXuXuXuXuXuXuXuXuXuXuX",
"uXuXuXuXuXuXuXuXuXuXuXuXuXuXuXuXuXuXuXuXuXuXuXuXuXuXo l v c v F.G.q.0.q.9 5 uXuXuXuXuXuXuXuXuXuXuXuXuXuXuXuXuXuXuXuXuXuXuXuXuXuX",
"uXuXuXuXuXuXuXuXuXuXuXuXuXuXuXuXuXuXuXuXuXuXuXuX% l G G G G =.F.G.r.e.0.0.0.7.5 uXuXuXuXuXuXuXuXuXuXuXuXuXuXuXuXuXuXuXuXuXuXuXuX",
"uXuXuXuXuXuXuXuXuXuXuXuXuXuXuXuXuXuXuXuXuXuXuX=.*.*.G H G *.a.Q.F.G.t.e.e.0.8.0.7.7 uXuXuXuXuXuXuXuXuXuXuXuXuXuXuXuXuXuXuXuXuXuX",
"uXuXuXuXuXuXuXuXuXuXuXuXuXuXuXuXuXuXuXuXuXuXJ K K Y :.;.%.*.~.'.'.!.y.t.r.0.0.6X8X9.uXuXuXuXuXuXuXuXuXuXuXuXuXuXuXuXuXuXuXuXuXuX",
"uXuXuXuXuXuXuXuXuXuXuXuXuXuXuXuXuXuXuXuXuX  F K K L L Y :.g.oX~.~.~.~.b.J.7XrXqXrXl & uXuXuXuXuXuXuXuXuXuXuXuXuXuXuXuXuXuXuXuXuX",
"uXuXuXuXuXuXuXuXuXuXuXuXuXuXuXuXuXuXuXuXuXx K K I L L L P x.h.j.g.g.p.0XtXeXwXwX6Xl ^ uXuXuXuXuXuXuXuXuXuXuXuXuXuXuXuXuXuXuXuXuX",
"uXuXuXuXuXuXuXuXuXuXuXuXuXuXuXuXuXuXuXuXuXL L P I I I >.j.j.j.j.j.j.g.i.m.yXeXwX` / / & uXuXuXuXuXuXuXuXuXuXuXuXuXuXuXuXuXuXuXuX",
"uXuXuXuXuXuXuXuXuXuXuXuXuXuXuXuXuXuXuXuXx P P U I I u.z.j.j.x.n.x.n.h.h.p.i.tX7X` _ / ( uXuXuXuXuXuXuXuXuXuXuXuXuXuXuXuXuXuXuXuX",
"uXuXuXuXuXuXuXuXuXuXuXuXuXuXuXuXuXuXuXuXI P U U I Y c.z.z.z.v.^.^.v.d.h.s.p.9XH.` ] ( ( uXuXuXuXuXuXuXuXuXuXuXuXuXuXuXuXuXuXuXuX",
"uXuXuXuXuXuXuXuXuXuXuXuXuXuXuXuXuXuXuXuXP P U I L k.U.I.I.U.^.).(.z.j.d.s.f.s.=.] ] / / o uXuXuXuXuXuXuXuXuXuXuXuXuXuXuXuXuXuXuX",
"uXuXuXuXuXuXuXuXuXuXuXuXuXuXuXuXuXuXuX2 P I K V V l.E._.E.E._.`.).z.z.j.v.z.g.b =.v ] _ ( uXuXuXuXuXuXuXuXuXuXuXuXuXuXuXuXuXuXuX",
"uXuXuXuXuXuXuXuXuXuXuXuXuXuXuXuXuXuXuXJ Z Z C C C L.{.XXXX%X.X.XE./././.v.c.s.&.` c c l ( uXuXuXuXuXuXuXuXuXuXuXuXuXuXuXuXuXuXuX",
"uXuXuXuXuXuXuXuXuXuXuXuXuXuXuXuXuXuXuXf V V S A A ].#X$X<X<X&X+X].W.E.Y.v.c.s.H =.v b c k . uXuXuXuXuXuXuXuXuXuXuXuXuXuXuXuXuXuX",
"uXuXuXuXuXuXuXuXuXuXuXuXuXuXuXuXuXuXuX1 j B A $.$.}.,X2X>X=X@X@X+XT.L.Y.I.z.s.H &.) x r - uXuXuXuXuXuXuXuXuXuXuXuXuXuXuXuXuXuXuX",
"uXuXuXuXuXuXuXuXuXuXuXuXuXuXuXuXuXuXuXuXj h h o.3.OX:X;X;X;X*X=X&X[.T.P.l.k.s.H J i 0 0 X uXuXuXuXuXuXuXuXuXuXuXuXuXuXuXuXuXuXuX",
"uXuXuXuXuXuXuXuXuXuXuXuXuXuXuXuXuXuXuXuXB h W X.@.Z.;X;X;X;X-X2X<X+X].T.l.l.-.m n i y e uXuXuXuXuXuXuXuXuXuXuXuXuXuXuXuXuXuXuXuX",
"uXuXuXuXuXuXuXuXuXuXuXuXuXuXuXuXuXuXuXuXR W W +.,.V.*X-X-X-X;X2X2X&X[.T.K.l.m y n i t 0 uXuXuXuXuXuXuXuXuXuXuXuXuXuXuXuXuXuXuXuX",
"uXuXuXuXuXuXuXuXuXuXuXuXuXuXuXuXuXuXuXuXo W O.+.5.V.C.=X-X-X:X2X2X3X|.T.l.&.u t n t t - uXuXuXuXuXuXuXuXuXuXuXuXuXuXuXuXuXuXuXuX",
"uXuXuXuXuXuXuXuXuXuXuXuXuXuXuXuXuXuXuXuXuX~ X.<.V.V.C.M.S.:X4X4X4X5X1XR.N D u q i u t uXuXuXuXuXuXuXuXuXuXuXuXuXuXuXuXuXuXuXuXuX",
"uXuXuXuXuXuXuXuXuXuXuXuXuXuXuXuXuXuXuXuXuXO Q 4.5.V.M.M.1.B.S.D.Z.A.6.g N D u q w t = uXuXuXuXuXuXuXuXuXuXuXuXuXuXuXuXuXuXuXuXuX",
"uXuXuXuXuXuXuXuXuXuXuXuXuXuXuXuXuXuXuXuXuXuX<.4.5.2.<. .| | 2.3.+.Q s , > ; q u 0 0 uXuXuXuXuXuXuXuXuXuXuXuXuXuXuXuXuXuXuXuXuXuX",
"uXuXuXuXuXuXuXuXuXuXuXuXuXuXuXuXuXuXuXuXuXuX3 4.~ ! } | | [ ,.<.+.s < < * * + + - - uXuXuXuXuXuXuXuXuXuXuXuXuXuXuXuXuXuXuXuXuXuX",
"uXuXuXuXuXuXuXuXuXuXuXuXuXuXuXuXuXuXuXuXuXuXuXuX3 } ! } [ E ! ,.Q s < : * * + X uXuXuXuXuXuXuXuXuXuXuXuXuXuXuXuXuXuXuXuXuXuXuXuX",
"uXuXuXuXuXuXuXuXuXuXuXuXuXuXuXuXuXuXuXuXuXuXuXuXuXuX4 ..E E 6 @.R , < ; = # uXuXuXuXuXuXuXuXuXuXuXuXuXuXuXuXuXuXuXuXuXuXuXuXuXuX",
"uXuXuXuXuXuXuXuXuXuXuXuXuXuXuXuXuXuXuXuXuXuXuXuXuXuXuXuXuXuX6 d < @ uXuXuXuXuXuXuXuXuXuXuXuXuXuXuXuXuXuXuXuXuXuXuXuXuXuXuXuXuXuX",
"uXuXuXuXuXuXuXuXuXuXuXuXuXuXuXuXuXuXuXuXuXuXuXuXuXuXuXuXuXuXuXuXuXuXuXuXuXuXuXuXuXuXuXuXuXuXuXuXuXuXuXuXuXuXuXuXuXuXuXuXuXuXuXuX",
"uXuXuXuXuXuXuXuXuXuXuXuXuXuXuXuXuXuXuXuXuXuXuXuXuXuXuXuXuXuXuXuXuXuXuXuXuXuXuXuXuXuXuXuXuXuXuXuXuXuXuXuXuXuXuXuXuXuXuXuXuXuXuXuX",
"uXuXuXuXuXuXuXuXuXuXuXuXuXuXuXuXuXuXuXuXuXuXuXuXuXuXuXuXuXuXuXuXuXuXuXuXuXuXuXuXuXuXuXuXuXuXuXuXuXuXuXuXuXuXuXuXuXuXuXuXuXuXuXuX",
"uXuXuXuXuXuXuXuXuXuXuXuXuXuXuXuXuXuXuXuXuXuXuXuXuXuXuXuXuXuXuXuXuXuXuXuXuXuXuXuXuXuXuXuXuXuXuXuXuXuXuXuXuXuXuXuXuXuXuXuXuXuXuXuX",
"uXuXuXuXuXuXuXuXuXuXuXuXuXuXuXuXuXuXuXuXuXuXuXuXuXuXuXuXuXuXuXuXuXuXuXuXuXuXuXuXuXuXuXuXuXuXuXuXuXuXuXuXuXuXuXuXuXuXuXuXuXuXuXuX",
"uXuXuXuXuXuXuXuXuXuXuXuXuXuXuXuXuXuXuXuXuXuXuXuXuXuXuXuXuXuXuXuXuXuXuXuXuXuXuXuXuXuXuXuXuXuXuXuXuXuXuXuXuXuXuXuXuXuXuXuXuXuXuXuX",
"uXuXuXuXuXuXuXuXuXuXuXuXuXuXuXuXuXuXuXuXuXuXuXuXuXuXuXuXuXuXuXuXuXuXuXuXuXuXuXuXuXuXuXuXuXuXuXuXuXuXuXuXuXuXuXuXuXuXuXuXuXuXuXuX",
"uXuXuXuXuXuXuXuXuXuXuXuXuXuXuXuXuXuXuXuXuXuXuXuXuXuXuXuXuXuXuXuXuXuXuXuXuXuXuXuXuXuXuXuXuXuXuXuXuXuXuXuXuXuXuXuXuXuXuXuXuXuXuXuX",
"uXuXuXuXuXuXuXuXuXuXuXuXuXuXuXuXuXuXuXuXuXuXuXuXuXuXuXuXuXuXuXuXuXuXuXuXuXuXuXuXuXuXuXuXuXuXuXuXuXuXuXuXuXuXuXuXuXuXuXuXuXuXuXuX",
"uXuXuXuXuXuXuXuXuXuXuXuXuXuXuXuXuXuXuXuXuXuXuXuXuXuXuXuXuXuXuXuXuXuXuXuXuXuXuXuXuXuXuXuXuXuXuXuXuXuXuXuXuXuXuXuXuXuXuXuXuXuXuXuX",
"uXuXuXuXuXuXuXuXuXuXuXuXuXuXuXuXuXuXuXuXuXuXuXuXuXuXuXuXuXuXuXuXuXuXuXuXuXuXuXuXuXuXuXuXuXuXuXuXuXuXuXuXuXuXuXuXuXuXuXuXuXuXuXuX",
"uXuXuXuXuXuXuXuXuXuXuXuXuXuXuXuXuXuXuXuXuXuXuXuXuXuXuXuXuXuXuXuXuXuXuXuXuXuXuXuXuXuXuXuXuXuXuXuXuXuXuXuXuXuXuXuXuXuXuXuXuXuXuXuX",
"uXuXuXuXuXuXuXuXuXuXuXuXuXuXuXuXuXuXuXuXuXuXuXuXuXuXuXuXuXuXuXuXuXuXuXuXuXuXuXuXuXuXuXuXuXuXuXuXuXuXuXuXuXuXuXuXuXuXuXuXuXuXuXuX",
"uXuXuXuXuXuXuXuXuXuXuXuXuXuXuXuXuXuXuXuXuXuXuXuXuXuXuXuXuXuXuXuXuXuXuXuXuXuXuXuXuXuXuXuXuXuXuXuXuXuXuXuXuXuXuXuXuXuXuXuXuXuXuXuX",
"uXuXuXuXuXuXuXuXuXuXuXuXuXuXuXuXuXuXuXuXuXuXuXuXuXuXuXuXuXuXuXuXuXuXuXuXuXuXuXuXuXuXuXuXuXuXuXuXuXuXuXuXuXuXuXuXuXuXuXuXuXuXuXuX",
"uXuXuXuXuXuXuXuXuXuXuXuXuXuXuXuXuXuXuXuXuXuXuXuXuXuXuXuXuXuXuXuXuXuXuXuXuXuXuXuXuXuXuXuXuXuXuXuXuXuXuXuXuXuXuXuXuXuXuXuXuXuXuXuX",
"uXuXuXuXuXuXuXuXuXuXuXuXuXuXuXuXuXuXuXuXuXuXuXuXuXuXuXuXuXuXuXuXuXuXuXuXuXuXuXuXuXuXuXuXuXuXuXuXuXuXuXuXuXuXuXuXuXuXuXuXuXuXuXuX",
"uXuXuXuXuXuXuXuXuXuXuXuXuXuXuXuXuXuXuXuXuXuXuXuXuXuXuXuXuXuXuXuXuXuXuXuXuXuXuXuXuXuXuXuXuXuXuXuXuXuXuXuXuXuXuXuXuXuXuXuXuXuXuXuX",
"uXuXuXuXuXuXuXuXuXuXuXuXuXuXuXuXuXuXuXuXuXuXuXuXuXuXuXuXuXuXuXuXuXuXuXuXuXuXuXuXuXuXuXuXuXuXuXuXuXuXuXuXuXuXuXuXuXuXuXuXuXuXuXuX"
};
