/* XPM */
static char *result[] = {
/* columns rows colors chars-per-pixel */
"64 64 197 2 ",
"   c #15329B",
".  c #042BA5",
"X  c #042CAC",
"o  c #052AAD",
"O  c #0334AB",
"+  c #003BAB",
"@  c #0F3FA9",
"#  c #0632A7",
"$  c #1136A6",
"%  c #0029B0",
"&  c #092FB0",
"*  c #012BBB",
"=  c #113CB2",
"-  c #143AB7",
";  c #0043AE",
":  c #0B49AE",
">  c #1046AD",
",  c #0A54AD",
"<  c #0B5AAE",
"1  c #0A52A7",
"2  c #044AB6",
"3  c #0141B2",
"4  c #1543BB",
"5  c #184DBB",
"6  c #0B52B1",
"7  c #095EB2",
"8  c #1659B4",
"9  c #284AB6",
"0  c #3C5EB4",
"q  c #0A62AD",
"w  c #0D66B2",
"e  c #0B6AB4",
"r  c #0768B1",
"t  c #1167B7",
"y  c #126EB6",
"u  c #1A6DB4",
"i  c #0D74BA",
"p  c #1070B7",
"a  c #1273BA",
"s  c #1873BC",
"d  c #157BBC",
"f  c #336CBA",
"g  c #4960A9",
"h  c #5A6DA7",
"j  c #4A64BC",
"k  c #576CBC",
"l  c #4B76BB",
"z  c #012DC4",
"x  c #0436DD",
"c  c #093DE6",
"v  c #083FEF",
"b  c #053FEF",
"n  c #0336F5",
"m  c #0837F7",
"M  c #043AF6",
"N  c #0336F9",
"B  c #033DFA",
"V  c #0A3EFB",
"C  c #0B3EF6",
"Z  c #1A42CE",
"A  c #1E5EC6",
"S  c #044CDB",
"D  c #1D44D2",
"F  c #1D48D5",
"G  c #225DCC",
"H  c #2045D5",
"J  c #2248D7",
"K  c #2749DA",
"L  c #2F51D5",
"P  c #3356D4",
"I  c #1D66C6",
"U  c #1978C2",
"Y  c #1D6CD0",
"T  c #0640E7",
"R  c #0E40E7",
"E  c #0545EA",
"W  c #0A42EB",
"Q  c #084BEC",
"!  c #1743EA",
"~  c #0450EB",
"^  c #0442F4",
"/  c #0443FC",
"(  c #0943FE",
")  c #044DFC",
"_  c #094EFF",
"`  c #164AFA",
"'  c #0154FE",
"]  c #005CFF",
"[  c #0D5EFF",
"{  c #0451F3",
"}  c #1B55FB",
"|  c #2D58E7",
" . c #2250ED",
".. c #204CF6",
"X. c #2053FC",
"o. c #2A57FF",
"O. c #235CFF",
"+. c #295AFE",
"@. c #2252F4",
"#. c #0164FD",
"$. c #036BFD",
"%. c #0B62F8",
"&. c #0876F0",
"*. c #0174FD",
"=. c #0A73FF",
"-. c #007CFE",
";. c #2462FF",
":. c #2D65FF",
">. c #3165FE",
",. c #3169FE",
"<. c #3460F7",
"1. c #2D71FF",
"2. c #3B7EFD",
"3. c #3271FF",
"4. c #6377C7",
"5. c #4161E7",
"6. c #426AEF",
"7. c #4173FA",
"8. c #4D70F4",
"9. c #5276F3",
"0. c #6A83B8",
"q. c #1981C1",
"w. c #3E80C0",
"e. c #0284FF",
"r. c #0389FE",
"t. c #0194FF",
"y. c #069BFF",
"u. c #1297F3",
"i. c #3E83FB",
"p. c #0DA6E8",
"a. c #0DB0EE",
"s. c #07A1FE",
"d. c #0AA3FF",
"f. c #0AACFF",
"g. c #0CB4FF",
"h. c #0ABBFF",
"j. c #0DB5F1",
"k. c #4E81C1",
"l. c #6E80C3",
"z. c #7487D4",
"x. c #458BFE",
"c. c #4A8EFE",
"v. c #4784FB",
"b. c #5982F4",
"n. c #4C92FE",
"m. c #559AFB",
"M. c #599BFA",
"N. c #5393FA",
"B. c #6482ED",
"V. c #7395ED",
"C. c #6F9FF9",
"Z. c #7E9EF3",
"A. c #5DA7FB",
"S. c #5FA9FA",
"D. c #64A7F7",
"F. c #62A5FC",
"G. c #64A9FC",
"H. c #8992BB",
"J. c #9DACD1",
"K. c #92B1D0",
"L. c #ADB2CC",
"P. c #ABB2D6",
"I. c #839BF3",
"U. c #93A5EB",
"Y. c #84A1F0",
"T. c #8CB9F5",
"R. c #AFBAEF",
"E. c #A3B3E7",
"W. c #B3BDE5",
"Q. c #A7B9F0",
"!. c #A8C0D8",
"~. c #B0C3DA",
"^. c #AFC7F1",
"/. c #B7CEF0",
"(. c #C2C8DE",
"). c #CDD5DF",
"_. c #C2CCEC",
"`. c #CDD4E7",
"'. c #DBDDE6",
"]. c #D6DCEC",
"[. c #D9DEEA",
"{. c #C8D9F0",
"}. c #DEE5EE",
"|. c #EBE7E7",
" X c #E9ECE7",
".X c #E4E6EC",
"XX c #E5EBEB",
"oX c #EBECEC",
"OX c #E6E5EB",
"+X c None",
"@X c None",
"#X c None",
"$X c None",
"%X c None",
"&X c None",
"*X c None",
"=X c None",
/* pixels */
"=X=X=X=X=X=X=X=X=X=X=X=X=X=X=X=X=X=X=X=X=X=X=X=X=X=X=X=X=X=X=X=X=X=X=X=X=X=X=X=X=X=X=X=X=X=X=X=X=X=X=X=X=X=X=X=X=X=X=X=X=X=X=X=X",
"=X=X=X=X=X=X=X=X=X=X=X=X=X=X=X=X=X=X=X=X=X=X=X=X=X=X=X=X=X=X=X=X=X=X=X=X=X=X=X=X=X=X=X=X=X=X=X=X=X=X=X=X=X=X=X=X=X=X=X=X=X=X=X=X",
"=X=X=X=X=X=X=X=X=X=X=X=X=X=X=X=X=X=X=X=X=X=X=X=X=X=X=X=X=X=X=X=X=X=X=X=X=X=X=X=X=X=X=X=X=X=X=X=X=X=X=X=X=X=X=X=X=X=X=X=X=X=X=X=X",
"=X=X=X=X=X=X=X=X=X=X=X=X=X=X=X=X=X=X=X=X=X=X=X=X=X=X=X=X=X=X=X=X=X=X=X=X=X=X=X=X=X=X=X=X=X=X=X=X=X=X=X=X=X=X=X=X=X=X=X=X=X=X=X=X",
"=X=X=X=X=X=X=X=X=X=X=X=X=X=X=X=X=X=X=X=X=X=X=X=X=X=X=X=X=X=X=X=X=X=X=X=X=X=X=X=X=X=X=X=X=X=X=X=X=X=X=X=X=X=X=X=X=X=X=X=X=X=X=X=X",
"=X=X=X=X=X=X=X=X=X=X=X=X=X=X=X=X=X=X=X=X=X=X=X=X=X=X=X=X=X=X=X=X=X=X=X=X=X=X=X=X=X=X=X=X=X=X=X=X=X=X=X=X=X=X=X=X=X=X=X=X=X=X=X=X",
"=X=X=X=X=X=X=X=X=X=X=X=X=X=X=X=X=X=X=X=X=X=X=X=X=X=X=X=X=X=X=X=X=X=X=X=X=X=X=X=X=X=X=X=X=X=X=X=X=X=X=X=X=X=X=X=X=X=X=X=X=X=X=X=X",
"=X=X=X=X=X=X=X=X=X=X=X=X=X=X=X=X=X=X=X=X=X=X=X=X=X=X=X=X=X=X=X=X=X=X=X=X=X=X=X=X=X=X=X=X=X=X=X=X=X=X=X=X=X=X=X=X=X=X=X=X=X=X=X=X",
"=X=X=X=X=X=X=X=X=X=X=X=X=X=X=X=X=X=X=X=X=X=X=X=X=X=X=X=X=X=X=X=X=X=X=X=X=X=X=X=X=X=X=X=X=X=X=X=X=X=X=X=X=X=X=X=X=X=X=X=X=X=X=X=X",
"=X=X=X=X=X=X=X=X=X=X=X=X=X=X=X=X=X=X=X=X=X=X=X=X=X=X=X=X=X=X=X=X=X=X=X=X=X=X=X=X=X=X=X=X=X=X=X=X=X=X=X=X=X=X=X=X=X=X=X=X=X=X=X=X",
"=X=X=X=X=X=X=X=X=X=X=X=X=X=X=X=X=X=X=X=X=X=X=X=X=X=X=X=X=X=X=X=X=X=X=X=X=X=X=X=X=X=X=X=X=X=X=X=X=X=X=X=X=X=X=X=X=X=X=X=X=X=X=X=X",
"=X=X=X=X=X=X=X=X=X=X=X=X=X=X=X=X=X=X=X=X=X=X=X=X=X=X=X=X=X=X=X=X=X=X=X=X=X=X=X=X=X=X=X=X=X=X=X=X=X=X=X=X=X=X=X=X=X=X=X=X=X=X=X=X",
"=X=X=X=X=X=X=X=X=X=X=X=X=X=X=X=X=X=X=X=X=X=X=X=X=X=X=X=X=X=X=X=X=X=X=X=X=X=X=X=X=X=X=X=X=X=X=X=X=X=X=X=X=X=X=X=X=X=X=X=X=X=X=X=X",
"=X=X=X=X=X=X=X=X=X=X=X=X=X=X=X=X=X=X=X=X=X=X=X=X=X=X=X=X=X=X=X=X=X=X=X=X=X=X=X=X=X=X=X=X=X=X=X=X=X=X=X=X=X=X=X=X=X=X=X=X=X=X=X=X",
"=X=X=X=X=X=X=X=X=X=X=X=X=X=X=X=X=X=X=X=X=X=X=X=X=X=X=X=X=X=X=X=X=X=X=X=X=X=X=X=X=X=X=X=X=X=X=X=X=X=X=X=X=X=X=X=X=X=X=X=X=X=X=X=X",
"=X=X=X=X=X=X=X=X=X=X=X=X=X=X=X=X=X=X=X=X=X=X=X=X=X=X=X=X=X=X=X=X=X=X=X=X=X=X=X=X=X=X=X=X=X=X=X=X=X=X=X=X=X=X=X=X=X=X=X=X=X=X=X=X",
"=X=X=X=X=X=X=X=X=X=X=X=X=X=X=X=X=X=X=X=X=X=X=X=X=X=X=X=X=X=X=X=X=X=X=X=X=X=X=X=X=X=X=X=X=X=X=X=X=X=X=X=X=X=X=X=X=X=X=X=X=X=X=X=X",
"=X=X=X=X=X=X=X=X=X=X=X=X=X=X=X=X=X=X=X=X=X=X=X=X=X=X=X=X=X%X%X%X%X*X=X=X=X=X=X=X=X=X=X=X=X=X=X=X=X=X=X=X=X=X=X=X=X=X=X=X=X=X=X=X",
"=X=X=X=X=X=X=X=X=X=X=X=X=X=X=X=X=X=X=X=X=X=X=X=X=X=X=X%X%X].Z.N.Y.#X+X%X=X=X=X=X=X=X=X=X=X=X=X=X=X=X=X=X=X=X=X=X=X=X=X=X=X=X=X=X",
"=X=X=X=X=X=X=X=X=X=X=X=X=X=X=X=X=X=X=X=X=X=X=X=X=X%X%X_.7.:.O.i.x.x.,.R.@X%X*X=X=X=X=X=X=X=X=X=X=X=X=X=X=X=X=X=X=X=X=X=X=X=X=X=X",
"=X=X=X=X=X=X=X=X=X=X=X=X=X=X=X=X=X=X=X=X=X=X=X%X@XQ.b.,.:.:.;.1.x.x.c.x.v.I.OX%X=X=X=X=X=X=X=X=X=X=X=X=X=X=X=X=X=X=X=X=X=X=X=X=X",
"=X=X=X=X=X=X=X=X=X=X=X=X=X=X=X=X=X=X=X=X=X=X%X`.7.,.,.:.:.O.O.;.x.n.x.n.c.c.7.b.#X%X=X=X=X=X=X=X=X=X=X=X=X=X=X=X=X=X=X=X=X=X=X=X",
"=X=X=X=X=X=X=X=X=X=X=X=X=X=X=X=X=X=X=X=X=X%XV.,.,.,.:.:.;.;.O.O.c.c.c.n.c.c.N.T.} W.*X=X=X=X=X=X=X=X=X=X=X=X=X=X=X=X=X=X=X=X=X=X",
"=X=X=X=X=X=X=X=X=X=X=X=X=X=X=X=X=X=X=X=X%X'. .+.,.,.:.:.O.;.;.O.c.c.x.C./.#X|.oX8.<.@X=X=X=X=X=X=X=X=X=X=X=X=X=X=X=X=X=X=X=X=X=X",
"=X=X=X=X=X=X=X=X=X=X=X=X=X=X=X=X=X=X=X=X@XL J o.o.o.X.` ( ( ^ C _.oXoX XoXoXXXXXOX( U.*X=X=X=X=X=X=X=X=X=X=X=X=X=X=X=X=X=X=X=X=X",
"=X=X=X=X=X=X=X=X=X=X=X=X=X=X=X=X=X=X=X*X].D D +.+.} n N N n m n ! [.oXoX X|.oXoX.X9.@.%X=X=X=X=X=X=X=X=X=X=X=X=X=X=X=X=X=X=X=X=X",
"=X=X=X=X=X=X=X=X=X=X=X=X=X=X=X=X=X=X=X%XP.D Z +.o.M M m n n M N n 5.XX.XXXoX.XoXXXQ./ .X%X=X=X=X=X=X=X=X=X=X=X=X=X=X=X=X=X=X=X=X",
"=X=X=X=X=X=X=X=X=X=X=X=X=X=X=X=X=X=X=X%XP D D +.M B M M M n B n M n !  X|. XXX XXX}...B.%X=X=X=X=X=X=X=X=X=X=X=X=X=X=X=X=X=X=X=X",
"=X=X=X=X=X=X=X=X=X=X=X=X=X=X=X=X=X=X%XW.D Z J } B B B ^ / B M n M N M | oX.XXXXXXXXXI.` oX=X=X=X=X=X=X=X=X=X=X=X=X=X=X=X=X=X=X=X",
"=X=X=X=X=X=X=X=X=X=X=X=X=X=X=X=X=X=X%XK D D 4 T / ) _ _ ^ / / B n M M n M.T.{..XXXXXXXV Q.*X=X=X=X=X=X=X=X=X=X=X=X=X=X=X=X=X=X=X",
"=X=X=X=X=X=X=X=X=X=X=X=X=X=X=X=X=X%X].H Z = = Q [ %.%.' ' ) / B B B M B M.G.G.G.].XXXX+.<.+X=X=X=X=X=X=X=X=X=X=X=X=X=X=X=X=X=X=X",
"=X=X=X=X=X=X=X=X=X=X=X=X=X=X=X=X=X*Xz.& = 4 5 %.=.=.=.$.#.' ' ^ B B B B M.G.S.G.F.D.T./.^ [.=X=X=X=X=X=X=X=X=X=X=X=X=X=X=X=X=X=X",
"=X=X=X=X=X=X=X=X=X=X=X=X=X=X=X=X=X%XP.$ - A I &.r.r.r.e.*.*.#.' ) B / B M.D.S.A.A.;.B c % oX=X=X=X=X=X=X=X=X=X=X=X=X=X=X=X=X=X=X",
"=X=X=X=X=X=X=X=X=X=X=X=X=X=X=X=X=X=XOX$ @ A Y u.d.y.t.t.r.-.*.#.' / / M m.S.m.,.B V V % 4.%X=X=X=X=X=X=X=X=X=X=X=X=X=X=X=X=X=X=X",
"=X=X=X=X=X=X=X=X=X=X=X=X=X=X=X=X=X=X%X0 @ 8 I u.f.g.g.y.t.r.-.$.' ) / B i.} / ( V V V % (.*X=X=X=X=X=X=X=X=X=X=X=X=X=X=X=X=X=X=X",
"=X=X=X=X=X=X=X=X=X=X=X=X=X=X=X=X=X=X*X'.> 6 U s g.g.h.h.s.t.e.*.] ) / v ^ ( ( ( ( V z 9 %X=X=X=X=X=X=X=X=X=X=X=X=X=X=X=X=X=X=X=X",
"=X=X=X=X=X=X=X=X=X=X=X=X=X=X=X=X=X=X=X%Xl , s s p.g.h.g.g.s.r.-.#.' ^ E c / ( ( V B X J.%X=X=X=X=X=X=X=X=X=X=X=X=X=X=X=X=X=X=X=X",
"=X=X=X=X=X=X=X=X=X=X=X=X=X=X=X=X=X=X=X%X~., t s d a.h.h.g.g.y.e.#.{ E T c c ( ( ( x X oX=X=X=X=X=X=X=X=X=X=X=X=X=X=X=X=X=X=X=X=X",
"=X=X=X=X=X=X=X=X=X=X=X=X=X=X=X=X=X=X=X%X.X1 q d d q.j.h.h.g.d.e.#.~ E W T R ( ( ( * j %X=X=X=X=X=X=X=X=X=X=X=X=X=X=X=X=X=X=X=X=X",
"=X=X=X=X=X=X=X=X=X=X=X=X=X=X=X=X=X=X=X=X+Xk.< y d q.q.d i e q 1 2 S Q W W W T ( v & `.%X=X=X=X=X=X=X=X=X=X=X=X=X=X=X=X=X=X=X=X=X",
"=X=X=X=X=X=X=X=X=X=X=X=X=X=X=X=X=X=X=X=X=X+X< q s a d a r r 7 , ; + O X . & c c * 4.%X=X=X=X=X=X=X=X=X=X=X=X=X=X=X=X=X=X=X=X=X=X",
"=X=X=X=X=X=X=X=X=X=X=X=X=X=X=X=X=X=X=X=X=X%X!.k.e p i p e r 7 , ; + O X . . . # k '.=X=X=X=X=X=X=X=X=X=X=X=X=X=X=X=X=X=X=X=X=X=X",
"=X=X=X=X=X=X=X=X=X=X=X=X=X=X=X=X=X=X=X=X=X=X%X%XK.e w y t 7 < 6 ; O O O o . h '.*X=X=X=X=X=X=X=X=X=X=X=X=X=X=X=X=X=X=X=X=X=X=X=X",
"=X=X=X=X=X=X=X=X=X=X=X=X=X=X=X=X=X=X=X=X=X=X=X=X%XoX!.u < 8 6 2 + O .   H.oX%X%X=X=X=X=X=X=X=X=X=X=X=X=X=X=X=X=X=X=X=X=X=X=X=X=X",
"=X=X=X=X=X=X=X=X=X=X=X=X=X=X=X=X=X=X=X=X=X=X=X=X=X=X%X+X!.f > + # g L.%X%X%X=X=X=X=X=X=X=X=X=X=X=X=X=X=X=X=X=X=X=X=X=X=X=X=X=X=X",
"=X=X=X=X=X=X=X=X=X=X=X=X=X=X=X=X=X=X=X=X=X=X=X=X=X=X=X=X%X*X`.0.OX+X%X=X=X=X=X=X=X=X=X=X=X=X=X=X=X=X=X=X=X=X=X=X=X=X=X=X=X=X=X=X",
"=X=X=X=X=X=X=X=X=X=X=X=X=X=X=X=X=X=X=X=X=X=X=X=X=X=X=X=X=X=X*X%X=X=X=X=X=X=X=X=X=X=X=X=X=X=X=X=X=X=X=X=X=X=X=X=X=X=X=X=X=X=X=X=X",
"=X=X=X=X=X=X=X=X=X=X=X=X=X=X=X=X=X=X=X=X=X=X=X=X=X=X=X=X=X=X=X=X=X=X=X=X=X=X=X=X=X=X=X=X=X=X=X=X=X=X=X=X=X=X=X=X=X=X=X=X=X=X=X=X",
"=X=X=X=X=X=X=X=X=X=X=X=X=X=X=X=X=X=X=X=X=X=X=X=X=X=X=X=X=X=X=X=X=X=X=X=X=X=X=X=X=X=X=X=X=X=X=X=X=X=X=X=X=X=X=X=X=X=X=X=X=X=X=X=X",
"=X=X=X=X=X=X=X=X=X=X=X=X=X=X=X=X=X=X=X=X=X=X=X=X=X=X=X=X=X=X=X=X=X=X=X=X=X=X=X=X=X=X=X=X=X=X=X=X=X=X=X=X=X=X=X=X=X=X=X=X=X=X=X=X",
"=X=X=X=X=X=X=X=X=X=X=X=X=X=X=X=X=X=X=X=X=X=X=X=X=X=X=X=X=X=X=X=X=X=X=X=X=X=X=X=X=X=X=X=X=X=X=X=X=X=X=X=X=X=X=X=X=X=X=X=X=X=X=X=X",
"=X=X=X=X=X=X=X=X=X=X=X=X=X=X=X=X=X=X=X=X=X=X=X=X=X=X=X=X=X=X=X=X=X=X=X=X=X=X=X=X=X=X=X=X=X=X=X=X=X=X=X=X=X=X=X=X=X=X=X=X=X=X=X=X",
"=X=X=X=X=X=X=X=X=X=X=X=X=X=X=X=X=X=X=X=X=X=X=X=X=X=X=X=X=X=X=X=X=X=X=X=X=X=X=X=X=X=X=X=X=X=X=X=X=X=X=X=X=X=X=X=X=X=X=X=X=X=X=X=X",
"=X=X=X=X=X=X=X=X=X=X=X=X=X=X=X=X=X=X=X=X=X=X=X=X=X=X=X=X=X=X=X=X=X=X=X=X=X=X=X=X=X=X=X=X=X=X=X=X=X=X=X=X=X=X=X=X=X=X=X=X=X=X=X=X",
"=X=X=X=X=X=X=X=X=X=X=X=X=X=X=X=X=X=X=X=X=X=X=X=X=X=X=X=X=X=X=X=X=X=X=X=X=X=X=X=X=X=X=X=X=X=X=X=X=X=X=X=X=X=X=X=X=X=X=X=X=X=X=X=X",
"=X=X=X=X=X=X=X=X=X=X=X=X=X=X=X=X=X=X=X=X=X=X=X=X=X=X=X=X=X=X=X=X=X=X=X=X=X=X=X=X=X=X=X=X=X=X=X=X=X=X=X=X=X=X=X=X=X=X=X=X=X=X=X=X",
"=X=X=X=X=X=X=X=X=X=X=X=X=X=X=X=X=X=X=X=X=X=X=X=X=X=X=X=X=X=X=X=X=X=X=X=X=X=X=X=X=X=X=X=X=X=X=X=X=X=X=X=X=X=X=X=X=X=X=X=X=X=X=X=X",
"=X=X=X=X=X=X=X=X=X=X=X=X=X=X=X=X=X=X=X=X=X=X=X=X=X=X=X=X=X=X=X=X=X=X=X=X=X=X=X=X=X=X=X=X=X=X=X=X=X=X=X=X=X=X=X=X=X=X=X=X=X=X=X=X",
"=X=X=X=X=X=X=X=X=X=X=X=X=X=X=X=X=X=X=X=X=X=X=X=X=X=X=X=X=X=X=X=X=X=X=X=X=X=X=X=X=X=X=X=X=X=X=X=X=X=X=X=X=X=X=X=X=X=X=X=X=X=X=X=X",
"=X=X=X=X=X=X=X=X=X=X=X=X=X=X=X=X=X=X=X=X=X=X=X=X=X=X=X=X=X=X=X=X=X=X=X=X=X=X=X=X=X=X=X=X=X=X=X=X=X=X=X=X=X=X=X=X=X=X=X=X=X=X=X=X",
"=X=X=X=X=X=X=X=X=X=X=X=X=X=X=X=X=X=X=X=X=X=X=X=X=X=X=X=X=X=X=X=X=X=X=X=X=X=X=X=X=X=X=X=X=X=X=X=X=X=X=X=X=X=X=X=X=X=X=X=X=X=X=X=X",
"=X=X=X=X=X=X=X=X=X=X=X=X=X=X=X=X=X=X=X=X=X=X=X=X=X=X=X=X=X=X=X=X=X=X=X=X=X=X=X=X=X=X=X=X=X=X=X=X=X=X=X=X=X=X=X=X=X=X=X=X=X=X=X=X",
"=X=X=X=X=X=X=X=X=X=X=X=X=X=X=X=X=X=X=X=X=X=X=X=X=X=X=X=X=X=X=X=X=X=X=X=X=X=X=X=X=X=X=X=X=X=X=X=X=X=X=X=X=X=X=X=X=X=X=X=X=X=X=X=X",
"=X=X=X=X=X=X=X=X=X=X=X=X=X=X=X=X=X=X=X=X=X=X=X=X=X=X=X=X=X=X=X=X=X=X=X=X=X=X=X=X=X=X=X=X=X=X=X=X=X=X=X=X=X=X=X=X=X=X=X=X=X=X=X=X"
};
