/* XPM */
static char *result[] = {
/* columns rows colors chars-per-pixel */
"64 64 204 2 ",
"   c #0D2D9C",
".  c #0C2CA4",
"X  c #022BAA",
"o  c #092BAA",
"O  c #0C32A3",
"+  c #0D35AC",
"@  c #003CAD",
"#  c #0738A8",
"$  c #0028BF",
"%  c #0234B5",
"&  c #0437B8",
"*  c #0648A0",
"=  c #0050A8",
"-  c #0244BA",
";  c #054CB7",
":  c #0251BE",
">  c #005FB9",
",  c #005BB2",
"<  c None",
"1  c #2844AD",
"2  c #335CA8",
"3  c #2355B2",
"4  c #3D5CB7",
"5  c #0065B7",
"6  c #016CBC",
"7  c #3E60B7",
"8  c #4157AF",
"9  c #4E63B7",
"0  c #4472BE",
"q  c #163ECD",
"w  c #193DCB",
"e  c #002EDC",
"r  c #0133DB",
"t  c #0439DB",
"y  c #183FD1",
"u  c #0C34C9",
"i  c #002CE0",
"p  c #0035E5",
"a  c #0B3DE6",
"s  c #033CFF",
"d  c #093BFE",
"f  c #0539F0",
"g  c #1840CC",
"h  c #0052C4",
"j  c #0359C7",
"k  c #0941DF",
"l  c #074ADB",
"z  c #1641D5",
"x  c #1540DB",
"c  c #0257D6",
"v  c #3B5AD1",
"b  c #3858DF",
"n  c #0265C6",
"m  c #036CC4",
"M  c #006BCC",
"N  c #0273C6",
"B  c #0175CA",
"V  c #007BCB",
"C  c #007BC7",
"Z  c #0165D3",
"A  c #006ED3",
"S  c #017CD1",
"D  c #0776D2",
"F  c #0B49E5",
"G  c #1A46E0",
"H  c #0B54EA",
"J  c #0756E7",
"K  c #0642FF",
"L  c #0C44FE",
"P  c #0E49F7",
"I  c #1045FF",
"U  c #134CFF",
"Y  c #1243F2",
"T  c #1554FF",
"R  c #1955FF",
"E  c #155AFF",
"W  c #195CFF",
"Q  c #2B5DF5",
"!  c #0769EE",
"~  c #0662E9",
"^  c #0374EE",
"/  c #1563FF",
"(  c #146AFF",
")  c #1562FB",
"_  c #0678F1",
"`  c #1175FE",
"'  c #117EFF",
"]  c #2A65FB",
"[  c #3A67F7",
"{  c #3D75FB",
"}  c #3776FC",
"|  c #4869D4",
" . c #497CF4",
".. c #5A7BF2",
"X. c #6880B7",
"o. c #7180BE",
"O. c #0081CC",
"+. c #0F87D5",
"@. c #0F9CD8",
"#. c #0F92D3",
"$. c #0483F3",
"%. c #0389F3",
"&. c #1189FF",
"*. c #0993FB",
"=. c #059CFA",
"-. c #0997F9",
";. c #3D82FD",
":. c #0AA3FC",
">. c #0CA8FE",
",. c #05A4F8",
"<. c #0CB0F9",
"1. c #14B5F9",
"2. c #6F87D9",
"3. c #7588D8",
"4. c #478DFC",
"5. c #508FFD",
"6. c #4F94FE",
"7. c #4E99FD",
"8. c #4299FD",
"9. c #5296FD",
"0. c #5399FD",
"q. c #5B9EFB",
"w. c #6781E4",
"e. c #778BE0",
"r. c #43ACF8",
"t. c #5DA4FB",
"y. c #5DABFD",
"u. c #56A8F9",
"i. c #57B7FC",
"p. c #5BB4FD",
"a. c #54BEFD",
"s. c #59BFFD",
"d. c #64A5FB",
"f. c #65AAFA",
"g. c #6BAFF8",
"h. c #76A0F0",
"j. c #6CB2F7",
"k. c #67B7FB",
"l. c #6BB3FA",
"z. c #66BCFD",
"x. c #68B8FB",
"c. c #75B4F7",
"v. c #74BAF6",
"b. c #71B5F9",
"n. c #79BDF9",
"m. c #38C6FE",
"M. c #36D5FE",
"N. c #41C0F3",
"B. c #56C6FC",
"V. c #52CDFB",
"C. c #4FD7FC",
"Z. c #53D2FD",
"A. c #58DDFD",
"S. c #65C1FB",
"D. c #63CCFB",
"F. c #7CC3F6",
"G. c #7FCAF7",
"H. c #7DC2F9",
"J. c #61D1FC",
"K. c #62DDFC",
"L. c #4DEDFC",
"P. c #5DEAFC",
"I. c #58E4FE",
"U. c #4CF5FC",
"Y. c #47FEFE",
"T. c #4CFDFE",
"R. c #44F6FE",
"E. c #53FCFD",
"W. c #58FAFD",
"Q. c #8D97CA",
"!. c #97A5DF",
"~. c #A1ACCF",
"^. c #ACB5D9",
"/. c #ADB9D8",
"(. c #B2B8D8",
"). c #889CE5",
"_. c #8DA0EF",
"`. c #93B5EF",
"'. c #8DA0F1",
"]. c #98ABF0",
"[. c #BDC4DB",
"{. c #86CCF5",
"}. c #80C7F9",
"|. c #84CBF9",
" X c #82C5F7",
".X c None",
"XX c #BFCCEF",
"oX c #C5CADD",
"OX c #C5CDE5",
"+X c #CBD5EE",
"@X c #CCD1E7",
"#X c #DCDFEE",
"$X c #D5D9E4",
"%X c #DFE3EF",
"&X c #E1E4EC",
"*X c #ECEDEE",
"=X c #E3E4E7",
"-X c #EEF5EE",
";X c None",
":X c #EEEEF1",
">X c #EEF2F2",
",X c None",
"<X c None",
"1X c None",
/* pixels */
"1X1X1X1X1X1X1X1X1X1X1X1X1X1X1X1X1X1X1X1X1X1X1X1X1X1X1X1X1X1X1X1X1X1X1X1X1X1X1X1X1X1X1X1X1X1X1X1X1X1X1X1X1X1X1X1X1X1X1X1X1X1X1X1X",
"1X1X1X1X1X1X1X1X1X1X1X1X1X1X1X1X1X1X1X1X1X1X1X1X1X1X1X1X1X1X1X1X1X1X1X1X1X1X1X1X1X1X1X1X1X1X1X1X1X1X1X1X1X1X1X1X1X1X1X1X1X1X1X1X",
"1X1X1X1X1X1X1X1X1X1X1X1X1X1X1X1X1X1X1X1X1X1X1X1X1X1X1X1X1X1X1X1X1X1X1X1X1X1X1X1X1X1X1X1X1X1X1X1X1X1X1X1X1X1X1X1X1X1X1X1X1X1X1X1X",
"1X1X1X1X1X1X1X1X1X1X1X1X1X1X1X1X1X1X1X1X1X1X1X1X1X1X1X1X1X1X1X1X1X1X1X1X1X1X1X1X1X1X1X1X1X1X1X1X1X1X1X1X1X1X1X1X1X1X1X1X1X1X1X1X",
"1X1X1X1X1X1X1X1X1X1X1X1X1X1X1X1X1X1X1X1X1X1X1X1X1X1X1X1X1X1X1X1X1X1X1X1X1X1X1X1X1X1X1X1X1X1X1X1X1X1X1X1X1X1X1X1X1X1X1X1X1X1X1X1X",
"1X1X1X1X1X1X1X1X1X1X1X1X1X1X1X1X1X1X1X1X1X1X1X1X1X1X1X1X1X1X1X1X1X1X1X1X1X1X1X1X1X1X1X1X1X1X1X1X1X1X1X1X1X1X1X1X1X1X1X1X1X1X1X1X",
"1X1X1X1X1X1X1X1X1X1X1X1X1X1X1X1X1X1X1X1X1X1X1X1X1X1X1X1X1X1X1X1X1X1X1X1X1X1X1X1X1X1X1X1X1X1X1X1X1X1X1X1X1X1X1X1X1X1X1X1X1X1X1X1X",
"1X1X1X1X1X1X1X1X1X1X1X1X1X1X1X1X1X1X1X1X1X1X1X1X1X1X1X1X1X1X1X1X1X1X1X1X1X1X1X1X1X1X1X1X1X1X1X1X1X1X1X1X1X1X1X1X1X1X1X1X1X1X1X1X",
"1X1X1X1X1X1X1X1X1X1X1X1X1X1X1X1X1X1X1X1X1X1X1X1X1X1X1X1X1X1X1X1X1X1X1X1X1X1X1X1X1X1X1X1X1X1X1X1X1X1X1X1X1X1X1X1X1X1X1X1X1X1X1X1X",
"1X1X1X1X1X1X1X1X1X1X1X1X1X1X1X1X1X1X1X1X1X1X1X1X1X1X1X1X1X1X1X1X1X1X1X1X1X1X1X1X1X1X1X1X1X1X1X1X1X1X1X1X1X1X1X1X1X1X1X1X1X1X1X1X",
"1X1X1X1X1X1X1X1X1X1X1X1X1X1X1X1X1X1X1X1X1X1X1X1X1X1X1X1X1X1X1X1X1X1X1X1X1X1X1X1X1X1X1X1X1X1X1X1X1X1X1X1X1X1X1X1X1X1X1X1X1X1X1X1X",
"1X1X1X1X1X1X1X1X1X1X1X1X1X1X1X1X1X1X1X1X1X1X1X1X1X1X1X1X1X1X1X1X1X1X1X1X1X1X1X1X1X1X1X1X1X1X1X1X1X1X1X1X1X1X1X1X1X1X1X1X1X1X1X1X",
"1X1X1X1X1X1X1X1X1X1X1X1X1X1X1X1X1X1X1X1X1X1X1X1X1X1X1X1X1X1X1X1X1X1X1X1X1X1X1X1X1X1X1X1X1X1X1X1X1X1X1X1X1X1X1X1X1X1X1X1X1X1X1X1X",
"1X1X1X1X1X1X1X1X1X1X1X1X1X1X1X1X1X1X1X1X1X1X1X1X1X1X1X1X1X1X1X1X1X1X1X1X1X1X1X1X1X1X1X1X1X1X1X1X1X1X1X1X1X1X1X1X1X1X1X1X1X1X1X1X",
"1X1X1X1X1X1X1X1X1X1X1X1X1X1X1X1X1X1X1X1X1X1X1X1X1X1X1X1X1X1X1X1X1X1X1X1X1X1X1X1X1X1X1X1X1X1X1X1X1X1X1X1X1X1X1X1X1X1X1X1X1X1X1X1X",
"1X1X1X1X1X1X1X1X1X1X1X1X1X1X1X1X1X1X1X1X1X1X1X1X1X1X1X1X1X1X1X1X1X1X1X1X1X1X1X1X1X1X1X1X1X1X1X1X1X1X1X1X1X1X1X1X1X1X1X1X1X1X1X1X",
"1X1X1X1X1X1X1X1X1X1X1X1X1X1X1X1X1X1X1X1X1X1X1X1X1X1X1X1X1X1X1X1X1X1X1X1X1X1X1X1X1X1X1X1X1X1X1X1X1X1X1X1X1X1X1X1X1X1X1X1X1X1X1X1X",
"1X1X1X1X1X1X1X1X1X1X1X1X1X1X1X1X1X1X1X1X1X1X1X1X1X1X1X1X1X1X<X<X,X,X<X1X1X1X1X1X1X1X1X1X1X1X1X1X1X1X1X1X1X1X1X1X1X1X1X1X1X1X1X1X",
"1X1X1X1X1X1X1X1X1X1X1X1X1X1X1X1X1X1X1X1X1X1X1X1X1X1X1X1X<X*X#X].h.`.%X,X<X1X1X1X1X1X1X1X1X1X1X1X1X1X1X1X1X1X1X1X1X1X1X1X1X1X1X1X",
"1X1X1X1X1X1X1X1X1X1X1X1X1X1X1X1X1X1X1X1X1X1X1X1X1X<X,X*XXX[ ] 9.0.|.E  .+X>X,X1X1X1X1X1X1X1X1X1X1X1X1X1X1X1X1X1X1X1X1X1X1X1X1X1X",
"1X1X1X1X1X1X1X1X1X1X1X1X1X1X1X1X1X1X1X1X1X1X1X1X:X&X'.Q { 9.9.9.t. Xf.E E { XX*X<X1X1X1X1X1X1X1X1X1X1X1X1X1X1X1X1X1X1X1X1X1X1X1X",
"1X1X1X1X1X1X1X1X1X1X1X1X1X1X1X1X1X1X1X1X1X1X<X#X..] 4.6.6.9.0.9.g.G.G.;.E E E ] +X,X1X1X1X1X1X1X1X1X1X1X1X1X1X1X1X1X1X1X1X1X1X1X",
"1X1X1X1X1X1X1X1X1X1X1X1X1X1X1X1X1X1X1X1X1X,Xw.G q.6.9.9.9.0.0.0.v.G.G.{./ E E E E  .:X1X1X1X1X1X1X1X1X1X1X1X1X1X1X1X1X1X1X1X1X1X",
"1X1X1X1X1X1X1X1X1X1X1X1X1X1X1X1X1X1X1X1X,X$Xq y { c.j.q.6.7.0.0.F.|.}.}.v.T W E E T '.<X1X1X1X1X1X1X1X1X1X1X1X1X1X1X1X1X1X1X1X1X",
"1X1X1X1X1X1X1X1X1X1X1X1X1X1X1X1X1X1X1X1X*Xv w Y I q.b.v.b.c.c.j.}.|.{.{..X{.R W R T K -X<X1X1X1X1X1X1X1X1X1X1X1X1X1X1X1X1X1X1X1X",
"1X1X1X1X1X1X1X1X1X1X1X1X1X1X1X1X1X1X1X<X@Xg z L I I n.n.n.n.H.F.f.f.d.d.f.f.5.W E R K ).,X1X1X1X1X1X1X1X1X1X1X1X1X1X1X1X1X1X1X1X",
"1X1X1X1X1X1X1X1X1X1X1X1X1X1X1X1X1X1X1X,X2.g Y L I T [ n.H.F. Xl.g.d.d.d.d.d.d.4.W W K P *X1X1X1X1X1X1X1X1X1X1X1X1X1X1X1X1X1X1X1X",
"1X1X1X1X1X1X1X1X1X1X1X1X1X1X1X1X1X1X<X*Xz g L I U U U l.F.F.l.l.l.x.d.f.d.d.d.d.W E K K _.<X1X1X1X1X1X1X1X1X1X1X1X1X1X1X1X1X1X1X",
"1X1X1X1X1X1X1X1X1X1X1X1X1X1X1X1X1X1X,X!.q y I I R U T R F.x.x.l.x.z.k.y.d.d.t.d.q.T K K [ ,X1X1X1X1X1X1X1X1X1X1X1X1X1X1X1X1X1X1X",
"1X1X1X1X1X1X1X1X1X1X1X1X1X1X1X1X1X1X*Xv q L L U R T T R 4.z.S.S.S.z.z.z.y.t.d.t.t.t.K L L ,X<X1X1X1X1X1X1X1X1X1X1X1X1X1X1X1X1X1X",
"1X1X1X1X1X1X1X1X1X1X1X1X1X1X1X1X1X,X@Xq y L I T R R W E 8.D.J.J.J.D.D.z.k.p.t.t.q.q.K K K OX<X1X1X1X1X1X1X1X1X1X1X1X1X1X1X1X1X1X",
"1X1X1X1X1X1X1X1X1X1X1X1X1X1X1X1X1X,X| q Y L I T T E / ( r.K.P.P.P.P.K.Z.s.p.p.t.t.t.K s s s ;X1X1X1X1X1X1X1X1X1X1X1X1X1X1X1X1X1X",
"1X1X1X1X1X1X1X1X1X1X1X1X1X1X1X1X1X,X8   u a P E ) ( ` &.m.W.E.W.E.W.W.P.Z.B.i.u.t.0.K d d p :X1X1X1X1X1X1X1X1X1X1X1X1X1X1X1X1X1X",
"1X1X1X1X1X1X1X1X1X1X1X1X1X1X1X1X1X;XoX. + t F F ) ( &.&.m.E.E.E.E.E.E.E.I.Z.a.p.u.t.K f e ^.<X1X1X1X1X1X1X1X1X1X1X1X1X1X1X1X1X1X",
"1X1X1X1X1X1X1X1X1X1X1X1X1X1X1X1X1X1X,X1 . k F H ~ ! _ -.M.E.T.T.T.T.E.E.L.C.B.i.t.t.p e r :X<X1X1X1X1X1X1X1X1X1X1X1X1X1X1X1X1X1X",
"1X1X1X1X1X1X1X1X1X1X1X1X1X1X1X1X1X1X<XQ.  & J J ! ^ _ $.-.U.T.T.T.Y.T.T.T.L.V.a.u.t r e b <X1X1X1X1X1X1X1X1X1X1X1X1X1X1X1X1X1X1X",
"1X1X1X1X1X1X1X1X1X1X1X1X1X1X1X1X1X1X<X*X. # J J ^ ^ %.-.-.,.U.Y.Y.Y.T.T.E.L.C.a.l r r e ).,X1X1X1X1X1X1X1X1X1X1X1X1X1X1X1X1X1X1X",
"1X1X1X1X1X1X1X1X1X1X1X1X1X1X1X1X1X1X1X,X9 O l ~ ^ $.$.*.=.,.1.R.T.T.T.T.E.E.C.r.t r e r =X1X1X1X1X1X1X1X1X1X1X1X1X1X1X1X1X1X1X1X",
"1X1X1X1X1X1X1X1X1X1X1X1X1X1X1X1X1X1X1X<XoX. - ! ^ $.*.-.=.,.:.<.Y.Y.T.T.T.E.N.l t r e 3.,X1X1X1X1X1X1X1X1X1X1X1X1X1X1X1X1X1X1X1X",
"1X1X1X1X1X1X1X1X1X1X1X1X1X1X1X1X1X1X1X1X,X1 + Z ^ $.%.:.:.>.>.,.@.@.@.#.+.D c l r e r *X<X1X1X1X1X1X1X1X1X1X1X1X1X1X1X1X1X1X1X1X",
"1X1X1X1X1X1X1X1X1X1X1X1X1X1X1X1X1X1X1X1X,XoX# ; _ $.%.S S O.C C O.S S A Z : & % u e 3.:X1X1X1X1X1X1X1X1X1X1X1X1X1X1X1X1X1X1X1X1X",
"1X1X1X1X1X1X1X1X1X1X1X1X1X1X1X1X1X1X1X1X1X,X4 < Z 5 5 5 6 B B C C V B Z h - & % X 1 &X1X1X1X1X1X1X1X1X1X1X1X1X1X1X1X1X1X1X1X1X1X",
"1X1X1X1X1X1X1X1X1X1X1X1X1X1X1X1X1X1X1X1X1X1X:X@X2 = 5 5 5 m N N B A Z h - @ X X /.,X,X1X1X1X1X1X1X1X1X1X1X1X1X1X1X1X1X1X1X1X1X1X",
"1X1X1X1X1X1X1X1X1X1X1X1X1X1X1X1X1X1X1X1X1X1X1X,X<X;X9 * , 5 m n n c j @ X + (.:X<X1X1X1X1X1X1X1X1X1X1X1X1X1X1X1X1X1X1X1X1X1X1X1X",
"1X1X1X1X1X1X1X1X1X1X1X1X1X1X1X1X1X1X1X1X1X1X1X1X1X<X,X&X~.2 3 m h h @ 9 ^.*X<X1X1X1X1X1X1X1X1X1X1X1X1X1X1X1X1X1X1X1X1X1X1X1X1X1X",
"1X1X1X1X1X1X1X1X1X1X1X1X1X1X1X1X1X1X1X1X1X1X1X1X1X1X1X1X<X,X$X9 3 0 $X,X<X1X1X1X1X1X1X1X1X1X1X1X1X1X1X1X1X1X1X1X1X1X1X1X1X1X1X1X",
"1X1X1X1X1X1X1X1X1X1X1X1X1X1X1X1X1X1X1X1X1X1X1X1X1X1X1X1X1X1X<X<X,X,X<X1X1X1X1X1X1X1X1X1X1X1X1X1X1X1X1X1X1X1X1X1X1X1X1X1X1X1X1X1X",
"1X1X1X1X1X1X1X1X1X1X1X1X1X1X1X1X1X1X1X1X1X1X1X1X1X1X1X1X1X1X1X1X1X1X1X1X1X1X1X1X1X1X1X1X1X1X1X1X1X1X1X1X1X1X1X1X1X1X1X1X1X1X1X1X",
"1X1X1X1X1X1X1X1X1X1X1X1X1X1X1X1X1X1X1X1X1X1X1X1X1X1X1X1X1X1X1X1X1X1X1X1X1X1X1X1X1X1X1X1X1X1X1X1X1X1X1X1X1X1X1X1X1X1X1X1X1X1X1X1X",
"1X1X1X1X1X1X1X1X1X1X1X1X1X1X1X1X1X1X1X1X1X1X1X1X1X1X1X1X1X1X1X1X1X1X1X1X1X1X1X1X1X1X1X1X1X1X1X1X1X1X1X1X1X1X1X1X1X1X1X1X1X1X1X1X",
"1X1X1X1X1X1X1X1X1X1X1X1X1X1X1X1X1X1X1X1X1X1X1X1X1X1X1X1X1X1X1X1X1X1X1X1X1X1X1X1X1X1X1X1X1X1X1X1X1X1X1X1X1X1X1X1X1X1X1X1X1X1X1X1X",
"1X1X1X1X1X1X1X1X1X1X1X1X1X1X1X1X1X1X1X1X1X1X1X1X1X1X1X1X1X1X1X1X1X1X1X1X1X1X1X1X1X1X1X1X1X1X1X1X1X1X1X1X1X1X1X1X1X1X1X1X1X1X1X1X",
"1X1X1X1X1X1X1X1X1X1X1X1X1X1X1X1X1X1X1X1X1X1X1X1X1X1X1X1X1X1X1X1X1X1X1X1X1X1X1X1X1X1X1X1X1X1X1X1X1X1X1X1X1X1X1X1X1X1X1X1X1X1X1X1X",
"1X1X1X1X1X1X1X1X1X1X1X1X1X1X1X1X1X1X1X1X1X1X1X1X1X1X1X1X1X1X1X1X1X1X1X1X1X1X1X1X1X1X1X1X1X1X1X1X1X1X1X1X1X1X1X1X1X1X1X1X1X1X1X1X",
"1X1X1X1X1X1X1X1X1X1X1X1X1X1X1X1X1X1X1X1X1X1X1X1X1X1X1X1X1X1X1X1X1X1X1X1X1X1X1X1X1X1X1X1X1X1X1X1X1X1X1X1X1X1X1X1X1X1X1X1X1X1X1X1X",
"1X1X1X1X1X1X1X1X1X1X1X1X1X1X1X1X1X1X1X1X1X1X1X1X1X1X1X1X1X1X1X1X1X1X1X1X1X1X1X1X1X1X1X1X1X1X1X1X1X1X1X1X1X1X1X1X1X1X1X1X1X1X1X1X",
"1X1X1X1X1X1X1X1X1X1X1X1X1X1X1X1X1X1X1X1X1X1X1X1X1X1X1X1X1X1X1X1X1X1X1X1X1X1X1X1X1X1X1X1X1X1X1X1X1X1X1X1X1X1X1X1X1X1X1X1X1X1X1X1X",
"1X1X1X1X1X1X1X1X1X1X1X1X1X1X1X1X1X1X1X1X1X1X1X1X1X1X1X1X1X1X1X1X1X1X1X1X1X1X1X1X1X1X1X1X1X1X1X1X1X1X1X1X1X1X1X1X1X1X1X1X1X1X1X1X",
"1X1X1X1X1X1X1X1X1X1X1X1X1X1X1X1X1X1X1X1X1X1X1X1X1X1X1X1X1X1X1X1X1X1X1X1X1X1X1X1X1X1X1X1X1X1X1X1X1X1X1X1X1X1X1X1X1X1X1X1X1X1X1X1X",
"1X1X1X1X1X1X1X1X1X1X1X1X1X1X1X1X1X1X1X1X1X1X1X1X1X1X1X1X1X1X1X1X1X1X1X1X1X1X1X1X1X1X1X1X1X1X1X1X1X1X1X1X1X1X1X1X1X1X1X1X1X1X1X1X",
"1X1X1X1X1X1X1X1X1X1X1X1X1X1X1X1X1X1X1X1X1X1X1X1X1X1X1X1X1X1X1X1X1X1X1X1X1X1X1X1X1X1X1X1X1X1X1X1X1X1X1X1X1X1X1X1X1X1X1X1X1X1X1X1X",
"1X1X1X1X1X1X1X1X1X1X1X1X1X1X1X1X1X1X1X1X1X1X1X1X1X1X1X1X1X1X1X1X1X1X1X1X1X1X1X1X1X1X1X1X1X1X1X1X1X1X1X1X1X1X1X1X1X1X1X1X1X1X1X1X",
"1X1X1X1X1X1X1X1X1X1X1X1X1X1X1X1X1X1X1X1X1X1X1X1X1X1X1X1X1X1X1X1X1X1X1X1X1X1X1X1X1X1X1X1X1X1X1X1X1X1X1X1X1X1X1X1X1X1X1X1X1X1X1X1X",
"1X1X1X1X1X1X1X1X1X1X1X1X1X1X1X1X1X1X1X1X1X1X1X1X1X1X1X1X1X1X1X1X1X1X1X1X1X1X1X1X1X1X1X1X1X1X1X1X1X1X1X1X1X1X1X1X1X1X1X1X1X1X1X1X"
};
