/* XPM */
static char *result[] = {
/* columns rows colors chars-per-pixel */
"64 64 196 2 ",
"   c #072B98",
".  c #112D9A",
"X  c #112B93",
"o  c #02349A",
"O  c #0D319E",
"+  c #013D9B",
"@  c #06379B",
"#  c #10329F",
"$  c #183D9E",
"%  c #253E9D",
"&  c #0023A0",
"*  c #112EA1",
"=  c #0D33A0",
"-  c #0B3CA2",
";  c #1536A1",
":  c #022CBC",
">  c #0737BB",
",  c #153BB8",
"<  c #243FA3",
"1  c #0A40A2",
"2  c #014CA4",
"3  c #064AAC",
"4  c #1143A9",
"5  c #044EB2",
"6  c #004FBC",
"7  c #0054BA",
"8  c #0057B9",
"9  c #2845A6",
"0  c #2356B3",
"q  c #3552A7",
"w  c #0165BA",
"e  c #596DB4",
"r  c #5670B5",
"t  c #4965B2",
"y  c #042FC6",
"u  c #0236C6",
"i  c #002DD9",
"p  c #0032EE",
"a  c #0031E4",
"s  c #083EFC",
"d  c #0055C0",
"f  c #1256DE",
"g  c #3755C2",
"h  c #0064C3",
"j  c #006AC6",
"k  c #006BCC",
"l  c #0075C6",
"z  c #007AC5",
"x  c #0072CC",
"c  c #007CCC",
"v  c #0067DB",
"b  c #106CDC",
"n  c #0375D8",
"m  c #0644FF",
"M  c #0B46FF",
"N  c #0B4AFE",
"B  c #114BFC",
"V  c #194EFD",
"C  c #1248F8",
"Z  c #1554FF",
"A  c #1A55FF",
"S  c #165BFF",
"D  c #195BFF",
"F  c #244FF1",
"G  c #2655FF",
"H  c #2956FF",
"J  c #2759FF",
"K  c #2A5AFE",
"L  c #0B6CE9",
"P  c #1664FF",
"I  c #1D65FF",
"U  c #166CFF",
"Y  c #196BFF",
"T  c #1573FF",
"R  c #157CFF",
"E  c #1779FB",
"W  c #2265FF",
"Q  c #2B65FE",
"!  c #2369FE",
"~  c #2A6CFF",
"^  c #3A6CF7",
"/  c #3663FC",
"(  c #3275FF",
")  c #6374C8",
"_  c #4269F5",
"`  c #4F75F2",
"'  c #507DF3",
"]  c #6D80BD",
"[  c #018AD9",
"{  c #0183D9",
"}  c #0099DC",
"|  c #0587FE",
" . c #1384FF",
".. c #1885FF",
"X. c #138CFF",
"o. c #198EFF",
"O. c #0295FE",
"+. c #049CFA",
"@. c #0091F1",
"#. c #1394FF",
"$. c #139BFF",
"%. c #199BFF",
"&. c #2881FF",
"*. c #04A8E9",
"=. c #03A4FD",
"-. c #0DA3FF",
";. c #07ACFE",
":. c #13AAFF",
">. c #18A7FF",
",. c #0EB3FF",
"<. c #0ABBFE",
"1. c #12B3FF",
"2. c #12BCFF",
"3. c #3FAEFB",
"4. c #27BDFF",
"5. c #798DC8",
"6. c #438CFE",
"7. c #5A8EF8",
"8. c #4E93FD",
"9. c #4F9BFD",
"0. c #579BFD",
"q. c #6D8DED",
"w. c #728DEA",
"e. c #648FF0",
"r. c #6E92F4",
"t. c #7391F2",
"y. c #4DAAFE",
"u. c #4FA0FB",
"i. c #53A2FC",
"p. c #5CA3FC",
"a. c #51ACFD",
"s. c #4CB7FD",
"d. c #49BFFE",
"f. c #71A6F5",
"g. c #69B6FE",
"h. c #7CB3F8",
"j. c #0AC3FF",
"k. c #0ACFFF",
"l. c #12CAFF",
"z. c #11C5FF",
"x. c #0CD1FF",
"c. c #0ED8FF",
"v. c #11DAFF",
"b. c #0EE4FF",
"n. c #0DEEFF",
"m. c #11E4FF",
"M. c #11EFFF",
"N. c #0DF5FF",
"B. c #12FCFF",
"V. c #16F2FF",
"C. c #3DECFD",
"Z. c #47CEFF",
"A. c #4CC2FD",
"S. c #48D9FE",
"D. c #45E6FF",
"F. c #8A98C8",
"G. c #9DAACB",
"H. c #96A5D3",
"J. c #AAB3D2",
"K. c #BABED6",
"L. c #839BEE",
"P. c #8BA7EF",
"I. c #98ABEA",
"U. c #9FB6ED",
"Y. c #81BBF6",
"T. c #91B6F4",
"R. c #AAB8E7",
"E. c #ADBEF2",
"W. c #8CCEF8",
"Q. c #89D1FA",
"!. c #98DDF6",
"~. c #B5C3ED",
"^. c #BCC6ED",
"/. c #ACEDEF",
"(. c #A5EBF3",
"). c #A9EDF3",
"_. c #A8E7F3",
"`. c #B4EFF2",
"'. c #AAF4F3",
"]. c #BCF2F0",
"[. c #C5CADD",
"{. c #C2CDEA",
"}. c #CCDBEE",
"|. c #CCD3EE",
" X c #D5DAE7",
".X c #DBDEEA",
"XX c #C9DCF0",
"oX c #D8E8EC",
"OX c #E3E4EC",
"+X c #E7EAEB",
"@X c #EBECED",
"#X c #E6EDE7",
"$X c #EBECF1",
"%X c None",
"&X c None",
"*X c None",
/* pixels */
"*X*X*X*X*X*X*X*X*X*X*X*X*X*X*X*X*X*X*X*X*X*X*X*X*X*X*X*X*X*X*X*X*X*X*X*X*X*X*X*X*X*X*X*X*X*X*X*X*X*X*X*X*X*X*X*X*X*X*X*X*X*X*X*X",
"*X*X*X*X*X*X*X*X*X*X*X*X*X*X*X*X*X*X*X*X*X*X*X*X*X*X*X*X*X*X*X*X*X*X*X*X*X*X*X*X*X*X*X*X*X*X*X*X*X*X*X*X*X*X*X*X*X*X*X*X*X*X*X*X",
"*X*X*X*X*X*X*X*X*X*X*X*X*X*X*X*X*X*X*X*X*X*X*X*X*X*X*X*X*X*X*X*X*X*X*X*X*X*X*X*X*X*X*X*X*X*X*X*X*X*X*X*X*X*X*X*X*X*X*X*X*X*X*X*X",
"*X*X*X*X*X*X*X*X*X*X*X*X*X*X*X*X*X*X*X*X*X*X*X*X*X*X*X*X*X*X*X*X*X*X*X*X*X*X*X*X*X*X*X*X*X*X*X*X*X*X*X*X*X*X*X*X*X*X*X*X*X*X*X*X",
"*X*X*X*X*X*X*X*X*X*X*X*X*X*X*X*X*X*X*X*X*X*X*X*X*X*X*X*X*X*X*X*X*X*X*X*X*X*X*X*X*X*X*X*X*X*X*X*X*X*X*X*X*X*X*X*X*X*X*X*X*X*X*X*X",
"*X*X*X*X*X*X*X*X*X*X*X*X*X*X*X*X*X*X*X*X*X*X*X*X*X*X*X*X*X*X*X*X*X*X*X*X*X*X*X*X*X*X*X*X*X*X*X*X*X*X*X*X*X*X*X*X*X*X*X*X*X*X*X*X",
"*X*X*X*X*X*X*X*X*X*X*X*X*X*X*X*X*X*X*X*X*X*X*X*X*X*X*X*X*X*X*X*X*X*X*X*X*X*X*X*X*X*X*X*X*X*X*X*X*X*X*X*X*X*X*X*X*X*X*X*X*X*X*X*X",
"*X*X*X*X*X*X*X*X*X*X*X*X*X*X*X*X*X*X*X*X*X*X*X*X*X*X*X*X*X*X*X*X*X*X*X*X*X*X*X*X*X*X*X*X*X*X*X*X*X*X*X*X*X*X*X*X*X*X*X*X*X*X*X*X",
"*X*X*X*X*X*X*X*X*X*X*X*X*X*X*X*X*X*X*X*X*X*X*X*X*X*X*X*X*X*X*X*X*X*X*X*X*X*X*X*X*X*X*X*X*X*X*X*X*X*X*X*X*X*X*X*X*X*X*X*X*X*X*X*X",
"*X*X*X*X*X*X*X*X*X*X*X*X*X*X*X*X*X*X*X*X*X*X*X*X*X*X*X*X*X*X*X*X*X*X*X*X*X*X*X*X*X*X*X*X*X*X*X*X*X*X*X*X*X*X*X*X*X*X*X*X*X*X*X*X",
"*X*X*X*X*X*X*X*X*X*X*X*X*X*X*X*X*X*X*X*X*X*X*X*X*X*X*X*X*X*X*X*X*X*X*X*X*X*X*X*X*X*X*X*X*X*X*X*X*X*X*X*X*X*X*X*X*X*X*X*X*X*X*X*X",
"*X*X*X*X*X*X*X*X*X*X*X*X*X*X*X*X*X*X*X*X*X*X*X*X*X*X*X*X*X*X*X*X*X*X*X*X*X*X*X*X*X*X*X*X*X*X*X*X*X*X*X*X*X*X*X*X*X*X*X*X*X*X*X*X",
"*X*X*X*X*X*X*X*X*X*X*X*X*X*X*X*X*X*X*X*X*X*X*X*X*X*X*X*X*X*X*X*X*X*X*X*X*X*X*X*X*X*X*X*X*X*X*X*X*X*X*X*X*X*X*X*X*X*X*X*X*X*X*X*X",
"*X*X*X*X*X*X*X*X*X*X*X*X*X*X*X*X*X*X*X*X*X*X*X*X*X*X*X*X*X*X*X*X*X*X*X*X*X*X*X*X*X*X*X*X*X*X*X*X*X*X*X*X*X*X*X*X*X*X*X*X*X*X*X*X",
"*X*X*X*X*X*X*X*X*X*X*X*X*X*X*X*X*X*X*X*X*X*X*X*X*X*X*X*X*X*X*X*X*X*X*X*X*X*X*X*X*X*X*X*X*X*X*X*X*X*X*X*X*X*X*X*X*X*X*X*X*X*X*X*X",
"*X*X*X*X*X*X*X*X*X*X*X*X*X*X*X*X*X*X*X*X*X*X*X*X*X*X*X*X*X*X*X*X*X*X*X*X*X*X*X*X*X*X*X*X*X*X*X*X*X*X*X*X*X*X*X*X*X*X*X*X*X*X*X*X",
"*X*X*X*X*X*X*X*X*X*X*X*X*X*X*X*X*X*X*X*X*X*X*X*X*X*X*X*X*X*X*X*X*X*X*X*X*X*X*X*X*X*X*X*X*X*X*X*X*X*X*X*X*X*X*X*X*X*X*X*X*X*X*X*X",
"*X*X*X*X*X*X*X*X*X*X*X*X*X*X*X*X*X*X*X*X*X*X*X*X*X*X*X*X*X*X&X&X&X&X&X*X*X*X*X*X*X*X*X*X*X*X*X*X*X*X*X*X*X*X*X*X*X*X*X*X*X*X*X*X",
"*X*X*X*X*X*X*X*X*X*X*X*X*X*X*X*X*X*X*X*X*X*X*X*X*X*X*X*X&X@XE.I.q.e.U.@X&X*X*X*X*X*X*X*X*X*X*X*X*X*X*X*X*X*X*X*X*X*X*X*X*X*X*X*X",
"*X*X*X*X*X*X*X*X*X*X*X*X*X*X*X*X*X*X*X*X*X*X*X*X*X&X&X$XP.A N A p.p.~ B ^.&X&X*X*X*X*X*X*X*X*X*X*X*X*X*X*X*X*X*X*X*X*X*X*X*X*X*X",
"*X*X*X*X*X*X*X*X*X*X*X*X*X*X*X*X*X*X*X*X*X*X*X*X%XoXL.K B J 8.p.i.i.( W M ^ |.&X*X*X*X*X*X*X*X*X*X*X*X*X*X*X*X*X*X*X*X*X*X*X*X*X",
"*X*X*X*X*X*X*X*X*X*X*X*X*X*X*X*X*X*X*X*X*X*X&X$Xq.V B J 9.p.p.p.p.p.&.! P M N ' %X&X*X*X*X*X*X*X*X*X*X*X*X*X*X*X*X*X*X*X*X*X*X*X",
"*X*X*X*X*X*X*X*X*X*X*X*X*X*X*X*X*X*X*X*X*X*XOX_ A G T.h.p.p.p.p.p.p.0.Q ! Z M M ^ &X*X*X*X*X*X*X*X*X*X*X*X*X*X*X*X*X*X*X*X*X*X*X",
"*X*X*X*X*X*X*X*X*X*X*X*X*X*X*X*X*X*X*X*X*X&XR.H J K (.oX#XXXh.i.p.p.0.W I I Z M M w.&X*X*X*X*X*X*X*X*X*X*X*X*X*X*X*X*X*X*X*X*X*X",
"*X*X*X*X*X*X*X*X*X*X*X*X*X*X*X*X*X*X*X*X*X&XQ H H f._._.oX@X@X@X@X}.Y.! ! ! W S m M  X&X*X*X*X*X*X*X*X*X*X*X*X*X*X*X*X*X*X*X*X*X",
"*X*X*X*X*X*X*X*X*X*X*X*X*X*X*X*X*X*X*X*X&X^.G G H !.).).'.oX@X+X@X@Xr.A D A A D s m L.&X*X*X*X*X*X*X*X*X*X*X*X*X*X*X*X*X*X*X*X*X",
"*X*X*X*X*X*X*X*X*X*X*X*X*X*X*X*X*X*X*X*X&Xt.G G Q _.).).)./.@X@X@X~.S D A D D Z V M _ &X*X*X*X*X*X*X*X*X*X*X*X*X*X*X*X*X*X*X*X*X",
"*X*X*X*X*X*X*X*X*X*X*X*X*X*X*X*X*X*X*X*X@X/ G J h.(._.)./.'.].#X XZ D D S D S A V M C oX*X*X*X*X*X*X*X*X*X*X*X*X*X*X*X*X*X*X*X*X",
"*X*X*X*X*X*X*X*X*X*X*X*X*X*X*X*X*X*X*X&X{.H K K ).(.(.(.'.'.'.].! P P I P P D A Z Z s I.&X*X*X*X*X*X*X*X*X*X*X*X*X*X*X*X*X*X*X*X",
"*X*X*X*X*X*X*X*X*X*X*X*X*X*X*X*X*X*X*X&X` H K G _.(.(.(.'.(.Q.g.Y Y T T P P P S Z V C F &X*X*X*X*X*X*X*X*X*X*X*X*X*X*X*X*X*X*X*X",
"*X*X*X*X*X*X*X*X*X*X*X*X*X*X*X*X*X*X*X&XG G K J (.(.(.!.g.u.y.a.R ....R R T P D Z Z C p %X*X*X*X*X*X*X*X*X*X*X*X*X*X*X*X*X*X*X*X",
"*X*X*X*X*X*X*X*X*X*X*X*X*X*X*X*X*X*X&X^.H H K 7.W.p.8.9.y.y.s.A.#.%.$.#.o...T Y Z Z C a ~.&X*X*X*X*X*X*X*X*X*X*X*X*X*X*X*X*X*X*X",
"*X*X*X*X*X*X*X*X*X*X*X*X*X*X*X*X*X*X&XK.X X . , ! 6.u.y.s.A.Z.S.1.2.2.1.:.-.o.E I Z N p J.&X*X*X*X*X*X*X*X*X*X*X*X*X*X*X*X*X*X*X",
"*X*X*X*X*X*X*X*X*X*X*X*X*X*X*X*X*X*X*X@X# . * = A S P &.3.Z.D.D.j.k.x.x.j.2.>.o.P S Z i &X*X*X*X*X*X*X*X*X*X*X*X*X*X*X*X*X*X*X*X",
"*X*X*X*X*X*X*X*X*X*X*X*X*X*X*X*X*X*X*X&Xq . * . D P U T  .X.4.C.x.b.m.b.v.l.1.%.P D C , &X*X*X*X*X*X*X*X*X*X*X*X*X*X*X*X*X*X*X*X",
"*X*X*X*X*X*X*X*X*X*X*X*X*X*X*X*X*X*X*X&XK.. O = P Y T R X.$.-.=.V.N.n.n.m.v.z.>.U D y H.&X*X*X*X*X*X*X*X*X*X*X*X*X*X*X*X*X*X*X*X",
"*X*X*X*X*X*X*X*X*X*X*X*X*X*X*X*X*X*X*X*X+X< . = f T R  .$.$.;.=.<.B.N.N.M.v.l.>.T u > .X*X*X*X*X*X*X*X*X*X*X*X*X*X*X*X*X*X*X*X*X",
"*X*X*X*X*X*X*X*X*X*X*X*X*X*X*X*X*X*X*X*X&Xe # O 4 T  .X.$.-.+.,.<.c.B.N.M.m.l.-.L : g &X*X*X*X*X*X*X*X*X*X*X*X*X*X*X*X*X*X*X*X*X",
"*X*X*X*X*X*X*X*X*X*X*X*X*X*X*X*X*X*X*X*X&XJ.O = - L  .#.-.+.,.<.<.j.m.B.n.b.l.-.> : F.&X*X*X*X*X*X*X*X*X*X*X*X*X*X*X*X*X*X*X*X*X",
"*X*X*X*X*X*X*X*X*X*X*X*X*X*X*X*X*X*X*X*X*X$X; = 4 b X.$.O.O.=.;.<.<.*.*.} [ x 8 u : |.&X*X*X*X*X*X*X*X*X*X*X*X*X*X*X*X*X*X*X*X*X",
"*X*X*X*X*X*X*X*X*X*X*X*X*X*X*X*X*X*X*X*X*X&XF.O $ 3 X.| | @.[ c z z z [ { n 5   & ) &X*X*X*X*X*X*X*X*X*X*X*X*X*X*X*X*X*X*X*X*X*X",
"*X*X*X*X*X*X*X*X*X*X*X*X*X*X*X*X*X*X*X*X*X*X X9 @ 1 b v w w l l z z l c k 8 o   % OX&X*X*X*X*X*X*X*X*X*X*X*X*X*X*X*X*X*X*X*X*X*X",
"*X*X*X*X*X*X*X*X*X*X*X*X*X*X*X*X*X*X*X*X*X*X&XOXt o + 2 w w l l l l l j 7 o   9 +X&X*X*X*X*X*X*X*X*X*X*X*X*X*X*X*X*X*X*X*X*X*X*X",
"*X*X*X*X*X*X*X*X*X*X*X*X*X*X*X*X*X*X*X*X*X*X*X*X%XOXr @ + 2 j j h h 7 d o $ [.&X*X*X*X*X*X*X*X*X*X*X*X*X*X*X*X*X*X*X*X*X*X*X*X*X",
"*X*X*X*X*X*X*X*X*X*X*X*X*X*X*X*X*X*X*X*X*X*X*X*X*X&X&XOX) O - 5 7 5 7 - G.$X&X*X*X*X*X*X*X*X*X*X*X*X*X*X*X*X*X*X*X*X*X*X*X*X*X*X",
"*X*X*X*X*X*X*X*X*X*X*X*X*X*X*X*X*X*X*X*X*X*X*X*X*X*X*X*X&X@X5.e q 0 5.$X&X*X*X*X*X*X*X*X*X*X*X*X*X*X*X*X*X*X*X*X*X*X*X*X*X*X*X*X",
"*X*X*X*X*X*X*X*X*X*X*X*X*X*X*X*X*X*X*X*X*X*X*X*X*X*X*X*X*X*X&X&X&X&X&X&X*X*X*X*X*X*X*X*X*X*X*X*X*X*X*X*X*X*X*X*X*X*X*X*X*X*X*X*X",
"*X*X*X*X*X*X*X*X*X*X*X*X*X*X*X*X*X*X*X*X*X*X*X*X*X*X*X*X*X*X*X*X*X*X*X*X*X*X*X*X*X*X*X*X*X*X*X*X*X*X*X*X*X*X*X*X*X*X*X*X*X*X*X*X",
"*X*X*X*X*X*X*X*X*X*X*X*X*X*X*X*X*X*X*X*X*X*X*X*X*X*X*X*X*X*X*X*X*X*X*X*X*X*X*X*X*X*X*X*X*X*X*X*X*X*X*X*X*X*X*X*X*X*X*X*X*X*X*X*X",
"*X*X*X*X*X*X*X*X*X*X*X*X*X*X*X*X*X*X*X*X*X*X*X*X*X*X*X*X*X*X*X*X*X*X*X*X*X*X*X*X*X*X*X*X*X*X*X*X*X*X*X*X*X*X*X*X*X*X*X*X*X*X*X*X",
"*X*X*X*X*X*X*X*X*X*X*X*X*X*X*X*X*X*X*X*X*X*X*X*X*X*X*X*X*X*X*X*X*X*X*X*X*X*X*X*X*X*X*X*X*X*X*X*X*X*X*X*X*X*X*X*X*X*X*X*X*X*X*X*X",
"*X*X*X*X*X*X*X*X*X*X*X*X*X*X*X*X*X*X*X*X*X*X*X*X*X*X*X*X*X*X*X*X*X*X*X*X*X*X*X*X*X*X*X*X*X*X*X*X*X*X*X*X*X*X*X*X*X*X*X*X*X*X*X*X",
"*X*X*X*X*X*X*X*X*X*X*X*X*X*X*X*X*X*X*X*X*X*X*X*X*X*X*X*X*X*X*X*X*X*X*X*X*X*X*X*X*X*X*X*X*X*X*X*X*X*X*X*X*X*X*X*X*X*X*X*X*X*X*X*X",
"*X*X*X*X*X*X*X*X*X*X*X*X*X*X*X*X*X*X*X*X*X*X*X*X*X*X*X*X*X*X*X*X*X*X*X*X*X*X*X*X*X*X*X*X*X*X*X*X*X*X*X*X*X*X*X*X*X*X*X*X*X*X*X*X",
"*X*X*X*X*X*X*X*X*X*X*X*X*X*X*X*X*X*X*X*X*X*X*X*X*X*X*X*X*X*X*X*X*X*X*X*X*X*X*X*X*X*X*X*X*X*X*X*X*X*X*X*X*X*X*X*X*X*X*X*X*X*X*X*X",
"*X*X*X*X*X*X*X*X*X*X*X*X*X*X*X*X*X*X*X*X*X*X*X*X*X*X*X*X*X*X*X*X*X*X*X*X*X*X*X*X*X*X*X*X*X*X*X*X*X*X*X*X*X*X*X*X*X*X*X*X*X*X*X*X",
"*X*X*X*X*X*X*X*X*X*X*X*X*X*X*X*X*X*X*X*X*X*X*X*X*X*X*X*X*X*X*X*X*X*X*X*X*X*X*X*X*X*X*X*X*X*X*X*X*X*X*X*X*X*X*X*X*X*X*X*X*X*X*X*X",
"*X*X*X*X*X*X*X*X*X*X*X*X*X*X*X*X*X*X*X*X*X*X*X*X*X*X*X*X*X*X*X*X*X*X*X*X*X*X*X*X*X*X*X*X*X*X*X*X*X*X*X*X*X*X*X*X*X*X*X*X*X*X*X*X",
"*X*X*X*X*X*X*X*X*X*X*X*X*X*X*X*X*X*X*X*X*X*X*X*X*X*X*X*X*X*X*X*X*X*X*X*X*X*X*X*X*X*X*X*X*X*X*X*X*X*X*X*X*X*X*X*X*X*X*X*X*X*X*X*X",
"*X*X*X*X*X*X*X*X*X*X*X*X*X*X*X*X*X*X*X*X*X*X*X*X*X*X*X*X*X*X*X*X*X*X*X*X*X*X*X*X*X*X*X*X*X*X*X*X*X*X*X*X*X*X*X*X*X*X*X*X*X*X*X*X",
"*X*X*X*X*X*X*X*X*X*X*X*X*X*X*X*X*X*X*X*X*X*X*X*X*X*X*X*X*X*X*X*X*X*X*X*X*X*X*X*X*X*X*X*X*X*X*X*X*X*X*X*X*X*X*X*X*X*X*X*X*X*X*X*X",
"*X*X*X*X*X*X*X*X*X*X*X*X*X*X*X*X*X*X*X*X*X*X*X*X*X*X*X*X*X*X*X*X*X*X*X*X*X*X*X*X*X*X*X*X*X*X*X*X*X*X*X*X*X*X*X*X*X*X*X*X*X*X*X*X",
"*X*X*X*X*X*X*X*X*X*X*X*X*X*X*X*X*X*X*X*X*X*X*X*X*X*X*X*X*X*X*X*X*X*X*X*X*X*X*X*X*X*X*X*X*X*X*X*X*X*X*X*X*X*X*X*X*X*X*X*X*X*X*X*X",
"*X*X*X*X*X*X*X*X*X*X*X*X*X*X*X*X*X*X*X*X*X*X*X*X*X*X*X*X*X*X*X*X*X*X*X*X*X*X*X*X*X*X*X*X*X*X*X*X*X*X*X*X*X*X*X*X*X*X*X*X*X*X*X*X"
};
