/* XPM */
static char *result[] = {
/* columns rows colors chars-per-pixel */
"64 64 176 2 ",
"   c #042D8D",
".  c #013082",
"X  c #00338C",
"o  c #003A82",
"O  c #092B93",
"+  c #16309D",
"@  c #163490",
"#  c #223F93",
"$  c #092EA0",
"%  c #0429A2",
"&  c #112FA4",
"*  c #0D32AC",
"=  c #0734A4",
"-  c #1433A5",
";  c #1334AC",
":  c #1835AA",
">  c #183AAF",
",  c #092EB5",
"<  c #0C31B5",
"1  c #0C32BA",
"2  c #1235B2",
"3  c #1934B4",
"4  c #123CB2",
"5  c #193AB3",
"6  c #1235BB",
"7  c #143ABB",
"8  c #1838BC",
"9  c #0E418C",
"0  c #145089",
"q  c #264E9F",
"w  c #31539A",
"e  c #0642A6",
"r  c #1847A5",
"t  c #0253AE",
"y  c #0D49B3",
"u  c #1142B3",
"i  c #1840B2",
"p  c #134BB5",
"a  c #1544BE",
"s  c #0E53B7",
"d  c #0A59B6",
"f  c #1155B9",
"g  c #3859AB",
"h  c #096DA8",
"j  c #0B66BA",
"k  c #086FBB",
"l  c #1166B0",
"z  c #0671BB",
"x  c #445EB7",
"c  c #0932CD",
"v  c #1238CB",
"b  c #002EDD",
"n  c #0133DC",
"m  c #003BDF",
"M  c #113DD4",
"N  c #1139DB",
"B  c #0033E2",
"V  c #023AE1",
"C  c #0939E3",
"Z  c #023DEB",
"A  c #123EE7",
"S  c #123EEE",
"D  c #0D3EF4",
"F  c #0738FB",
"G  c #0A3DFF",
"H  c #113DF4",
"J  c #1840C1",
"K  c #124EC3",
"L  c #1445C1",
"P  c #1153C3",
"I  c #115CC4",
"U  c #0043DE",
"Y  c #004CDE",
"T  c #1943DC",
"R  c #0053DE",
"E  c #0D5DDB",
"W  c #2357C7",
"Q  c #0D66C5",
"!  c #0F68C6",
"~  c #0A6DC8",
"^  c #1068C6",
"/  c #1062C5",
"(  c #0A7BC7",
")  c #0C76CA",
"_  c #0B7CCA",
"`  c #1075C6",
"'  c #0C65DD",
"]  c #2D72D8",
"[  c #0042E4",
"{  c #014EE5",
"}  c #0044EA",
"|  c #1241EC",
" . c #005AE2",
".. c #0D40F3",
"X. c #0C40FD",
"o. c #0D4DFF",
"O. c #1243F4",
"+. c #1148F5",
"@. c #1144FD",
"#. c #154EFF",
"$. c #184EFF",
"%. c #1943F5",
"&. c #0C52FF",
"*. c #1551FF",
"=. c #1B55FE",
"-. c #1559FF",
";. c #204FF4",
":. c #2855F6",
">. c #235CFF",
",. c #2B5AFD",
"<. c #2455F1",
"1. c #2764FF",
"2. c #2D65FF",
"3. c #2D69FF",
"4. c #3363FF",
"5. c #366FFF",
"6. c #386FFF",
"7. c #2B70FF",
"8. c #3375FE",
"9. c #3B76FF",
"0. c #367DFF",
"q. c #3A7CFF",
"w. c #4A68D3",
"e. c #4876EC",
"r. c #407BFF",
"t. c #5E80A9",
"y. c #5F88BC",
"u. c #4291BE",
"i. c #7185B4",
"p. c #729DBF",
"a. c #0A80CA",
"s. c #3D9BC4",
"d. c #3B81FF",
"f. c #458AC2",
"g. c #4098C4",
"h. c #4398C8",
"j. c #4295C0",
"k. c #7F8DC3",
"l. c #7489D8",
"z. c #5981EE",
"x. c #4886F9",
"c. c #4685FB",
"v. c #5B84F3",
"b. c #6E9BEE",
"n. c #8BA8C8",
"m. c #96A4C8",
"M. c #9DA9DA",
"N. c #8AB9D3",
"B. c #A6BED5",
"V. c #8099E9",
"C. c #9AB1E5",
"Z. c #A5BAE8",
"A. c #B6C0DF",
"S. c #B5C1D4",
"D. c #B4C4E3",
"F. c #C2C8E8",
"G. c #CBD3E9",
"H. c #D5DDE4",
"J. c #D9DDED",
"K. c #DBE0E7",
"L. c #DAE1EA",
"P. c #E4E5EA",
"I. c None",
"U. c #E6E9EB",
"Y. c #F0EFEC",
"T. c #F0F0EF",
"R. c #EDEDF0",
"E. c #F3EFF7",
"W. c None",
"Q. c #F8F5F6",
"!. c #F5F8F6",
"~. c None",
"^. c None",
"/. c None",
"(. c None",
"). c None",
/* pixels */
").).).).).).).).).).).).).).).).).).).).).).).).).).).).).).).).).).).).).).).).).).).).).).).).).).).).).).).).).).).).).).).).",
").).).).).).).).).).).).).).).).).).).).).).).).).).).).).).).).).).).).).).).).).).).).).).).).).).).).).).).).).).).).).).).).",
").).).).).).).).).).).).).).).).).).).).).).).).).).).).).).).).).).).).).).).).).).).).).).).).).).).).).).).).).).).).).).).).",
").).).).).).).).).).).).).).).).).).).).).).).).).).).).).).).).).).).).).).).).).).).).).).).).).).).).).).).).).).).).).).).).",
").).).).).).).).).).).).).).).).).).).).).).).).).).).).).).).).).).).).).).).).).).).).).).).).).).).).).).).).).).).).).).).).",
").).).).).).).).).).).).).).).).).).).).).).).).).).).).).).).).).).).).).).).).).).).).).).).).).).).).).).).).).).).).).).).).",
").).).).).).).).).).).).).).).).).).).).).).).).).).).).).).).).).).).).).).).).).).).).).).).).).).).).).).).).).).).).).).).).",
").).).).).).).).).).).).).).).).).).).).).).).).).).).).).).).).).).).).).).).).).).).).).).).).).).).).).).).).).).).).).).).).",
").).).).).).).).).).).).).).).).).).).).).).).).).).).).).).).).).).).).).).).).).).).).).).).).).).).).).).).).).).).).).).).).",
").).).).).).).).).).).).).).).).).).).).).).).).).).).).).).).).).).).).).).).).).).).).).).).).).).).).).).).).).).).).).).).).",
").).).).).).).).).).).).).).).).).).).).).).).).).).).).).).).).).).).).).).).).).).).).).).).).).).).).).).).).).).).).).).).).",
").).).).).).).).).).).).).).).).).).).).).).).).).).).).).).).).).).).).).).).).).).).).).).).).).).).).).).).).).).).).).).).).",
").).).).).).).).).).).).).).).).).).).).).).).).).).).).).).).).).).).).).).).).).).).).).).).).).).).).).).).).).).).).).).).).",
").).).).).).).).).).).).).).).).).).).).).).).).).).).).).).).).).).).).).).).).).).).).).).).).).).).).).).).).).).).).).).).).",
").).).).).).).).).).).).).).).).).).).).).).).).).).).).).).).).).).).).).).).).).).).).).).).).).).).).).).).).).).).).).).).).",
").).).).).).).).).).).).).).).).).).).).).).).).).).).).).).).).).).).).).).).).).).).).).).).).).).).).).).).).).).).).).).).).",
").).).).).).).).).).).).).).).).).).).).).).).).).).).).).).).).).).).).).).).).).).).).).).).).).).).).).).).).).).).).).).).).",
").).).).).).).).).).).).).).).).).).).).).).).).).).).).).(.W.W.W.W.W.).).).).).).).).).).).).).).).).).).).).).).).).).).).).).",
").).).).).).).).).).).).).).).).).).).).).).).).).).).).W.Z.z.V.C.D.J.R.).).).).).).).).).).).).).).).).).).).).).).).).).).).).",
").).).).).).).).).).).).).).).).).).).).).).).).).).).W.U.4.4.,.o.&.&.v.W.(.).).).).).).).).).).).).).).).).).).).).).).).).).).",
").).).).).).).).).).).).).).).).).).).).).).).).).).W.G.T 2.2.2.1.o.o.#.v.R./.).).).).).).).).).).).).).).).).).).).).).).).).).",
").).).).).).).).).).).).).).).).).).).).).).).).).W.M.v ,.3.2.2.2.2.-.o.o.&.G.W.).).).).).).).).).).).).).).).).).).).).).).).).",
").).).).).).).).).).).).).).).).).).).).).).).).I.w.c :.,.2.2.3.2.2.1.>.8.3.7.x.W.).).).).).).).).).).).).).).).).).).).).).).).",
").).).).).).).).).).).).).).).).).).).).).).).W.M.c <.,.2.4.3.3.>.#.$.r.d.0.q.8.J.).).).).).).).).).).).).).).).).).).).).).).).",
").).).).).).).).).).).).).).).).).).).).).).).I.% :.2.2.3.-.#.#.*.=.9.9.q.d.q.q.b.W.).).).).).).).).).).).).).).).).).).).).).).",
").).).).).).).).).).).).).).).).).).).).).).!.m.* 4 ; - T #.#.*.$.q.9.9.q.q.q.0.x.E.).).).).).).).).).).).).).).).).).).).).).).",
").).).).).).).).).).).).).).).).).).).).).).T.q u 4 2 ; : #.$.$.6.9.9.9.d.q.q.0.0.Y.~.).).).).).).).).).).).).).).).).).).).).).",
").).).).).).).).).).).).).).).).).).).).).).L.y u 4 2 2 ; =.#.2.9.6.9.9.9.q.0.0.q.D.W.).).).).).).).).).).).).).).).).).).).).).",
").).).).).).).).).).).).).).).).).).).).).W.S.d s u 4 4 ; 7 >.9.9.9.9.9.q.q.q.q.q.e.W.).).).).).).).).).).).).).).).).).).).).).",
").).).).).).).).).).).).).).).).).).).).).(.f.l f p 4 < 3 1 ;.9.8.8.9.9.9.d.q.r.q.8.U.).).).).).).).).).).).).).).).).).).).).).",
").).).).).).).).).).).).).).).).).).).).).W.u.k j d u 4 2 4 D G G =.5.9.9.9.q.q.0.0.G.~.).).).).).).).).).).).).).).).).).).).).",
").).).).).).).).).).).).).).).).).).).).).~.j.z j d u 4 4 2 D G G G F @.q.q.q.0.9.0.Z.~.).).).).).).).).).).).).).).).).).).).).",
").).).).).).).).).).).).).).).).).).).).).W.h.a.) ^ P a 2 3 D X.X.G F G ..A n n n n l.Q.).).).).).).).).).).).).).).).).).).).).",
").).).).).).).).).).).).).).).).).).).).).W.s.a.( ^ P a 7 3 X.G G @.D S | C n b n B A.W.).).).).).).).).).).).).).).).).).).).).",
").).).).).).).).).).).).).).).).).).).).).E.s._ ) Q P a 7 6 %.@.O.O.| S | B n n n V K.(.).).).).).).).).).).).).).).).).).).).).",
").).).).).).).).).).).).).).).).).).).).).W.N.( ) Q P L 8 6 M %.%.H | | | n B V U W R.).).).).).).).).).).).).).).).).).).).).).",
").).).).).).).).).).).).).).).).).).).).).~.H.( ` / K a 8 2 , %.%.H O.| | B V V U n.W.).).).).).).).).).).).).).).).).).).).).).",
").).).).).).).).).).).).).).).).).).).).).).W.h ~ I K J 8 6 , < ..H ..O.N B U U Y I.W.).).).).).).).).).).).).).).).).).).).).).",
").).).).).).).).).).).).).).).).).).).).).).T.p.Q P L 7 6 , , , 1 @.O.O.B V U Y E W.).).).).).).).).).).).).).).).).).).).).).).",
").).).).).).).).).).).).).).).).).).).).).).!.K.t p a 5 6 2 , , , N O.%.} } { R ] (.).).).).).).).).).).).).).).).).).).).).).).",
").).).).).).).).).).).).).).).).).).).).).).).W.y.e i 5 > ; : ; < 1 v +.Z [ {  .D./.).).).).).).).).).).).).).).).).).).).).).).",
").).).).).).).).).).).).).).).).).).).).).).).W.H.r = 2 ; - ; - : - < L [ [ R ' T.).).).).).).).).).).).).).).).).).).).).).).).",
").).).).).).).).).).).).).).).).).).).).).).).).~.L.g O ; - - : - - -   . o t.K.^.).).).).).).).).).).).).).).).).).).).).).).).",
").).).).).).).).).).).).).).).).).).).).).).).).)./.R.k.& ; - ; - O X X 0 S.W.~.).).).).).).).).).).).).).).).).).).).).).).).).",
").).).).).).).).).).).).).).).).).).).).).).).).).).~.W.n.- - & O   X 9 H.W.).).).).).).).).).).).).).).).).).).).).).).).).).).",
").).).).).).).).).).).).).).).).).).).).).).).).).).).).R.x + @ # w i.T.).).).).).).).).).).).).).).).).).).).).).).).).).).).).",
").).).).).).).).).).).).).).).).).).).).).).).).).).).).).I.U.U.R.W.W.).).).).).).).).).).).).).).).).).).).).).).).).).).).).).",
").).).).).).).).).).).).).).).).).).).).).).).).).).).).).).).).).).).).).).).).).).).).).).).).).).).).).).).).).).).).).).).).",
").).).).).).).).).).).).).).).).).).).).).).).).).).).).).).).).).).).).).).).).).).).).).).).).).).).).).).).).).).).).).).).).",
").).).).).).).).).).).).).).).).).).).).).).).).).).).).).).).).).).).).).).).).).).).).).).).).).).).).).).).).).).).).).).).).",
").).).).).).).).).).).).).).).).).).).).).).).).).).).).).).).).).).).).).).).).).).).).).).).).).).).).).).).).).).).).).).).).",
").).).).).).).).).).).).).).).).).).).).).).).).).).).).).).).).).).).).).).).).).).).).).).).).).).).).).).).).).).).).).).).).",
").).).).).).).).).).).).).).).).).).).).).).).).).).).).).).).).).).).).).).).).).).).).).).).).).).).).).).).).).).).).).).).).",
").).).).).).).).).).).).).).).).).).).).).).).).).).).).).).).).).).).).).).).).).).).).).).).).).).).).).).).).).).).).).).).).",
").).).).).).).).).).).).).).).).).).).).).).).).).).).).).).).).).).).).).).).).).).).).).).).).).).).).).).).).).).).).).).).).",
").).).).).).).).).).).).).).).).).).).).).).).).).).).).).).).).).).).).).).).).).).).).).).).).).).).).).).).).).).).).).).).).",
").).).).).).).).).).).).).).).).).).).).).).).).).).).).).).).).).).).).).).).).).).).).).).).).).).).).).).).).).).).).).).).).",
").).).).).).).).).).).).).).).).).).).).).).).).).).).).).).).).).).).).).).).).).).).).).).).).).).).).).).).).).).).).).).).).",
").).).).).).).).).).).).).).).).).).).).).).).).).).).).).).).).).).).).).).).).).).).).).).).).).).).).).).).).).).).).).).).).",
").).).).).).).).).).).).).).).).).).).).).).).).).).).).).).).).).).).).).).).).).).).).).).).).).).).).).).).).).).).).).).).).",
").).).).).).).).).).).).).).).).).).).).).).).).).).).).).).).).).).).).).).).).).).).).).).).).).).).).).).).).).).).).).).).).",
").).).).).).).).).).).).).).).).).).).).).).).).).).).).).).).).).).).).).).).).).).).).).).).).).).).).).).).).).).).).).).).).",
").).).).).).).).).).).).).).).).).).).).).).).).).).).).).).).).).).).).).).).).).).).).).).).).).).).).).).).).).).).).).).).).",
").).).).).).).).).).).).).).).).).).).).).).).).).).).).).).).).).).).).).).).).).).).).).).).).).).).).).).).).).).).).).).).)."
};
