/* XPM */
static char *_fed5cd87f714f81e38386efc29b5d01Xm1rtupEF4Utbwub[] = {
/* columns rows colors chars-per-pixel */
"64 64 167 2 ",
"   c None",
".  c #AC7C00",
"X  c #B88500",
"o  c #B88600",
"O  c #B88704",
"+  c #B3840C",
"@  c #B88808",
"#  c #B88809",
"$  c #B8890C",
"%  c #B18515",
"&  c #B28515",
"*  c #B68811",
"=  c #B88A13",
"-  c #B88B14",
";  c #BA8C17",
":  c #BA8D17",
">  c #B38718",
",  c #B48A1E",
"<  c #B98E1F",
"1  c #BF921F",
"2  c #B78E23",
"3  c #B78E24",
"4  c #B78F29",
"5  c #B99027",
"6  c #B99028",
"7  c #B9902B",
"8  c #B9912B",
"9  c #B9922D",
"0  c #BA922D",
"q  c #B9922E",
"w  c #BA922F",
"e  c #BB9433",
"r  c #BF9732",
"t  c #BF9833",
"y  c #C08C00",
"u  c #C59000",
"i  c #C5930F",
"p  c #C8950A",
"a  c #CB970D",
"s  c #C99815",
"d  c #CB9B1B",
"f  c #E7AC04",
"g  c #EEB000",
"h  c #EFB100",
"j  c #F1B200",
"k  c #F2B300",
"l  c #F8B800",
"z  c #F9B901",
"x  c #F8B902",
"c  c #F8B903",
"v  c #F8B905",
"b  c #F8BA06",
"n  c #F8BA08",
"m  c #F8BB0A",
"M  c #F8BD12",
"N  c #F7BF1D",
"B  c #F8BF19",
"V  c #F8BF1A",
"C  c #C29A35",
"Z  c #F8C01E",
"A  c #F8C01F",
"S  c #F8C021",
"D  c #F8C124",
"F  c #F8C225",
"G  c #F8C226",
"H  c #F8C42C",
"J  c #F9C42E",
"K  c #F9C42F",
"L  c #F9C52F",
"P  c #F9C738",
"I  c #F9C739",
"U  c #F9C73B",
"Y  c #F9C83C",
"T  c #F9C93F",
"R  c #C09C40",
"E  c #C29D41",
"W  c #C19E47",
"Q  c #C29F48",
"!  c #C7A345",
"~  c #DDB74E",
"^  c #CCAB59",
"/  c #C8AA5F",
"(  c #E3BE57",
")  c #CAAC60",
"_  c #E0BE62",
"`  c #F9CA41",
"'  c #F9CA42",
"]  c #F9CC49",
"[  c #F9CD4E",
"{  c #E8C154",
"}  c #E5C15B",
"|  c #E5C15C",
" . c #E9C45D",
".. c #EAC55E",
"X. c #F2C955",
"o. c #F9D15E",
"O. c #E8C560",
"+. c #EAC763",
"@. c #E9C665",
"#. c #ECC860",
"$. c #ECC861",
"%. c #EDCA67",
"&. c #EDCA68",
"*. c #EDCB68",
"=. c #ECCA69",
"-. c #F9D465",
";. c #F9D468",
":. c #F9D469",
">. c #F9D56A",
",. c #F9D56C",
"<. c #F9D66E",
"1. c #F9D772",
"2. c #F9D773",
"3. c #F9D874",
"4. c #F9D875",
"5. c #F9D877",
"6. c #F9D979",
"7. c #F9DA7C",
"8. c #F9DA7D",
"9. c #F9DB7E",
"0. c #FADE89",
"q. c #FBE39B",
"w. c #DBCBA2",
"e. c #DBCBA3",
"r. c #DCCCA3",
"t. c #E1CFA3",
"y. c #E1D0A7",
"u. c #E3D3AB",
"i. c #EDDCAD",
"p. c #E0D4B6",
"a. c #E1D4B6",
"s. c #E1D5B7",
"d. c #E2D5B7",
"f. c #E2D6B8",
"g. c #EADDBF",
"h. c #FBE5A1",
"j. c #FBE6A5",
"k. c #FBE7AB",
"l. c #FCE8AE",
"z. c #FCE9B2",
"x. c #FCEAB4",
"c. c #FCEAB6",
"v. c #E4DAC1",
"b. c #E5DBC5",
"n. c #EADDC0",
"m. c #EADEC0",
"M. c #ECE1C7",
"N. c #E8E1CF",
"B. c #EEE4CC",
"V. c #FCEDC0",
"C. c #F1E6CB",
"Z. c #FDF0C8",
"A. c #FDF1CD",
"S. c #EBE5D7",
"D. c #F2EBDA",
"F. c #FDF3D4",
"G. c #FEF3D5",
"H. c #F7F2E7",
"J. c #F3F3F3",
"K. c #FFFCF3",
"L. c #FEFCF7",
"P. c #FFFDF8",
"I. c #FFFDF9",
"U. c #FEFDFB",
"Y. c #FEFEFC",
"T. c #FFFEFC",
"R. c white",
/* pixels */
"                                                                                                                                ",
"                                                                                                                                ",
"                                                                                                                                ",
"                                                                                                                                ",
"                                                                                                                                ",
"                                                                                                                                ",
"                                                                                                                                ",
"                                                                                                                                ",
"                                                                                                                                ",
"                                                                                                                                ",
"                                                                                                                                ",
"                                                                                                                                ",
"                                                                                                                                ",
"                                                                                                                                ",
"                                                                                                                                ",
"                                                                                                                                ",
"                                                                                                                                ",
"                                                                                                                                ",
"                                                                                                                                ",
"                                                                                                                                ",
"                                                                                                                                ",
"                                                      J.S., % % % % % % N.                                                      ",
"                                                      0 C ..#.#.#.#...* 8 4                                                     ",
"                                                    E } { S Z Z Z Z S { } + e                                                   ",
"                                                  t &.:.M z X X X X z M :.&.* ,                                                 ",
"                                                ! O.,.B j y } } } | y j B ,.O.: 0                                               ",
"                                              p.1 ,.D h p ~ L 6.6.L ~ p h D ,.1 . p.                                            ",
"                                            b./ i.-.j i { S z D 2.o.N f u j -.O.: 0 f.                                          ",
"                                            p.E K.l.h - :.v z z D 2.[ n X h -.6.1 . w.                                          ",
"                                            p.E R.G.h - 2.] z z z L 3.[ $ h -.6.1 . w.                                          ",
"                                            p.E R.G.h < z.7.P z z z Y 2.- h -.6.1 . r.                                          ",
"                                            p.E R.G.h 8 P.Z.3.` v z z L @ h -.6.1 . r.                                          ",
"                                            p.E R.G.h 8 R.R.x.3.` v z z X h -.6.1 . w.                                          ",
"                                            p.r G.G.h 8 R.R.P.k.7.P z z X h -.6.1 . w.                                          ",
"                                            p.1 0.q.h 8 R.R.R.P.V.7.P n X h -.6.1 . r.                                          ",
"                                            p.1 6.-.h 8 R.R.R.R.R.x.3.Y @ h -.6.1 . w.                                          ",
"                                            p.1 6.-.h 8 R.R.R.R.R.R.h.7.- h -.6.1 . w.                                          ",
"                                              ^ ( -.j d u.P.R.R.R.R.L._ a j -.( = W v.                                          ",
"                                                1 ,.D h s t.R.R.R.R.y.) X.L ,.1 . p.                                            ",
"                                                  O.,.B j y n.n.n.n.Q H.R.j.@.: 0                                               ",
"                                                    %.:.M z X O 5 8 R.R.R.D.2 ,                                                 ",
"                                                        { S Z L A.R.R.M.g.> e                                                   ",
"                                                          ..#.#.&.C.B.3 0 4                                                     ",
"                                                              %     %                                                           ",
"                                                                                                                                ",
"                                                                                                                                ",
"                                                                                                                                ",
"                                                                                                                                ",
"                                                                                                                                ",
"                                                                                                                                ",
"                                                                                                                                ",
"                                                                                                                                ",
"                                                                                                                                ",
"                                                                                                                                ",
"                                                                                                                                ",
"                                                                                                                                ",
"                                                                                                                                ",
"                                                                                                                                ",
"                                                                                                                                ",
"                                                                                                                                ",
"                                                                                                                                ",
"                                                                                                                                ",
"                                                                                                                                ",
"                                                                                                                                "
};
