/* XPM */
static char *_8d53e8d92c34a1dd264d66499a1611cQIDAkyQD5CbrL7pq[] = {
/* columns rows colors chars-per-pixel */
"64 64 102 2 ",
"   c None",
".  c #DCD9D2",
"X  c #493D17",
"o  c #372900",
"O  c #AEA998",
"+  c #FDFDFD",
"@  c #5D512F",
"#  c #382A01",
"$  c #DAD8D0",
"%  c #6C6142",
"&  c #382A00",
"*  c #3B2C01",
"=  c #3A2C01",
"-  c #3A2B00",
";  c #3B2D05",
":  c #F3F2F0",
">  c #776D4F",
",  c #392B00",
"<  c #493703",
"1  c #483703",
"2  c #483603",
"3  c #493704",
"4  c #413102",
"5  c #3D2F06",
"6  c #766C4E",
"7  c #4A3803",
"8  c #4B3904",
"9  c #433302",
"0  c #3C2E06",
"q  c #4A3804",
"w  c #3C2E05",
"e  c #3C2F06",
"r  c #533F03",
"t  c #614903",
"y  c #816002",
"u  c #866402",
"i  c #7A5B02",
"p  c #5D4603",
"a  c #4B3903",
"s  c #644B03",
"d  c #A07802",
"f  c #E2A800",
"g  c #E8AD00",
"h  c #F1B300",
"j  c #E3AA00",
"k  c #CF9A01",
"l  c #795B02",
"z  c #584303",
"x  c #433202",
"c  c #EFB200",
"v  c #FFBE00",
"b  c #DDA501",
"n  c #8D6A02",
"m  c #EDB100",
"M  c #CF9B01",
"N  c #5F4703",
"B  c #554003",
"V  c #A47B02",
"C  c #E5AB00",
"Z  c #7A5C02",
"A  c #574203",
"S  c #C19001",
"D  c #F2B400",
"F  c #886602",
"G  c #B08401",
"H  c #EAAE00",
"J  c #826202",
"K  c #4C3A06",
"L  c #9D7502",
"P  c #FEBD00",
"I  c #E4AA00",
"U  c #634A03",
"Y  c #6B5102",
"T  c #C59301",
"R  c #F9B900",
"E  c #F0B300",
"W  c #A27902",
"Q  c #543F03",
"!  c #7C5D02",
"~  c #EEB100",
"^  c #654C03",
"/  c #6A5002",
"(  c #9E7602",
")  c #B18401",
"_  c #C39201",
"`  c #A67C01",
"'  c #8F6B02",
"]  c #4C3A03",
"[  c #4A3904",
"{  c #392A00",
"}  c #3F2F01",
"|  c #403001",
" . c #3F3001",
".. c #3D2E01",
"X. c #FEFEFE",
"o. c #645837",
"O. c #3B2D04",
"+. c #E2E0DA",
"@. c #E5E3DE",
"#. c #5A4E2B",
"$. c #ACA695",
"%. c #FBFBFA",
/* pixels */
"      . X o o o o o o o o o o o o o o o o o o o o o o o o o o o o o o o o o o o o o o o o o o o o o o o o o o o o o o o o O     ",
"      + @ o o o o o o o o o o o o o o o o o o o o o o o o o o o o o o o o o o o o o o o o o o o o o o o o o o o o o o o # $     ",
"        % o & * * * * = * * * = = * * * * = * * * * = * * * * = * * * * = * * * * = * * * = = * * * = = * * = * = - & o ; :     ",
"        > o , < 1 1 1 < < 1 1 1 < < 1 2 1 < < 1 1 1 < < 1 2 1 < < 1 1 1 < < 1 2 1 < < 1 1 1 < < 1 1 1 < < 1 2 1 3 < 4 o 5       ",
"        6 o , 7 7 7 7 7 7 7 7 7 7 7 7 7 7 7 7 7 7 7 7 7 7 7 7 7 7 7 7 7 7 7 7 7 7 7 7 7 7 7 7 7 7 7 7 7 7 7 7 8 8 7 9 o 0       ",
"        6 o , 7 7 7 7 7 7 7 7 7 7 7 7 7 7 7 7 7 7 7 7 7 7 7 7 7 7 7 7 7 7 7 7 7 7 7 7 7 7 7 7 7 7 7 7 7 7 7 7 7 q 7 9 o 0       ",
"        6 o , 7 7 7 7 7 7 7 7 7 7 7 7 7 7 7 7 7 7 7 7 7 7 7 7 7 7 7 7 7 7 7 7 7 7 7 7 7 7 7 7 7 7 7 7 7 7 7 7 7 7 7 9 o 0       ",
"        6 o , 7 7 7 7 7 7 7 7 7 7 7 7 7 7 7 7 7 7 7 7 7 7 7 7 7 7 7 7 7 7 7 7 7 7 7 7 7 7 7 7 7 7 7 7 7 7 7 7 7 7 7 9 o 0       ",
"        > o , 7 7 7 7 7 7 7 7 7 7 7 7 7 7 7 7 7 7 7 7 7 7 7 7 7 7 7 7 7 7 7 7 7 7 7 7 7 7 7 7 7 7 7 7 7 7 7 7 7 7 7 9 o 0       ",
"        6 o , 7 7 7 7 7 7 7 7 7 7 7 7 7 7 7 7 7 7 7 7 7 7 7 7 7 7 7 7 7 7 7 7 7 7 7 7 7 7 7 7 7 7 7 7 7 7 7 7 7 7 7 9 o 0       ",
"        6 o , 7 7 7 7 7 7 7 7 7 7 7 7 7 7 7 7 7 7 7 7 7 7 7 7 7 7 7 7 7 7 7 7 7 7 7 7 7 7 7 7 7 7 7 7 7 7 7 7 7 7 7 9 o 0       ",
"        6 o , 7 7 7 7 7 7 7 7 7 7 7 7 7 7 7 7 7 7 7 7 7 7 7 7 7 7 7 7 7 7 7 7 7 7 7 7 7 7 7 7 7 7 7 7 7 7 7 7 7 7 7 9 o w       ",
"        6 o , 7 7 7 7 7 7 7 7 7 7 7 7 7 7 7 7 7 7 7 7 7 7 7 7 7 7 7 7 7 7 7 7 7 7 7 7 7 7 7 7 7 7 7 7 7 7 7 7 7 7 7 9 o 5       ",
"        6 o , 7 7 7 7 7 7 7 7 7 7 7 7 7 7 7 7 7 7 7 7 7 7 7 7 7 7 7 7 7 7 7 7 7 7 7 7 7 7 7 7 7 7 7 7 7 7 7 7 7 7 7 9 o 0       ",
"        6 o , 7 7 7 7 7 7 7 7 7 7 7 7 7 7 7 7 7 7 7 7 7 7 7 7 7 7 7 7 7 7 7 7 7 7 7 7 7 7 7 7 7 7 7 7 7 7 7 7 7 7 7 9 o 0       ",
"        6 o , 7 7 7 7 7 7 7 7 7 7 7 7 7 7 7 7 7 7 7 7 7 7 7 7 7 7 7 7 7 7 7 7 7 7 7 7 7 7 7 7 7 7 7 7 7 7 7 7 7 7 7 9 o e       ",
"        6 o , 7 7 7 7 7 7 7 7 7 7 7 7 7 7 7 7 7 7 7 7 7 7 7 7 7 7 7 7 7 7 7 7 7 7 7 7 7 7 7 7 7 7 7 7 7 7 7 7 7 7 7 9 o 0       ",
"        > o , 7 7 7 7 7 7 7 7 7 7 7 7 7 7 7 7 7 7 7 7 7 7 7 7 7 7 7 7 7 7 7 7 7 7 7 7 7 7 7 7 7 7 7 7 7 7 7 7 7 7 7 9 o 0       ",
"        > o , 7 7 7 7 7 7 7 7 7 7 7 7 7 7 7 7 7 7 7 7 7 7 7 7 7 7 7 7 7 7 7 7 7 7 7 7 7 7 7 7 7 7 7 7 7 7 7 7 7 7 7 9 o 0       ",
"        6 o , 7 7 7 7 7 7 7 7 7 7 7 7 7 7 7 7 7 7 8 7 7 7 7 7 7 7 7 7 7 7 7 7 7 7 7 7 7 7 7 7 7 7 7 7 7 7 7 7 7 7 7 9 o 0       ",
"        6 o , 7 7 7 7 7 7 7 7 7 7 7 7 7 7 7 7 7 7 7 7 7 7 7 7 7 7 7 7 7 7 7 7 7 7 7 7 7 7 7 7 7 7 7 7 7 7 7 7 7 7 7 9 o 0       ",
"        6 o , 7 7 7 7 7 7 7 7 7 7 7 7 7 7 7 7 7 7 7 7 7 7 7 7 7 7 7 7 7 7 7 7 7 7 7 7 7 7 7 7 7 7 7 7 7 7 7 7 7 7 7 9 o 0       ",
"        > o , 7 7 7 7 7 7 7 7 7 7 7 7 7 7 7 7 7 7 7 7 7 7 7 7 7 7 7 7 7 7 7 7 7 7 7 7 7 7 7 7 7 7 7 7 7 7 7 7 7 7 7 9 o w       ",
"        > o , 7 7 7 7 7 7 7 7 7 7 7 7 7 7 7 7 7 7 7 7 7 7 7 7 7 7 7 7 7 7 7 7 7 7 7 7 7 7 7 7 7 7 7 7 7 7 7 7 7 7 7 9 o 0       ",
"        6 o , 7 7 7 7 7 7 7 7 7 7 7 7 7 7 7 7 7 7 7 7 7 7 7 7 7 7 7 7 7 7 7 7 7 7 7 7 7 7 7 7 7 7 7 7 7 7 7 7 7 7 7 9 o 0       ",
"        6 o , 7 7 7 7 7 7 7 7 7 7 7 7 7 7 7 7 7 7 7 7 7 7 7 7 7 7 7 7 7 7 7 7 7 7 7 7 7 7 7 7 7 7 7 7 7 7 7 7 7 7 7 9 o 0       ",
"        6 o , 7 7 7 7 7 7 7 7 7 7 7 7 7 7 7 7 7 7 7 7 7 7 7 7 7 7 7 7 7 7 7 7 7 7 7 7 7 7 7 7 7 7 7 7 7 7 7 7 7 7 7 9 o 0       ",
"        6 o , 7 7 7 7 7 7 7 7 7 7 7 7 7 7 7 7 7 7 7 7 7 7 7 7 7 7 7 7 7 7 7 7 7 7 7 7 7 7 7 7 7 7 7 7 7 7 7 7 7 7 7 9 o 0       ",
"        6 o , 7 7 7 7 7 7 7 7 7 7 7 7 7 7 7 7 7 7 7 7 7 7 7 7 7 7 7 7 7 7 7 7 7 7 7 7 7 7 7 7 7 r t y u i p a 7 7 7 9 o 5       ",
"        6 o , 7 7 7 7 7 7 7 7 7 7 7 7 7 7 7 7 7 7 7 7 7 7 7 7 7 7 7 7 7 7 7 7 7 7 7 7 7 7 7 7 s d f g h j k l z 7 7 x o 5       ",
"        6 o , 7 7 7 7 7 7 7 7 7 7 7 7 7 7 7 7 7 7 7 7 7 7 7 7 7 7 7 7 7 7 7 7 7 7 7 7 7 7 7 a d c v v v v v b l 7 7 9 o 0       ",
"        6 o , 7 7 7 7 7 7 7 7 7 7 7 7 7 7 7 7 7 7 7 7 7 7 7 7 7 7 7 7 7 7 7 7 7 7 7 7 7 7 7 n m v v v v v v v M N 7 9 o 0       ",
"        6 o , 7 7 7 7 7 7 7 7 7 7 7 7 7 7 7 7 7 7 7 7 7 7 7 7 7 7 7 7 7 7 7 7 7 7 7 7 7 7 B V v v v v v v v v C Z 7 9 o 0       ",
"        6 o , 7 7 7 7 7 7 7 7 7 7 7 7 7 7 7 7 7 7 7 7 7 7 7 7 7 7 7 7 7 7 7 7 7 7 7 7 7 7 A S v v v v v v v v D F 7 9 o w       ",
"        6 o , 7 7 7 7 7 7 7 7 7 7 7 7 7 7 7 7 7 7 7 7 7 7 8 7 7 7 7 7 7 7 7 7 7 7 7 7 7 7 A G v v v v v v v v H J 7 9 o 5       ",
"        6 o , 7 7 7 7 7 7 7 7 7 7 7 7 7 7 7 7 7 7 7 7 7 7 K 7 7 7 7 7 7 7 7 7 7 7 7 7 7 7 7 L P v v v v v v v I U 7 9 o 0       ",
"        6 o , 7 7 7 7 7 7 7 7 7 7 7 7 7 7 7 7 7 7 7 7 7 7 7 7 7 7 7 7 7 7 7 7 7 7 7 7 7 7 7 Y T R v v v v v E W Q 7 9 o 0       ",
"        6 o , 7 7 7 7 7 7 7 7 7 7 7 7 7 7 7 7 7 7 7 7 7 7 7 7 7 7 7 7 7 7 7 7 7 7 7 7 7 7 7 7 ! T P v v v ~ W ^ 7 7 9 o 5       ",
"        6 o , 7 7 7 7 7 7 7 7 7 7 7 7 7 7 7 7 7 7 7 8 7 7 7 7 7 7 7 7 7 7 7 7 7 7 7 7 7 7 7 7 7 / ( ) _ ` ' ] 7 7 7 9 o 5       ",
"        6 o , 7 7 7 7 7 7 7 7 7 7 7 7 7 7 7 7 7 7 7 K 7 7 7 7 7 7 7 7 7 7 7 7 7 7 7 7 7 7 7 7 7 7 7 z z B 7 7 7 7 7 9 o 0       ",
"        6 o , 7 7 7 7 7 7 7 7 7 7 7 7 7 7 7 7 7 7 7 7 7 7 7 7 7 7 7 7 7 7 7 7 7 7 7 7 7 7 7 7 7 7 7 7 7 7 7 7 7 7 7 9 o 0       ",
"        6 o , 7 7 7 7 7 7 7 7 7 7 7 7 7 7 7 7 7 7 7 7 7 7 7 7 7 7 7 7 7 7 7 7 7 7 7 7 7 7 7 7 7 7 7 7 7 7 7 7 7 7 7 9 o 0       ",
"        6 o , 7 7 7 7 7 7 7 7 7 7 7 7 7 7 7 7 7 7 7 7 7 7 7 7 7 7 7 7 7 7 7 7 7 7 7 7 7 7 7 7 7 7 7 7 7 7 7 7 7 7 7 9 o 5       ",
"        6 o , 7 7 7 7 7 7 7 7 7 7 7 7 7 7 7 7 7 7 7 7 7 7 7 7 7 7 7 7 7 7 7 7 7 7 7 7 7 7 7 7 7 7 7 7 7 7 7 7 7 7 7 9 o 5       ",
"        6 o , 7 7 7 7 7 7 7 7 7 7 7 7 7 7 7 7 7 7 7 7 7 7 7 7 7 7 7 7 7 7 7 7 7 7 7 7 7 7 7 7 7 7 7 7 7 7 7 7 7 7 7 9 o 0       ",
"        6 o , 7 7 7 7 7 7 7 7 7 7 7 7 8 7 7 7 7 7 7 7 7 7 7 7 7 7 7 8 7 7 7 7 7 7 7 7 7 7 7 7 7 7 7 7 7 7 7 7 7 7 7 9 o 0       ",
"        6 o , 7 7 7 7 7 7 7 7 7 7 7 7 7 7 7 7 7 7 7 7 7 7 7 7 7 7 7 7 7 7 7 7 7 7 7 7 7 7 7 7 7 7 7 7 7 7 7 7 7 7 7 9 o e       ",
"        6 o , 7 7 7 7 7 7 7 7 7 7 7 7 7 7 7 7 7 7 7 7 7 7 7 7 7 7 7 7 7 7 7 7 7 7 7 7 7 7 7 7 7 7 7 7 7 7 7 7 7 7 7 9 o 0       ",
"        6 o , 7 7 7 7 7 7 7 7 7 7 7 7 7 7 7 7 7 [ 7 7 7 7 7 7 7 7 7 7 7 7 7 7 7 7 7 7 7 7 8 7 7 7 7 7 7 7 7 7 7 7 7 9 o 0       ",
"        6 o , 7 7 7 7 7 7 7 7 7 7 7 7 7 7 7 7 7 7 7 7 7 7 7 7 7 7 7 7 7 7 7 7 7 7 7 7 7 7 7 7 7 7 7 7 7 7 7 7 7 7 7 9 o 5       ",
"        6 o , 7 7 7 7 7 7 7 7 7 7 7 7 7 7 7 7 7 7 7 7 7 7 7 7 7 7 7 7 7 7 7 7 7 7 7 7 7 7 7 7 7 7 7 7 7 7 7 7 7 7 7 9 o 0       ",
"        6 o , 7 7 7 7 7 7 7 7 7 7 7 7 7 7 7 7 7 7 7 7 7 7 7 7 7 7 7 7 7 7 7 7 7 7 7 7 7 7 7 7 7 7 7 7 7 7 7 7 7 7 7 9 o 0       ",
"        6 o , 7 7 7 7 7 7 7 7 7 7 7 7 7 7 7 7 7 7 7 7 7 7 7 7 7 7 7 7 7 7 7 7 7 7 7 7 7 7 7 7 7 7 7 7 7 7 7 7 7 7 7 9 o 0       ",
"        > o , 7 7 7 7 7 7 7 7 7 7 7 7 7 7 7 7 7 7 7 7 7 7 7 7 7 7 7 7 7 7 7 7 7 7 7 7 7 7 7 7 7 7 7 7 7 7 7 7 7 7 7 9 o 5       ",
"        6 o , 7 7 7 7 7 7 7 7 7 7 7 7 7 7 7 7 7 7 7 7 7 7 7 7 7 7 7 7 7 7 7 7 7 7 7 7 7 7 7 7 7 7 7 7 7 7 7 7 7 7 7 9 o 0       ",
"        6 o , 7 7 7 7 7 7 7 7 7 7 7 7 7 7 7 7 7 7 7 7 7 7 7 7 7 7 7 7 7 7 7 7 7 7 7 7 7 7 7 7 7 7 7 7 7 7 7 7 7 7 7 9 o 0       ",
"        6 o , 7 7 7 7 7 7 7 7 7 7 7 7 7 7 7 7 7 7 7 7 7 7 7 7 7 7 7 7 7 7 7 7 7 7 7 7 7 7 7 7 7 7 7 7 7 7 7 7 7 7 7 9 o 0       ",
"        6 o , 7 7 7 7 7 7 7 7 7 7 7 7 7 7 7 7 7 7 7 7 7 7 7 7 7 7 7 7 7 7 7 7 7 7 7 7 7 7 7 7 7 7 7 7 7 7 7 7 7 7 7 9 o 0       ",
"        > o , 7 7 7 7 7 7 7 7 7 7 7 7 7 7 7 7 7 7 7 7 7 7 7 7 7 7 7 7 7 7 7 7 7 7 7 7 7 7 7 7 7 7 7 7 7 7 7 7 7 7 7 9 o 0       ",
"        6 o , 7 7 7 7 7 7 7 7 7 7 7 7 7 7 7 7 7 7 7 7 7 7 7 7 7 7 7 7 7 7 7 7 7 7 7 7 7 7 7 7 7 7 7 7 7 7 7 7 7 7 7 9 o 0       ",
"        6 o , 7 7 7 7 7 7 7 7 7 7 7 7 7 7 7 7 7 7 7 7 7 7 7 7 7 7 7 7 7 7 7 7 7 7 7 7 7 7 7 7 7 7 7 7 7 7 7 7 7 7 7 9 o 0       ",
"        6 o { 4 } } |  .} } } | } } } } | } } }  .| } } } } | } } } } | } } } } | } } } } | } } } } | } } } } | } } ..o 0 X.    ",
"        o.o o o o o o o o o o o o o o o o o o o o o o o o o o o o o o o o o o o o o o o o o o o o o o o o o o o o o o o O.+.    ",
"      @.#.o o o o o o o o o o o o o o o o o o o o o o o o o o o o o o o o o o o o o o o o o o o o o o o o o o o o o o o # $.%.  "
};
