/* XPM */
static char *_afa2407531f4407cd4510ce9e3ae092qx4lt3xhhPnj9Okf[] = {
/* columns rows colors chars-per-pixel */
"64 64 183 2 ",
"   c None",
".  c black",
"X  c #010101",
"o  c #020101",
"O  c #020201",
"+  c #020202",
"@  c #030202",
"#  c #030302",
"$  c #040302",
"%  c #040403",
"&  c #050403",
"*  c #050503",
"=  c #050504",
"-  c #060504",
";  c #060604",
":  c #070604",
">  c #070605",
",  c #070705",
"<  c #080705",
"1  c #080806",
"2  c #090806",
"3  c #0A0906",
"4  c #0A0907",
"5  c #0B0A07",
"6  c #0B0A08",
"7  c #0C0A08",
"8  c #0C0B08",
"9  c #0D0B08",
"0  c #0D0C08",
"q  c #0D0C09",
"w  c #0E0C09",
"e  c #0E0D09",
"r  c #0E0D0A",
"t  c #0F0D0A",
"y  c #0F0E0A",
"u  c #100E0A",
"i  c #100E0B",
"p  c #100F0B",
"a  c #110F0B",
"s  c #11100B",
"d  c #11100C",
"f  c #12100C",
"g  c #12110C",
"h  c #13110C",
"j  c #13110D",
"k  c #13120D",
"l  c #14120D",
"z  c #15130E",
"x  c #16130E",
"c  c #16140E",
"v  c #16140F",
"b  c #17140F",
"n  c #17150F",
"m  c #171510",
"M  c #181510",
"N  c #181610",
"B  c #191610",
"V  c #191711",
"C  c #1A1711",
"Z  c #1A1811",
"A  c #1B1812",
"S  c #1B1912",
"D  c #1C1912",
"F  c #1C1913",
"G  c #1C1A13",
"H  c #1D1A13",
"J  c #1D1B13",
"K  c #1E1B14",
"L  c #1E1C14",
"P  c #1F1C14",
"I  c #1F1C15",
"U  c #201C15",
"Y  c #201D15",
"T  c #211D16",
"R  c #211E16",
"E  c #221E16",
"W  c #221F16",
"Q  c #221F17",
"!  c #231F17",
"~  c #3B2C00",
"^  c #3C2C00",
"/  c #3C2D00",
"(  c #3D2D00",
")  c #3D2E00",
"_  c #3E2E00",
"`  c #3E2F00",
"'  c #3F2F00",
"]  c #232017",
"[  c #242018",
"{  c #242118",
"}  c #252118",
"|  c #252219",
" . c #262219",
".. c #262319",
"X. c #27231A",
"o. c #27241A",
"O. c #28241A",
"+. c #28241B",
"@. c #28251B",
"#. c #29251B",
"$. c #2A261B",
"%. c #2A261C",
"&. c #2B271C",
"*. c #2B271D",
"=. c #2C271D",
"-. c #2C281D",
";. c #2D281D",
":. c #2D281E",
">. c #2D291E",
",. c #2E291E",
"<. c #2E2A1E",
"1. c #2E2A1F",
"2. c #2F2A1F",
"3. c #2F2B1F",
"4. c #302B1F",
"5. c #302B20",
"6. c #302C20",
"7. c #312C20",
"8. c #312D21",
"9. c #322D21",
"0. c #322E21",
"q. c #332E21",
"w. c #332E22",
"e. c #342F22",
"r. c #342F23",
"t. c #352F23",
"y. c #353023",
"u. c #363023",
"i. c #363124",
"p. c #373124",
"a. c #373224",
"s. c #373225",
"d. c #383225",
"f. c #383325",
"g. c #393325",
"h. c #393326",
"j. c #393426",
"k. c #3A3426",
"l. c #3A3526",
"z. c #3A3527",
"x. c #3B3527",
"c. c #3B3627",
"v. c #3C3627",
"b. c #3C3628",
"n. c #3C3728",
"m. c #3D3728",
"M. c #3D3729",
"N. c #3D3829",
"B. c #3E3829",
"V. c #402F00",
"C. c #403000",
"Z. c #413000",
"A. c #413100",
"S. c #423100",
"D. c #433200",
"F. c #443200",
"G. c #443300",
"H. c #453300",
"J. c #463400",
"K. c #4A3700",
"L. c #4C3900",
"P. c #4F3B00",
"I. c #513C00",
"U. c #574100",
"Y. c #5B4400",
"T. c #5C4400",
"R. c #5F4700",
"E. c #604700",
"W. c #604800",
"Q. c #614800",
"!. c #614900",
"~. c #624900",
"^. c #6D5100",
"/. c #6E5200",
"(. c #705400",
"). c #735600",
"_. c #775900",
"`. c #7A5B00",
"'. c #816000",
"]. c #B68800",
"[. c #C49200",
"{. c #C99600",
"}. c #D7A000",
/* pixels */
"            _ ~ ~ _ _ G.T.                                                                                                      ",
"            _ ~ ~ ~ ~ ~ S.P.                                                                                                    ",
"            S.~ _ _ _ _ _ _ _ _ G.                                                                                              ",
"            S._ G.~.Y.I.J.S._ _ _ _ _ _ V.S.~ ~ ~ ~ ~ ~ ~ ~ ~ ~ ~ ~ ~ ~ ~ ~ ~ ~ ~ ~ ~ ~ ~ ~ ~                                   ",
"            S._ G.~.~.~.~.~.U.P.K.G.S._ _ ~ ~ ~ ~ ~ ~ ~ ~ ~ ~ ~ ~ ~ ~ ~ ~ ~ ~ ~ ~ ~ ~ ~ ~ ~ ~ ~                                 ",
"            G._ S.~.~.~.~.~.~.~.~.~.~.U.K.J.~ ~ ~ ~ ~ ~ ~ ~ ~ ~ ~ ~ ~ ~ ~ ~ ~ ~ ~ ~ ~ ~ ~ ~ ~ ~                                 ",
"            S._ G.~.~.~.~.~.~.~.~.~.~.~.~.B.B.B.B.B.B.B.B.m.m.m.m.m.m.m.m.m.B.B.B.B.B.B.B.  ~ ~                                 ",
"            S._ G.~.~.~.~.~.~.~.~.~.~.~.~.B.B.B.B.m.m.m.m.m.m.m.v.v.v.m.m.m.m.m.m.m.B.B.B.  ~ ~                                 ",
"            S._ S.~.~.~.~.~.~.~.~.~.~.~.~.B.m.m.m.m.v.x.x.x.x.x.x.x.x.x.x.x.x.x.v.m.m.m.m.  ~ ~                                 ",
"            S._ G.~.~.~.~.~.~.~.~.~.~.~.~.m.m.v.x.x.x.x.x.x.f.f.f.f.f.f.f.x.x.x.x.x.x.v.m.  ~ ~                                 ",
"            S._ G.~.~.~.~.~.~.~.~.~.~.~.~.x.x.x.x.x.f.f.f.s.s.s.s.s.s.s.s.s.f.f.f.x.x.x.x.  ~ ~                                 ",
"            V._ S.~.~.~.~.~.~.~.~.~.~.~.~.x.x.f.f.s.s.s.s.y.y.y.y.y.y.y.y.y.s.s.s.s.f.f.x.  ~ ~                                 ",
"            S._ G.~.~.~.~.~.~.~.~.~.~.~.~.f.f.s.s.y.y.e.e.e.9.9.9.9.9.9.9.e.e.e.y.y.s.s.f.  ~ ~                                 ",
"            S._ G.~.~.~.~.~.~.~.~.~.~.~.~.s.s.y.e.e.9.9.9.9.9.9.9.9.9.9.9.9.9.9.9.e.e.y.s.  ~ ~                                 ",
"            V._ S.~.~.~.~.~.~.~.~.~.~.~.~.y.e.9.9.9.9.9.5.2.2.2.2.2.2.2.2.2.4.9.9.9.9.9.e.  ~ ~                                 ",
"            S._ G.~.~.~.~.~.~.~.~.~.~.~.~.e.9.9.9.4.2.2.2.2.2.2.2.2.2.2.2.2.2.2.2.4.9.9.9.  ~ ~                                 ",
"            S._ G.~.~.~.~.~.~.~.~.~.~.~.~.9.9.2.2.2.2.=.%.%.%.O.O.O.O.O.%.%.%.=.2.2.2.2.9.  ~ ~                                 ",
"            V._ S.~.~.~.~.~.~.~.~.~.~.~.~.5.2.2.2.%.%.O.O.O.o.{ { { { { o.O.O.O.%.%.2.2.2.  ~ ~                                 ",
"            S._ G.~.~.~.~.~.~.~.~.~.~.~.~.2.2.%.%.O.O.{ { { { { { { { { { { { { O.O.%.%.2.  ~ ~                                 ",
"            S._ G.~.~.~.~.~.~.~.~.~.~.~.~.2.%.O.O.{ { { ] Q Q Q Q Q Q Q Q Q ] { { { O.O.%.  ~ ~                                 ",
"            V._ S.~.~.~.~.~.~.~.~.~.~.~.~.%.O.{ { { ] Q Q Q Q I I I I I Q Q Q Q ] { { { O.  ~ ~                                 ",
"            S._ G.~.~.~.~.~.~.~.~.~.~.~.~.O.{ { ] Q Q I K K G G G G G G G K K I Q Q ] { {   ~ ~                                 ",
"            S._ G.~.~.~.~.~.~.~.~.~.~.~.~.{ { Q Q Q K G G Z Z C C C C C Z Z G G K Q Q Q {   ~ ~                                 ",
"            S._ S.~.~.~.~.~.~.~.~.~.~.~.~.{ Q Q I G G Z C C C n n n n n C C C Z G G I Q Q   ~ ~                                 ",
"            S._ G.~.~.~.~.~.~.~.~.~.~.~.~.Q Q I G Z C C n n z z z z z z z n n C C Z G I Q   ~ ~                                 ",
"            S._ G.~.~.~.~.~.~.~.~.~.~.~.~.Q I G Z C m n z z k k k k k k k z z n n C Z G I   ~ ~                                 ",
"            S._ S.~.~.~.~.~.~.~.~.~.~.~.~.I G Z C n z z k s p p w w w p p s k z z n C Z G   ~ ~                                 ",
"            S._ G.~.~.~.~.~.~.~.~.~.~.~.~.K Z C n z k k p w w w w w w w w w p k k z n C Z   ~ ~                                 ",
"            S._ G.~.~.~.~.~.~.~.~.~.~.~.~.G C C z z k p w w 9 6 2 2 2 6 9 w w p k z z C C   ~ ~                                 ",
"            S._ S.~.~.~.~.~.~.~.~.~.~.~.~.Z C n z k p w 9 6 2 2 2 2 2 2 2 2 9 w p k z n C   ~ ~                                 ",
"            S._ G.~.~.~.~.~.~.~.~.~.~.~.~.C m z k p w w 2 2 2 < - - - < 2 2 2 w w p k z m   ~ ~                                 ",
"            S._ G.~._.'.~.~.~.~.~.~.~.~.~.C n z k p w 9 2 < - - % % % - - < 2 9 w p k z n   ~ ~                                 ",
"            V._ S.(.[.}.'.~.~.~.~.~.~.~.~.C n k p w 9 2 2 - - % $ # $ % - - 2 2 9 w p k n   ~ ~                                 ",
"            S._ G.^.].{.`.~.~.~.~.~.~.~.~.C z k p w 9 2 < - % # # # # # % - < 2 9 w p k z   ~ ~                                 ",
"            S._ G.~.^.(.~.~.~.~.~.~.~.~.~.C z k p w 9 2 - - % # # # # # % - - 2 6 w p k z   ~ ~                                 ",
"            V._ S.~.~.~.~.~.~.~.~.~.~.~.~.C z k p w 6 2 - - % # # # # # % - - 2 6 w p k z   ~ ~                                 ",
"            S._ G.~.~.~.~.~.~.~.~.~.~.~.~.C z k p w 9 2 < - % # # # # # % - < 2 9 w p k z   ~ ~                                 ",
"            S._ G.~.~.~.~.~.~.~.~.~.~.~.~.C z k p w 9 2 2 - % % # # # # % - 2 2 9 w p k z   ~ ~                                 ",
"            V._ S.~.~.~.~.~.~.~.~.~.~.~.~.C n z k w w 2 2 < - - % $ $ - - < 2 2 w w k z n   ~ ~                                 ",
"            S._ G.~.~.~.~.~.~.~.~.~.~.~.~.C n z k p w 9 2 2 < - - - - - < 2 2 9 w p k z n   ~ ~                                 ",
"            S._ G.~.~.~.~.~.~.~.~.~.~.~.~.Z C n z k w w 9 2 2 2 < < < 2 2 2 9 w w k z n C   ~ ~                                 ",
"            V._ S.~.~.~.~.~.~.~.~.~.~.~.~.G C n z k p w w 9 6 2 2 2 2 2 6 9 w w p k z n C   ~ ~                                 ",
"            S._ G.~.~.~.~.~.~.~.~.~.~.~.~.G Z C n z k p p w w w 9 9 9 9 w w p p k z n C Z   ~ ~                                 ",
"            S._ G.~.~.~.~.~.~.~.~.~.~.~.~.I G Z C n z k k p p w w w w w p p k k z n C Z G   ~ ~                                 ",
"            S._ S.~.~.~.~.~.~.~.~.~.~.~.~.Q K G Z C n z z k k s p p p s k k z z n C Z G K   ~ ~                                 ",
"            S._ G.~.~.~.~.~.~.~.~.~.~.~.~.Q Q K G Z C n n z z z k k k z z z n n C Z G K Q   ~ ~                                 ",
"            S._ G.~.~.~.~.~.~.~.~.~.~.~.~.{ Q Q K G Z C C C n n n n n n n C C C Z G K Q Q   ~ ~                                 ",
"            S._ S.~.~.~.~.~.~.~.~.~.~.~.~.{ { Q Q I G G Z Z C C C C C C C Z Z G G I Q Q {   ~ ~                                 ",
"            S._ G.~.~.~.~.~.~.~.~.~.~.~.~.o.{ { Q Q Q I G G G Z Z Z Z Z G G G I Q Q Q { {   ~ ~                                 ",
"            S._ G.~.~.~.~.~.~.~.~.~.~.~.~.O.O.{ { ] Q Q Q I I K K K K K I I Q Q Q ] { { O.  ~ ~                                 ",
"            S._ S.~.~.~.~.~.~.~.~.~.~.~.~.%.%.O.{ { { ] Q Q Q Q Q Q Q Q Q Q Q ] { { { O.%.  ~ ~                                 ",
"            S._ G.~.~.~.~.~.~.~.~.~.~.~.~.2.2.%.O.O.{ { { { { ] ] ] ] ] { { { { { O.O.%.2.  ~ ~                                 ",
"            ' _ G.~.~.~.~.~.~.~.~.~.~.~.~.2.2.2.%.%.O.O.O.{ { { { { { { { { O.O.O.%.%.2.2.  ~ ~                                 ",
"            V._ S.~.~.~.~.~.~.~.~.~.~.~.~.9.5.2.2.2.=.%.%.O.O.O.O.O.O.O.O.O.%.%.=.2.2.2.5.  ~ ~                                 ",
"            S._ G.~.~.~.~.~.~.~.~.~.~.~.~.9.9.9.5.2.2.2.2.2.=.%.%.%.%.%.=.2.2.2.2.2.5.9.9.  ~ ~                                 ",
"            S._ G.~.~.~.~.~.~.~.~.~.~.~.~.y.e.9.9.9.5.2.2.2.2.2.2.2.2.2.2.2.2.2.5.9.9.9.e.  ~ ~                                 ",
"            V._ S.~.~.~.~.~.~.~.~.~.~.~.~.s.y.y.e.9.9.9.9.9.9.5.5.5.5.5.9.9.9.9.9.9.e.y.y.  ~ ~                                 ",
"            S._ G.~.~.~.~.~.~.~.~.~.~.~.~.f.s.s.y.y.e.e.9.9.9.9.9.9.9.9.9.9.9.e.e.y.y.s.s.  ~ ~                                 ",
"            S._ G.~.~.~.~.~.~.~.~.~.~.~.~.x.f.f.s.s.s.y.y.y.e.e.e.e.e.e.e.y.y.y.s.s.s.f.f.  ~ ~                                 ",
"            V._ S.~.~.~.~.~.~.~.~.~.~.~.~.x.x.x.f.f.f.s.s.s.s.s.s.s.s.s.s.s.s.s.f.f.f.x.x.  ~ ~                                 ",
"            S._ G.~.~.~.~.~.~.~.~.~.~.~.~.m.v.x.x.x.x.x.f.f.f.f.f.f.f.f.f.f.f.x.x.x.x.x.v.  ~ ~                                 ",
"            S._ S.E.E.T.E.E.T.E.E.T.E.E.T.m.m.m.m.x.x.x.x.x.x.x.x.x.x.x.x.x.x.x.x.x.m.m.m.  ~ ~                                 ",
"            _ ~ _ S.S.V.' S.V.S.S.V.S.S._ _ ~ ~ ~ ~ ~ ~ ~ ~ ~ ~ ~ ~ ~ ~ ~ ~ ~ ~ ~ ~ ~ ~ ~ ~ ~ ~                                 ",
"            _ ~ _ _ _ _ _ _ _ _ _ _ _ _ _ ~ ~ ~ ~ ~ ~ ~ ~ ~ ~ ~ ~ ~ ~ ~ ~ ~ ~ ~ ~ ~ ~ ~ ~ ~ ~ ~                                 "
};
