/* XPM */
static char *result[] = {
/* columns rows colors chars-per-pixel */
"64 64 15 1 ",
"  c gray44",
". c #717171",
"X c gray47",
"o c #797979",
"O c #808080",
"+ c gray55",
"@ c gray60",
"# c #818181",
"$ c #8B8B8B",
"% c #989898",
"& c gray48",
"* c #727272",
"= c gray51",
"- c #979797",
"; c gray54",
/* pixels */
"       .XXXXXXXo.           XXXo.   XXXoOOOOXXXXXXXXOOOOOOOOXXXX",
"       .oXXXXXXo.           XXXo.   XXXoOOOOXXXXXXXXOOOOOOOOXXXX",
"       .oXXXXXXo.           XXXo.   XXXoOOOOXXXXXXXXOOOOOOOOXXXX",
"        oXXXXXXo            XXXo.   XXXoOOOOXXXXXXXXOOOOOOOOXXXX",
"++++@@@@@@@@@@@@++++#OOOOOOOOOO#oXXXOOO#+++++++$#OOOOOO#+$$$@@@@",
"$$$$@@@@@@@@@@@@+$$$OOOOOOOOOOO#oXXXOOO#$$$$$$$$#OOOOOO#+$$$@@@@",
"$$$$@@@@@@@@@@@@+$$$OOOOOOOOOOO#oXXXOOO#$$$$$$$$#OOOOOO#+$$$@@@@",
"++++%%%%%%%%@@@%+$$$####OOOOOOOOoXXXOOOO$$$$+++$#OOOOOO#$++$%%%%",
"ooooooo&####++++$$$$$$$$&ooo.... ...oooX...*o&&oOOOOOOO#oooo&&&&",
"XXXXXXXoOOOO$$$$$$$$$$$+&XXX        XXXo.   XXXoOOOOOOOOoXXXXXXX",
"XXXXXXXoOOOO$$$$$$$$$$$+&XXX        XXXo.   XXXoOOOOOOOOoXXXXXXX",
"XXXXXXXoOOOO$$$$$$$$$$$+oooo .......oXXX    XXXoOOOOOOOOoXXXXXXX",
"OOOO++++++++@@@@@@@@$$$+@@@@@@@@@@@@@@@@++++@@@@@@@@OOOOOOOO++++",
"OOOO$$$$$$$$@@@@@@@@$$$+@@@@@@@@@@@@@@@@+$$$@@@@@@@@OOOOOOOO$$$$",
"OOOO$$$$$$$$@@@@@@@@$$$+@@@@@@@@@@@@@@@@+$$$@@@@@@@@OOOOOOOO$$$$",
"#OOO+++++++$@@@@@@@@$$$+%@@@@@@@@@@@@@@%+$$$%%%%%%%%OOOOOOOO$$$$",
"....oooooooo++++++++$$$$++++++++@@@@++++$$$$####&oooooooOOOO####",
"    XXXXXXXo+$$$$$$$$$$$$$$$$$$+@@@@$$$$$$$$OOOOoXXXXXXoOOOOOOOO",
"    XXXXXXXo+$$$$$$$$$$$$$$$$$$+@@@@$$$$$$$$OOOOoXXXXXXoOOOOOOOO",
"    XXXXXXXo+$$$$$$$$$$$$$$$$$$+@@@@$+++++++OOOOoXXXXXXo########",
"    XXXo$+++$$$+#OOO$$$$$$$$OOOOoXXXXXXXXXXXXXXX.               ",
"    XXXo+$$$$$$+#OOO$$$$$$$$OOOOoXXXXXXXXXXXXXXX.               ",
"    XXXo+$$$$$$+#OOO$$$$$$$$OOOOoXXXXXXXXXXXXXXX.               ",
"    oooo$++++++$#OOO$$$$$$$$OOOOoXXoXXXXXXXXXXXX............ ...",
"    ....ooooooo&#OOO########OOOOOOO#XXXo.......*O###$$$$$$$$XXXX",
"       .XXXXXXXoOOOOOOOOOOOOOOOOOOOOXXXo.      .#OOO$$$$$$$+XXXX",
"       .XXXXXXXoOOOOOOOOOOOOOOOOOOOOXXXo.      .#OOO$$$$$$$+XXXX",
"       .XXXXXXXoOOOOOOOOOOOOOOOOOOOOXXXX       .OOOO$$$$$$$+XXXX",
"@@@@@@@@@@@@@@@%++++@@@%=OOOXXXo$$$$@@@@++++@@@@@@@@@@@@+$$$++++",
"@@@@@@@@@@@@@@@%+$$$@@@%#OOOXXX&+$$$@@@@+$$$@@@@@@@@@@@@+$$$$$$$",
"@@@@@@@@@@@@@@@%+$$$@@@%=OOOXXXo+$$$@@@@+$$$@@@@@@@@@@@@+$$$$$$$",
"@@@@@@@@%%%%%%%%$+++%%%%=###ooo&+$$$@@@%+$$$%%%@%%%%%%%-++++++++",
"+++++++$=##=oooooooo&&&&$$$$++++$$$$++++$$$$+++$&&&&****O#######",
"$$$$$$$+#OOOXXXXXXXXXXXo+$$$$$$$$$$$$$$$$$$$$$$+&XXX   .#OOOOOOO",
"$$$$$$$+#OOOXXXXXXXXXXXo+$$$$$$$$$$$$$$$$$$$$$$+oXXX   .#OOOOOOO",
"+++++++$#OOOXXXXXXXXXXXo+$$$$$$$$$$$$$$$++++++++oXXX   .O#######",
".   XXXoOOOOXXXoOOOO++++$$$$OOOOOOOOOOOOoXXX                    ",
"    XXXoOOOOXXXoOOOO$$$$$$$$OOOOOOOOOOOOoXXX                    ",
"    XXXoOOOOXXXoOOOO$$$$$$$$OOOOOOOOOOOOoXXX                    ",
"....&&&&#===&&&o#===$$$$++++############oooo............ .......",
"$$$$%%%%@@@@%%%%%@@@$$$+%@@@$++++++++++$OOOOXXXo$$$$$$$;oXXXOOOO",
"$$$$@@@@@@@@@@@@@@@@$$$+@@@@$$$$$$$$$$$$#OOOXXX&+$$$$$$$&XXXOOOO",
"$$$$@@@@@@@@@@@@@@@@$$$+@@@@$$$$$$$$$$$$#OOOXXX&+$$$$$$$&XXXOOOO",
"$$$$@@@@@@@@@@@@@@@@$$$+@@@@$$$$$$$$+++$###OXXXo++++$$$$&XXXOOOO",
"OOOO$$$$$$$$OOOOoXXX+$$$$$$$$$$+#OOOXXXX.      .XXXXOOOOOOOOOOOO",
"OOOO$$$$$$$$OOOOoXXX+$$$$$$$$$$+#OOOXXXX.      .oXXXOOOOOOOOOOOO",
"OOOO$$$$$$$$OOOOoXXX+$$$$$$$$$$+#OOOXXXX.      .oXXXOOOOOOOOOOOO",
"OOOO++++$$$$####XXXX$$$$$++++++$#OOOoooo........ooooOOOOOOOOOOOO",
"ooooooo&+$$$$$$$.   *..*oooooooo#OOO###OXXXXXXXoO###OOOOOOOOXooo",
"XXXXXXX&+$$$$$$$*      .XXXXXXXoOOOOOOOOoXXXXXXoOOOOOOOOOOOOXXXX",
"XXXXXXX&+$$$$$$$*      .XXXXXXXoOOOOOOOOoXXXXXXoOOOOOOOOOOOOXXXX",
"XXXXXXX&+++++++$*      .XXXXXXXoOOOOOOOOoXXXXXXoOOOOOOOOOOOOXXXX",
"OOOOOOO#oXXXXXXX.           XXXo+$$$$$$$++++++++++++++++++++++++",
"OOOOOOO#oXXXXXXX.           XXXo+$$$$$$$$$$$$$$$$$$$$$$$$$$$$$$$",
"OOOOOOO#oXXXXXXX.           XXXo+$$$$$$$$$$$$$$$$$$$$$$$$$$$$$$$",
"########ooooXXXX............ooo&++++$$$$$$$$++++++++++++$$$$++++",
"%%%%%%%%++++XXXXoXXXXXXXOOOO+$$$%@@@$$$$$$$$@@@@@@@@@@@%+$$$@@@@",
"@@@@@@@@+$$+XXXXXXXXXXXoOOOO$$$+@@@@$$$$$$$$@@@@@@@@@@@@+$$$@@@@",
"@@@@@@@@+$$+XXXXXXXXXXXoOOOO$$$+@@@@$$$$$$$$@@@@@@@@@@@@+$$$@@@@",
"@@@@@@@@++++XXXXXXXXXXXoOOOO$$$+@@@@$$$$$$$$@@@@@@@@@@@@+$$$@@@@",
"@@@@$$$+oXXXOOO#oXXXOOO#$$$$$$$$$$$$$$$+#OOOOOOOXXXXXXXo$$$$$$$$",
"@@@@$$$+&XXXOOO#oXXXOOO#$$$$$$$$$$$$$$$+#OOOOOOOoXXXXXXo$$$$$$$$",
"@@@@$$$+&XXXOOO#oXXXOOO#$$$$$$$$$$$$$$$+#OOOOOOOoXXXXXXo$$$$$$$$",
"@@@@$$$+&XXXOOO#oXXXOOO#$$$$$$$$$$$$$$$+#OOOOOOOoXXXXXXo$$$$$$$$"
};
