/* XPM */
static char *bda605f6e6c0452beed013b6a6eeb4a6ZPiIeEDuPVpZZTVB[] = {
/* columns rows colors chars-per-pixel */
"64 64 159 2 ",
"   c #1A162E",
".  c #17192E",
"X  c #1A182F",
"o  c #1B1630",
"O  c #171830",
"+  c #1D1B32",
"@  c #211E35",
"#  c #221E38",
"$  c #1F2035",
"%  c #232236",
"&  c #292537",
"*  c #272937",
"=  c #282937",
"-  c #252539",
";  c #29263A",
":  c #272839",
">  c #2B2B3C",
",  c #312C3D",
"<  c #2F313E",
"1  c #34313E",
"2  c #39323F",
"3  c #2B2740",
"4  c #2D2B43",
"5  c #312F46",
"6  c #322E48",
"7  c #2F3442",
"8  c #333244",
"9  c #393442",
"0  c #373C47",
"q  c #3B3B46",
"w  c #36354C",
"e  c #39374D",
"r  c #37394C",
"t  c #393A4D",
"y  c #3A3750",
"u  c #373850",
"i  c #3E3C51",
"p  c #423A46",
"a  c #423D4D",
"s  c #423E52",
"d  c #3D434C",
"f  c #3F494F",
"g  c #3F4951",
"h  c #42434E",
"j  c #4A444B",
"k  c #42494F",
"l  c #444253",
"z  c #494554",
"x  c #434B51",
"c  c #4D4B56",
"v  c #4D4A58",
"b  c #514B57",
"n  c #534D5A",
"m  c #475255",
"M  c #4A5355",
"N  c #4F5A57",
"B  c #4C5559",
"V  c #4E5A5A",
"C  c #505355",
"Z  c #5C5556",
"A  c #525A57",
"S  c #55505B",
"D  c #5A565C",
"F  c #545D5C",
"G  c #585E5C",
"H  c #645D5D",
"J  c #685E5A",
"K  c #57605C",
"L  c #5C635F",
"P  c #65615D",
"I  c #69645D",
"U  c #72695F",
"Y  c #645C60",
"T  c #5B6161",
"R  c #5C6361",
"E  c #5E6460",
"W  c #5F6460",
"Q  c #5F6560",
"!  c #5E6461",
"~  c #5F6461",
"^  c #5F6461",
"/  c #606560",
"(  c #626560",
")  c #626561",
"_  c #6B6163",
"`  c #686362",
"'  c #6D6762",
"]  c #6D6664",
"[  c #6B6563",
"{  c #656864",
"}  c #6E6963",
"|  c #6E6A68",
" . c #706863",
".. c #766963",
"X. c #736C61",
"o. c #726964",
"O. c #706A65",
"+. c #716B65",
"@. c #736C65",
"#. c #736A64",
"$. c #736968",
"%. c #736E68",
"&. c #756E6B",
"*. c #736E6A",
"=. c #7A6F6B",
"-. c #767166",
";. c #767067",
":. c #757167",
">. c #7A7067",
",. c #777068",
"<. c #75726B",
"1. c #787169",
"2. c #7B7069",
"3. c #7B7169",
"4. c #797269",
"5. c #7A716B",
"6. c #79726A",
"7. c #7A726B",
"8. c #7B746B",
"9. c #7A716C",
"0. c #7A706C",
"q. c #7A736D",
"w. c #79766C",
"e. c #7A726C",
"r. c #7F796E",
"t. c #7E796E",
"y. c #7F7A6E",
"u. c #7F7A6E",
"i. c #7F7770",
"p. c #7F7A71",
"a. c #807768",
"s. c #85766F",
"d. c #80766B",
"f. c #82786A",
"g. c #80796E",
"h. c #81796E",
"j. c #82796F",
"k. c #807A6E",
"l. c #807A6F",
"z. c #817A6E",
"x. c #827971",
"c. c #817A70",
"v. c #877F72",
"b. c #847D72",
"n. c #887F72",
"m. c #887F73",
"M. c #887F73",
"N. c #85816F",
"B. c #878072",
"V. c #868072",
"C. c #8F8476",
"Z. c #8D8375",
"A. c #8B8877",
"S. c #8D8679",
"D. c #918476",
"F. c #908477",
"G. c #908576",
"H. c #93837A",
"J. c #918678",
/* pixels */
"o o 9 F.F.Q V V V V ) s.&   @ e e e 5         o C.F.k.V V V V N H.2   + w e e e           +.F.F.V V V V V c...    5 e e e @     ",
"    @ 2 2 ' k.k.k.k.%.z 8 + + @ @ % +           2 2 j t.k.k.k.t.c w >   @ @ @ %           , 2 2 t.k.k.k.k.D z 5   @ @ @ % +     ",
"    + - o Z @.7.0.7.` e 5 + + - 9 9 >         o ; + > +.7.0.7.7.e 8 3 X - 1 9 9           - %   +.<.0.7.7.z e 5   - > 9 9 @     ",
"  @ > m > + # w e e e 5 + + > V n.n. .& + X + % V 8 % + 5 w e e w @ X - m w.n.B.; + X X @ k x & X 4 w e e w 4   + x ~ n.v.p % X ",
"o d M F 8.5 o + e e 5 + o d M V G G ) X.% X - m V ;.P X + 8 e e + o - m V G G G d.1   + k B T f.  + - e e % + X m V A G G ;.P o ",
"  P t.0.S w 3 X @ @ + + d M V V V V F F %   8 c.c.D z 4 + + @ @   t x V V V V V L >   - %.k.&.c 5 @ + @ @ o % x V V V V V K M   ",
"  H 0.$.s e 5 X   % % + d B V V Q Q K x @ o 5 7.7.z e w + X + ; o 0 x V V K Q Q m - o - ] 7.` e e % X + - + % x V V F Q Q B d   ",
"  5 e e e e 5 X X x x     k V V F.F.0.w +   @ e e e e w + X : F .   * V A c.F.J.e @ X + w e w e e % X @ M :     V V ) F.J.c 4   ",
"    @ e e @   X N V V m @   9 F.e e e w +     o e e 5     k V V V &   ; k.c e e e @       5 w e     : V V V x   o  .7.e e e 5   ",
"    + @ @ o % x V V V F ' , @ 9 e e 8 @ X       @ @ + + d B V V V ) Z @ , w r e @ +       @ @ @   0 x V V V G  .X > 9 e e ; @   ",
"      X - : 8 F V V F ) <.9 + X e 8 3 + - +       % : > M V V V ) %.H @   8 w 5   % %       + : : x V V V K { 0.% X % e 8 @ + : ",
"@ @ + + x F G G G G ) 8.s e 5   w @ o - m > @ @   d B G G G G G b.z e 8 + 4 4   % x x @ % + - m G G G G G <.+.e e @ @ 5 + + > V ",
"m m d o @ ' n.n.n.B.<.l t e 5   + + - m V M m m o + 9 B.m.m.n.B.s e e w + + +   m V V m m - + @ B.B.B.B.B.n s t e @ o +   d M V ",
"V V B d + , 9 2 c c z e e ; @       : V V V V V x - @ 9 9 z c c e e 8 @ X       F V V V V x 0   9 9 q c c i e e % o       x V V ",
"V V A M q ; @ X 4 e e e 8 @ + ; ; + % k V V V V A q , @ X > 8 w e 8 3 + - ; %   k B V V V A M 9 % + @ 5 w e e 8 X - ; - o 0 x V ",
"V V V G B.v 5 X   5 e w +   : V V ;   @ m V V V V t.0.8 +   % e e @   % m V k     k V V V V L C.e @   + w e 5     x V m @   : A ",
"V V V G v.c e e         X f V V V p.+.  X k V V V u.7.e e @         : V V V Q S.    : V V V L C.e e 4         X V V V G V.9   X ",
"k.c.k.<.n i 8 %       + d B V A t.Z.7.4 + P t.t.t.D z w - o       0 x V V ;.z.F.5 @ 1 t.t.t.&.v e ; +       % k V V L k.C.z 4   ",
"+.<.0.| w 5 3   ; +   @ m K Q Q 0.7.[ w + Z @.0.7.h 5 4 o % %     x F Q Q %.7.7.e @ , +.7.7.( 5 4 + + - o   ; V Q Q { 0.7.z 5   ",
"  4 w 8 + @ @ @ V > @ @ x <.b.s.e e e w +   @ w 8 @ + @ @ x k @   d G b.b.c e e e @   + 5 8 4 o @ @ > m - X - M b.b.+.e e e 5   ",
"  + + +   d m m V M d X + t l l e e e w +     + +   - m m V V M X + : l l t e e e @     + + + o m m m V M - + @ l l s e e e 5   ",
"    >  . .G V V V V G P % + ; e e e 8 @ X     o  . .` V V V V A ' > + - w e e e @ o       Z  . .V V V V V ) Z   @ 8 e e e ; +   ",
"    , U ..) Q ) ) Q { ' > + @ 5 5 5 3         o U ..' Q Q ) Q Q >.9 @ + 4 5 5 5           Z ....Q Q Q Q Q @.H @   3 5 5 5 +     ",
"    o o   +.C.F.F.C.<.e e %       X X         o   o 9 C.F.F.F.S.w e 5         X           o o   C.C.F.F.C.v e e X       X       ",
"    - m % o # e r e e w + X : V C.C. .o       X V :   + w r e r e @   $ m p.C.C.o       X k x X X 5 e e e e 5   . x Q S.C.9 o   ",
"  0 x F ' , + @ e e 8 @   0 x V Q ) ) J %   % f V I Z o @ 8 e e @ o % x V K Q Q  .,   + d B G  .o @ ; e e ; @   x M F Q Q ' Z   ",
"  M Q ) <.9 +   4 4 > + - x V V V V K @.&   : Q ~ %.H @ X > 5 5   % 8 V V V V V t.2   % F ~ { 7.@ + + 5 5 + + : A V V V V <.P   ",
"  ` b.8.s e 5     + + @ x V V V K G F x + o 9 c.s.c e w +   X @   d M A V G G G B -   - &.s.$.e e @     @ o - m V V A G G V d   ",
"  w l l e e 5     d d X @ x V A V.B.&.w +   % s l e e w +   - M   + > V V w.B.B.e @   @ t l t e e %   @ x - X % V V Q B.B.c 8   ",
"  @ ; e e - +   k B B d @ % q k.v b z w +   + # e e 8 + X 0 x F k % + 8 <.D v v e @   X @ 8 w e @ o % k B x 0   ; ` %.b b t 5   ",
"    + 5 5 @ + ; V V V M 9 @ , +.y e e 4 +       4 5 3 X - x V A F q , % H z e e 5 +       > 5 5   % 8 V V V M 2   Z Y e e 8 3   ",
"        X X : V V V V G V.9     e e 5   X       X X X % m V V V A p.+.    5 e e X X X         X X k V V V A L A.o   @ e e %   X ",
"      % m B V V V V ) b.s e 4 X e % X % m -       k B V V V V A S.b e w + 5 8 X X k k       : V B V V V A p.0.e e # @ w + X : V ",
"x g 0 + - ` k.k.k.t.%.z e e 5 X % + - x V x x x o % q t.k.k.k.t.b i e w + @ @   k B B x k - + & t.k.k.k.t.D z e e % + @ o 0 x V ",
"V V x - X Z +.@.0.0.[ e e 8 3       : V V V V V : + , +.+.7.0.w.e e w 4 +     X F V V V V 8 -   +.+.@.0.0.z e w 5 @       x V V ",
"V V V m > @ + X 8 w e e w @ + @ @ + - m V V V V F 1 % + X 4 w e e w 4 o @ @ @   m V V V V A x & + X + w e r e w X + @ + X d M V ",
"V V V G 7.l 4 X + 8 e w @ + ; m m - X - m V V V V ;.] 8 + + - e e - + @ x m d   % x V V V V L g.w @ X @ w e 8 +   d m x @ + > V ",
"V V V G B.c e 5   @ @ @ X 0 x V V ` Z + - x V V V t.7.e 5 + + @ @ o % x B V G +.  - 8 V V V P C.e 8 3   @ @ + X k M V A ' , + : ",
") / L ) <.z e 5       o - x V V L v.@.@ X M ~ ~ L @.` e 8 +       - 8 V V K } J.@ + > ~ ~ ~ { 8.e 8 3       + * V V F ) B.q @   ",
"F.C.C.b.l e 5         @ m V V V F.F.0.w + +.C.F.C.v r w +         k A V V t.F.J.e @ 9 C.F.C.0.y e %         : A V V Q F.F.c 5 X ",
"o 8 e 9 +     X V :   @ m t.D.D.e e w 8 +   @ e e +       k k X   x Q C.C.c e e e @   + w e 5       - m %   : V D.Z.7.e e w 5   ",
"  @ @ @   0 k k N x 0 o - h v v e e e w +   + @ @ + % k x B B x X - < c v t e e e @     @ @ @   k k x V x - + - v c z e e e 5   ",
"    @ 2 2 m V V V V c 1 + > 8 e e e e 4 +     o 2 9 q V V V A F 2 @ + 8 w e e e 4 +       , 2 9 A V V V V q ,   5 e e e e 8 3   ",
"    , d.d.) G G G G ) @.; o @ 8 8 w 4         o r.d.;.K G G G G s.9 + + 5 8 8 8           J g.t.K G G G G w.` +   4 8 8 8 +     ",
"    + ; & ' v.B.B.B.<.s w @ X + + + +         o & & p v.B.B.v.B.s w 4   + + + +         o % ; ; v.n.v.B.B.n i 8   + + + + o     ",
"    % d + > q c c c z w - X % x +.+.Z o         x - @ 9 z c c c e ; + + d ( +.+.  X       0 0   9 z c c c t w % . 0 M  .+., o   ",
"  % 8 B 9 @ + 5 e w w 4 + % 7 V p.k.' 5 +   + * V q , o 4 w e e 5 @ + > m <.p.t.9 @ X + - x c 9 X > 8 e w 8 4   : x K k.t.j , X ",
"  k V G N.9 o   e e 4   X x V V V V Q f.;   ; V V p.+.o X 5 e e     : V V V V V G.9 X @ M V Q C.X X @ e e @   X F V V V V k...o ",
"  +.Z.s.l e 5         % m V V V V V V m @   9 S.F.b e w +         x V V V V V V V - X ; k.F.e.e e @         - V V V V V V V k X ",
"  a c z e e 5     0 0 X - x V A p.c.| t +   - v c i e w +   % x X % 7 V V <.c.p.d %   @ z c z e e @   @ d % + - V V L p.p.c 8   ",
"  4 8 r e 8 3   - x x - X 0 M Q e.e.[ 8 +   @ 5 e r e 4 + - 8 F * + % x K &.e.e.w @   + 4 e e e 8 @ + > M 8 %   k G { 0.e.z 4   ",
"    @ w w @ + % V V V M > + , g.e e e 5 o       w w 4 o @ k V V A 1 % & @.c e e w @       4 w w X @ > V V V x & o H ] e e w 4   ",
"    X + + o - m V V V G w.9 + - e e 8 + X       + + + @ x B V V V <.P + % w e e + X       + + + X d M V V V ~ k.o % > e e - +   ",
"      + d x x V V V K w.S w 3   e ; + @ d %       0 k x V V V N p.D z 4 + 5 8 % X 0 0       % k x M V V V ;.@.v 5 + % w - + % k ",
"; ; % + d G ) Q Q L ) | s e 5 X 8 + + > M 8 ; :   0 x ) ) Q Q L e.z e w + 4 3   : x x ; : + % k ) Q Q Q Q @.` e e % @ 4 + - 8 V ",
"V V x     +.F.J.J.J.0.e e e 5     X : V V V V V o   2 F.J.J.J.C.e e t w +   X X A V V V V :     F.F.J.J.S.v e w e @     X x V V ",
"V V V m % o o X w w e u e @       X : F V V V V F :   X   5 e e e e 5 X       X F V V V V V x     o @ e r e e e X       X x V V ",
"V V V F ' a 4 o @ 8 e e - + - x x - + > M V V V A I H 4 + + ; e e ; + @ d x 0   : x V V V V G +.8 @ + - w e 8 @   0 x d @ - 8 V ",
"V V V K B.c 8 @   4 5 4 + % 8 V V q , + d B V V V t.7.w - + @ 5 5 @ + > m V x 9   0 x V V V L C.e ; @ + 4 5 3   ; x V B 9 @ - x ",
"G G G L t.z e w o       + x V V G c.@.+ o x G G G 8.+.e w @       + > V V G ) J.+ o : G G G ) s.e w 4       o % V V A L B.9 +   ",
"n.v.v.i.z e 8 + X     @ k V V V n.F.0.5 + ' v.v.n.S i w @ X       d M V V 8.B.J.w @ 2 v.v.v.&.l e - o       - m V V Q B.F.c 4   ",
"9 z v z - @ @   k -   @ m <.c.t.c c z 8 + , q c c > @ @ X 0 0     x L k.t.D c c e @ @ 9 z c h # @ o % d +   ; A k.k.%.c c t 5   ",
"  4 5 4 + % : ; V 8 % + d [ 7.<.e e e w +   @ 4 4 @ + ; - x x : X 0 C =.7.z e e e @   + 4 4 >   ; : 8 M > + - k 7.7.` e e e 5   ",
"          x V V V V x X   6 e e e e e w +           : V V V V F .   # r e e e e e @           X A V V V F = X O e e e e e e 5   "
};
