/* XPM */
static char *result[] = {
/* columns rows colors chars-per-pixel */
"64 64 46 1 ",
"  c #131616",
". c #141515",
"X c #141616",
"o c #202222",
"O c #363838",
"+ c #373838",
"@ c #414242",
"# c #328125",
"$ c #328224",
"% c #328225",
"& c #3C8830",
"* c #4B9A3D",
"= c #4B9B3D",
"- c #4B9A3E",
"; c #4B9B3E",
": c #5BC62A",
"> c #5AC72A",
", c #5BC72A",
"< c #5AC62B",
"1 c #5BC62B",
"2 c #5AC72B",
"3 c #5BC72B",
"4 c #63C935",
"5 c #63CA35",
"6 c #63C936",
"7 c #63CA36",
"8 c #4D8943",
"9 c #509445",
"0 c #57984D",
"q c #54A047",
"w c #54A048",
"e c #65AF4F",
"r c #6BBC48",
"t c #63A757",
"y c #63A758",
"u c #71BC5B",
"i c #6CAD61",
"p c #7AB869",
"a c #6FC749",
"s c #6FC849",
"d c #73CE4A",
"f c #73CF4A",
"g c #74C358",
"h c #79D152",
"j c #7AD153",
"k c None",
/* pixels */
"kkkkkkkkkkkkkkkkkkkkkkkkkkkkkkkkkkkkkkkkkkkkkkkkkkkkkkkkkkkkkkkk",
"kkkkkkkkkkkkkkkkkkkkkkkkkkkkkkkkkkkkkkkkkkkkkkkkkkkkkkkkkkkkkkkk",
"kkkkkkkkkkkkkkkkkkkkkkkkkkkkkkkkkkkkkkkkkkkkkkkkkkkkkkkkkkkkkkkk",
"kkkkkkkkkkkkkkkkkkkkkkkkkkkkkkkkkkkkkkkkkkkkkkkkkkkkkkkkkkkkkkkk",
"kkkkkkkkkkkkkkkkkkkkkkkkkkkkkkkkkkkkkkkkkkkkkkkkkkkkkkkkkkkkkkkk",
"kkkkkkkkkkkkkkkkkkkkkkkkkkkkkkkkkkkkkkkkkkkkkkkkkkkkkkkkkkkkkkkk",
"kkkkkkkkkkkkkkkkkkkkkkkkkkkkkkkkkkkkkkkkkkkkkkkkkkkkkkkkkkkkkkkk",
"kkkkkkkkkkkkkkkkkkkkkkkkkkkkkkkkkkkkkkkkkkkkkkkkkkkkkkkkkkkkkkkk",
"kkkkkkkkkkkkkkkkkkkkkkkkkkkkkkkkkkkkkkkkkkkkkkkkkkkkkkkkkkkkkkkk",
"kkkkkkkkkkkkkkkkkkkkkkkkkkkkkkkkkkkkkkkkkkkkkkkkkkkkkkkkkkkkkkkk",
"kkkkkkkkkkkkkkkkkkkkkkkkkkkkkkkkkkkkkkkkkkkkkkkkkkkkkkkkkkkkkkkk",
"kkkkkkkkkkkkkkkkkkkkkkkkkkkkkkkkkkkkkkkkkkkkkkkkkkkkkkkkkkkkkkkk",
"kkkkkkkkkkkkkkkkkkkkkkkkkkkkkkkkkkkkkkkkkkkkkkkkkkkkkkkkkkkkkkkk",
"kkkkkkkkkkkkkkkkkkkkkkkkkkkkkkkkkkkkkkkkkkkkkkkkkkkkkkkkkkkkkkkk",
"kkkkkkkkkkkkkkkkkkkkkkkkkkkkkkkkkkkkkkkkkkkkkkkkkkkkkkkkkkkkkkkk",
"kkkkkkkkkkkkkkkkkkkkkkkkkkkkkkkkkkkkkkkkkkkkkkkkkkkkkkkkkkkkkkkk",
"kkkkkkkkkkkkkkkkkkkkkkkkkkkkkkkkkkkkkkkkkkkkkkkkkkkkkkkkkkkkkkkk",
"kkkkkkkkkkkkkkkkkkkkkkkkkkkkkkkkkkkkkkkkkkkkkkkkkkkkkkkkkkkkkkkk",
"kkkkkkkkkkkkkkkkkkkkkkkkkkkkkkkkkkkkkkkkkkkkkkkkkkkkkkkkkkkkkkkk",
"kkkkkkkkkkkkkkkkk%%%;;;;;w3:,3333333337%%%%%e33kkkkkkkkkkkkkkkkk",
"kkkkkkkkkkkkkkkkk%%%;;;;*q3333333332337%%%%%e22kkkkkkkkkkkkkkkkk",
"kkkkkkkkkkkkkkkkk%%$=;;==w31333,3333337%%%%%e33kkkkkkkkkkkkkkkkk",
"kkkkkkkkkkkkkkkkk##%#%%;;w;;;;;;333%$%&#%333h33kkkkkkkkkkkkkkkkk",
"kkkkkkkkkkkkkkkkk#%%%%%;;w-;;;;;333$%%&%%123h11kkkkkkkkkkkkkkkkk",
"kkkkkkkkkkkkkkkkk333333XXoXXX;;;;;;XXXoXX333h33kkkkkkkkkkkkkkkkk",
"kkkkkkkkkkkkkkkkk333333XXoXXX;;--;;XXXoXX333h33kkkkkkkkkkkkkkkkk",
"kkkkkkkkkkkkkkkkk33,333XXo XX;;--;;XXXoXX333h33kkkkkkkkkkkkkkkkk",
"kkkkkkkkkkkkkkkkk233333XXoXXX-;--;;XXXoXX322h2>kkkkkkkkkkkkkkkkk",
"kkkkkkkkkkkkkkkkk%%%331X.oXXX333%%%XXXoXX33,g;;kkkkkkkkkkkkkkkkk",
"kkkkkkkkkkkkkkkkk%%%331XXoXXX13<%%%XXXoXX32<g;;kkkkkkkkkkkkkkkkk",
"kkkkkkkkkkkkkkkkk%%%313XXoXXX333%%%XXXoXX331g;;kkkkkkkkkkkkkkkkk",
"kkkkkkkkkkkkkkkkk%%%,33337333XXXXXX333631;;;i;;kkkkkkkkkkkkkkkkk",
"kkkkkkkkkkkkkkkkk%$%:3<335333XXXXXX333633;-;i;;kkkkkkkkkkkkkkkkk",
"kkkkkkkkkkkkkkkkk%%%313337333XXXXXX33373,;;;i;;kkkkkkkkkkkkkkkkk",
"kkkkkkkkkkkkkkkkk233%%%%%&XXXXXXXXXXXXo;;;;;u2>kkkkkkkkkkkkkkkkk",
"kkkkkkkkkkkkkkkkk333%%%%%&XXXXXXXXXXXXo;;-;;u32kkkkkkkkkkkkkkkkk",
"kkkkkkkkkkkkkkkkk233%%%%%&XXXXXXXXXXXXo;;;;;u2>kkkkkkkkkkkkkkkkk",
"kkkkkkkkkkkkkkkkk333%%%217XXXXXXXXXXXXo22%%%0%%kkkkkkkkkkkkkkkkk",
"kkkkkkkkkkkkkkkkk>33%%%116XXXXXXXXXXXXo33%%%0%%kkkkkkkkkkkkkkkkk",
"kkkkkkkkkkkkkkkkk3:3$%%317.XXXXXXXXXX.o,>%%%0%%kkkkkkkkkkkkkkkkk",
"kkkkkkkkkkkkkkkkkfdfytyddjO++888rrr+O+@ff999psakkkkkkkkkkkkkkkkk",
"kkkkkkkkkkkkkkkkk333;;;317XXX%%%333XXXo,3%%%e,>kkkkkkkkkkkkkkkkk",
"kkkkkkkkkkkkkkkkk333;;;237XXX%%%333XXXo33%%%e32kkkkkkkkkkkkkkkkk",
"kkkkkkkkkkkkkkkkk;;;;;;317%###%#13232>4,3;;;i;;kkkkkkkkkkkkkkkkk",
"kkkkkkkkkkkkkkkkk;;;;;;217%%#%%%333223722;;;i;;kkkkkkkkkkkkkkkkk",
"kkkkkkkkkkkkkkkkk;;;;;;237%%%%%%333321733-;;i;;kkkkkkkkkkkkkkkkk",
"kkkkkkkkkkkkkkkkkkkkkkkkkkkkkkkkkkkkkkkkkkkkkkkkkkkkkkkkkkkkkkkk",
"kkkkkkkkkkkkkkkkkkkkkkkkkkkkkkkkkkkkkkkkkkkkkkkkkkkkkkkkkkkkkkkk",
"kkkkkkkkkkkkkkkkkkkkkkkkkkkkkkkkkkkkkkkkkkkkkkkkkkkkkkkkkkkkkkkk",
"kkkkkkkkkkkkkkkkkkkkkkkkkkkkkkkkkkkkkkkkkkkkkkkkkkkkkkkkkkkkkkkk",
"kkkkkkkkkkkkkkkkkkkkkkkkkkkkkkkkkkkkkkkkkkkkkkkkkkkkkkkkkkkkkkkk",
"kkkkkkkkkkkkkkkkkkkkkkkkkkkkkkkkkkkkkkkkkkkkkkkkkkkkkkkkkkkkkkkk",
"kkkkkkkkkkkkkkkkkkkkkkkkkkkkkkkkkkkkkkkkkkkkkkkkkkkkkkkkkkkkkkkk",
"kkkkkkkkkkkkkkkkkkkkkkkkkkkkkkkkkkkkkkkkkkkkkkkkkkkkkkkkkkkkkkkk",
"kkkkkkkkkkkkkkkkkkkkkkkkkkkkkkkkkkkkkkkkkkkkkkkkkkkkkkkkkkkkkkkk",
"kkkkkkkkkkkkkkkkkkkkkkkkkkkkkkkkkkkkkkkkkkkkkkkkkkkkkkkkkkkkkkkk",
"kkkkkkkkkkkkkkkkkkkkkkkkkkkkkkkkkkkkkkkkkkkkkkkkkkkkkkkkkkkkkkkk",
"kkkkkkkkkkkkkkkkkkkkkkkkkkkkkkkkkkkkkkkkkkkkkkkkkkkkkkkkkkkkkkkk",
"kkkkkkkkkkkkkkkkkkkkkkkkkkkkkkkkkkkkkkkkkkkkkkkkkkkkkkkkkkkkkkkk",
"kkkkkkkkkkkkkkkkkkkkkkkkkkkkkkkkkkkkkkkkkkkkkkkkkkkkkkkkkkkkkkkk",
"kkkkkkkkkkkkkkkkkkkkkkkkkkkkkkkkkkkkkkkkkkkkkkkkkkkkkkkkkkkkkkkk",
"kkkkkkkkkkkkkkkkkkkkkkkkkkkkkkkkkkkkkkkkkkkkkkkkkkkkkkkkkkkkkkkk",
"kkkkkkkkkkkkkkkkkkkkkkkkkkkkkkkkkkkkkkkkkkkkkkkkkkkkkkkkkkkkkkkk",
"kkkkkkkkkkkkkkkkkkkkkkkkkkkkkkkkkkkkkkkkkkkkkkkkkkkkkkkkkkkkkkkk"
};
