/* XPM */
static char *_f6683cfde2b45c1dec784e5ca3d257b8IqYJ7NgmUGKHkRx[] = {
/* columns rows colors chars-per-pixel */
"64 64 150 2 ",
"   c None",
".  c #FFCD00",
"X  c #FFCD00",
"o  c #FFCD00",
"O  c #FFCD00",
"+  c #FFCD00",
"@  c #FFCD00",
"#  c #FFCD00",
"$  c #FFCD00",
"%  c #FFCD00",
"&  c #FFCD00",
"*  c #FFCD00",
"=  c #FFCD00",
"-  c #FFCD00",
";  c #FFCD00",
":  c #FFCD00",
">  c #FFCD00",
",  c #FFCD00",
"<  c #FFCD00",
"1  c #FFCD00",
"2  c #FFCD00",
"3  c #FFCD00",
"4  c #FFCD00",
"5  c #FFCD00",
"6  c #FFCD00",
"7  c #FFCD00",
"8  c #FFCD00",
"9  c #FFCD00",
"0  c #FFCD00",
"q  c #FFCD00",
"w  c #FFCD00",
"e  c #FFCD00",
"r  c #FFCD00",
"t  c #FFCD00",
"y  c #FFCD00",
"u  c #FFCD00",
"i  c #FFCD00",
"p  c #FFCD00",
"a  c #FFCD00",
"s  c #FFCD00",
"d  c #FFCD00",
"f  c #FFCD00",
"g  c #FFCD00",
"h  c #FFCD00",
"j  c #FFCD00",
"k  c #FFCD00",
"l  c #FFCD00",
"z  c #FFCD00",
"x  c #FFCD00",
"c  c #FFCD00",
"v  c #FFCD00",
"b  c #FFCD00",
"n  c #FFCD00",
"m  c #FFCD00",
"M  c #FFCD00",
"N  c #FFCD00",
"B  c #FFCD00",
"V  c #FFCD00",
"C  c #FFCD00",
"Z  c #FFCD00",
"A  c #FFCD00",
"S  c #FFCD00",
"D  c #FFCD00",
"F  c #FFCD00",
"G  c #FFCD00",
"H  c #FFCD00",
"J  c #FFCD00",
"K  c #FFCD00",
"L  c #FFCD00",
"P  c #FFCD00",
"I  c #FFCD00",
"U  c #FFCD00",
"Y  c #FFCD00",
"T  c #FFCD00",
"R  c #FFCD00",
"E  c #FFCD00",
"W  c #FFCD00",
"Q  c #FFCD00",
"!  c #FFCD00",
"~  c #FFCD00",
"^  c #FFCD00",
"/  c #FFCD00",
"(  c #FFCD00",
")  c #FFCD00",
"_  c #FFCD00",
"`  c #FFCD00",
"'  c #FFCD00",
"]  c #FFCD00",
"[  c #FFCD00",
"{  c #FFCD00",
"}  c #FFCD00",
"|  c #FFCD00",
" . c #FFCD00",
".. c #FFCD00",
"X. c #FFCD00",
"o. c #FFCD00",
"O. c None",
"+. c #FFCD00",
"@. c #FFCD00",
"#. c #FFCD00",
"$. c #FFCD00",
"%. c #FFCD00",
"&. c #FFCD00",
"*. c #FFCD00",
"=. c #FFCD00",
"-. c #FFCD00",
";. c #FFCD00",
":. c #FFCD00",
">. c #FFCD00",
",. c #FFCD00",
"<. c #FFCD00",
"1. c #FFCD00",
"2. c #FFCD00",
"3. c #FFCD00",
"4. c #FFCD00",
"5. c #FFCD00",
"6. c #FFCD00",
"7. c #FFCD00",
"8. c #FFCD00",
"9. c #FFCD00",
"0. c #FFCD00",
"q. c #FFCD00",
"w. c #FFCD00",
"e. c #FFCD00",
"r. c #FFCD00",
"t. c #FFCD00",
"y. c #FFCD00",
"u. c #FFCD00",
"i. c #FFCD00",
"p. c #FFCD00",
"a. c #FFCD00",
"s. c #FFCD00",
"d. c #FFCD00",
"f. c #FFCD00",
"g. c #FFCD00",
"h. c #FFCD00",
"j. c #FFCD00",
"k. c #FFCD00",
"l. c #FFCD00",
"z. c #FFCD00",
"x. c #FFCD00",
"c. c #FFCD00",
"v. c #FFCD00",
"b. c #FFCD00",
"n. c #FFCD00",
"m. c #FFCD00",
"M. c #322E48",
"N. c #39384D",
"B. c #3B374D",
"V. c #38384D",
/* pixels */
"                                                                                                                                ",
"                                                                                                                                ",
"                                                                                                                                ",
"                                                                                                                                ",
"                                                                                                                                ",
"                                                                                                                                ",
"                                                                                                                                ",
"                                                                                                                                ",
"                                                                                                                                ",
"                                                                                                                                ",
"                                                                                                                                ",
"                                                                                                                                ",
"                                                            . X o O + @ # $ %                                                   ",
"                                                          & # * = - ; : > , < .                                                 ",
"                                                      1 2 3 - 4 5 o 6 7 8 9 0 q                                                 ",
"                                                    w e , : r t         y u i e                                                 ",
"                                                  p a i 4 s y             d f g                                                 ",
"                                                  h ; j k                 p l l                                                 ",
"                                                . z x c                   y l v                                                 ",
"                                                b 9 n m                   k : M                                                 ",
"                                                N B V                   C Z = u                                                 ",
"                                                A i S                 D F > G H                                                 ",
"                                                J K L               P I U Y T                                                   ",
"                                              . 4 R E             W Q - j !                                                     ",
"                                              ~ 9 ^           / ! ( = g )                                                       ",
"                                              _ x `     . ' ] z [ , O ~                                                         ",
"                                              { } | | M  .f i - 4 o C                                                           ",
"                                              ..i X.o.O.+.@.: | #.                                                              ",
"                                              $., { %.&.g 4 K - X.*.                                                            ",
"                                              =.-.;.      1 *.Z x * _                                                           ",
"                                              :.Y .           1 >.U v 7                                                         ",
"                                              :.Y               % ,.= + <.                                                      ",
"                                              X.R y               w 1.x 2.                                                      ",
"                                              ( 3.                  4.> 5.                                                      ",
"                                               .v                   X 0 &.                                                      ",
"                                              6.7.                  C R X.                                                      ",
"                                            / Y :.                  8.0 9.                                                      ",
"                                            1 0.X.                  q.= w.                                                      ",
"                                            C * e.                r.X.K t.                                                      ",
"                                            1 * e.                y.- ` p                                                       ",
"                                            1 0.:.              b 3.: u.                                                        ",
"                                            1 0.e.            i.p.i a /                                                         ",
"                                            1 * X.        . q a.- s.d.                                                          ",
"                                            1 0.X.    f.g.| -.- h.j.                                                            ",
"                                            1 3 * 5 k.l.z.i l.>.x.                                                              ",
"                                            % 0.c.= K v.s.q.i.                                                                  ",
"                                            y b.n.m.6 x.                                                                        ",
"                                                                                                                                ",
"                                                                                                                                ",
"                                                                                                                                ",
"                                                                                                                                ",
"                                                                                                                                ",
"                                                                                                                                ",
"                                                                                                                                ",
"                                                                                                                                ",
"                                                                                                                                ",
"                                                                                                                                ",
"                                                                                                                                ",
"                                                                                                                                ",
"                                                                                                                                ",
"                                                                                                                                ",
"                                                                                                                                ",
"                                                                                                                                ",
"                          M.N.B.V.                                                                                              "
};
