/* XPM */
static char *b1ef6a12340942ffba227cb1102d48degVo7ecrJEtUYOxSs[] = {
/* columns rows colors chars-per-pixel */
"64 64 220 2 ",
"   c None",
".  c #2F2819",
"X  c #1C1B23",
"o  c #201F27",
"O  c #1F202E",
"+  c #24252D",
"@  c #2A2528",
"#  c #322D25",
"$  c #322B29",
"%  c #353128",
"&  c #262630",
"*  c #292733",
"=  c #2B2A34",
"-  c #2E2C39",
";  c #252733",
":  c #312E3C",
">  c #362E30",
",  c #3D3432",
"<  c #33313C",
"1  c #363438",
"2  c #412B17",
"3  c #48361A",
"4  c #563818",
"5  c #50300D",
"6  c #6C3D0C",
"7  c #723E0B",
"8  c #673D15",
"9  c #483729",
"0  c #583B26",
"q  c #463836",
"w  c #553F35",
"e  c #633E22",
"r  c #5A451B",
"t  c #6B470B",
"y  c #7A4608",
"u  c #7D5309",
"i  c #684816",
"p  c #724B15",
"a  c #784918",
"s  c #775616",
"d  c #645017",
"f  c #574527",
"g  c #494136",
"h  c #564835",
"j  c #4B412F",
"k  c #664927",
"l  c #724B22",
"z  c #775622",
"x  c #6B5B36",
"c  c #694E30",
"v  c #78682A",
"b  c #7E6330",
"n  c #1E2B52",
"m  c #2A2D44",
"M  c #2D324B",
"N  c #363342",
"B  c #3A3545",
"V  c #3C3A44",
"C  c #3B3648",
"Z  c #3E394A",
"A  c #33344D",
"S  c #283259",
"D  c #393953",
"F  c #363A59",
"G  c #192E62",
"H  c #1B3470",
"J  c #2E3B64",
"K  c #283766",
"L  c #353D65",
"P  c #273B73",
"I  c #413B4D",
"U  c #453C45",
"Y  c #443D52",
"T  c #403E59",
"R  c #3F4146",
"E  c #3A455C",
"W  c #39436B",
"Q  c #314278",
"!  c #434344",
"~  c #45444A",
"^  c #4B4B4D",
"/  c #4C4743",
"(  c #574744",
")  c #535542",
"_  c #464154",
"`  c #4A4455",
"'  c #4C455B",
"]  c #4E495C",
"[  c #4A4855",
"{  c #524B5D",
"}  c #545455",
"|  c #56545B",
" . c #5C5C5C",
".. c #4F5355",
"X. c #635944",
"o. c #604B43",
"O. c #726A4F",
"+. c #444566",
"@. c #494868",
"#. c #534B63",
"$. c #564E69",
"%. c #5B536C",
"&. c #575469",
"*. c #4C5079",
"=. c #5D5776",
"-. c #615A6C",
";. c #615772",
":. c #645B75",
">. c #665D7A",
",. c #685E7A",
"<. c #6B627C",
"1. c #696475",
"2. c #736B77",
"3. c #7A797D",
"4. c #66646C",
"5. c #8A4904",
"6. c #864808",
"7. c #944C03",
"8. c #974F07",
"9. c #885606",
"0. c #935304",
"q. c #9C5403",
"w. c #945C03",
"e. c #9D5C04",
"r. c #9B540B",
"t. c #96570A",
"y. c #894E12",
"u. c #885715",
"i. c #925414",
"p. c #A55503",
"a. c #AB5601",
"s. c #AE5A02",
"d. c #A45B05",
"f. c #B15900",
"g. c #956304",
"h. c #9A6608",
"j. c #9A7409",
"k. c #856818",
"l. c #956513",
"z. c #9C7818",
"x. c #8C6909",
"c. c #A46403",
"v. c #AA6402",
"b. c #A46D03",
"n. c #A76607",
"m. c #B46301",
"M. c #BB6C02",
"N. c #B66A05",
"B. c #AC7304",
"V. c #AB7A02",
"C. c #A47A07",
"Z. c #B57702",
"A. c #A57615",
"S. c #8B6623",
"D. c #897426",
"F. c #8D723F",
"G. c #A07F26",
"H. c #C27916",
"J. c #A98504",
"K. c #BE8105",
"L. c #B8870C",
"P. c #BA960D",
"I. c #A78B1A",
"U. c #B29514",
"Y. c #B0801D",
"T. c #9A8521",
"R. c #B29331",
"E. c #C68501",
"W. c #C89A08",
"Q. c #D49601",
"!. c #CE8E13",
"~. c #CBA508",
"^. c #D5AA06",
"/. c #DDA817",
"(. c #DCB002",
"). c #E6B500",
"_. c #E5B508",
"`. c #C0902D",
"'. c #DFAD24",
"]. c #E2B93B",
"[. c #EFC201",
"{. c #E9C50A",
"}. c #F7CE00",
"|. c #F5CF1B",
" X c #A98F51",
".X c #CA9D4D",
"XX c #D8B74A",
"oX c #6F6582",
"OX c #706683",
"+X c #736A84",
"@X c #766B8A",
"#X c #796E8D",
"$X c #7B718E",
"%X c #7A768A",
"&X c #7E7392",
"*X c #827696",
"=X c #837995",
"-X c #867A9A",
";X c #887B9D",
":X c #817D89",
">X c #8B7FA0",
",X c #8C819E",
"<X c #898494",
"1X c #B7A68F",
"2X c #8D82A2",
"3X c #9185A4",
"4X c #9386AA",
"5X c #968AAC",
"6X c #998DAD",
"7X c #948CA4",
"8X c #9C92AD",
"9X c #9B8EB1",
"0X c #9E93B2",
"qX c #A196B5",
"wX c #A49AB5",
"eX c #A59BB8",
"rX c #A89FB9",
"tX c #ADA4BC",
"yX c #B7AFC5",
"uX c #CECAD4",
/* pixels */
"                                                                                                                                ",
"                                                    * & - B _ $.1.$.] Z - & *                                                   ",
"                                                  N * + - B _ #.-.{ ] Z - + & -                                                 ",
"                                                  = & + - N U ( O.k / C - + * N                                                 ",
"                                                G X o + @ 0 j.^.{._.C.i $ + + &                                                 ",
"                                                D = < + 2 y N.(.}.[.K.t.4 + - - A                                               ",
"                                              $.C X = + 4 6.u.B.Q.E.u.a 4 @ = X :                                               ",
"                                            #.%.< + = X 4 y i L./.W.s f 3 # = + - %.                                            ",
"                                            #.] - * = . t 9.u _.|.[.h.s d 3 > * - { $.                                          ",
"                                            ] ' @ . 3 d C.J.j.).}.[.V.K.L.k.f . @ ` $.                                          ",
"                                          L Y ` % k.R.XX'.V.g.).}.[.B.N.!.].XXJ.r ^ #.J                                         ",
"                                          J I X.x.)./.!.N.7.w.).}.[.b.p.f.M.Q.).~.b ` S                                         ",
"                                          S r L.(.E.M.f.f.7.w.).}.[.b.q.s.f.m.M.Q.^.k.V                                         ",
"                                          ^ j.^.W.d.s.f.s.7.9._.|._.b.0.d.f.f.s.A.~.P.v E                                       ",
"                                          D.~.I.z r.s.f.p.y i z. XG.p i i.f.f.s.z D.P.U.X.                                      ",
"                                        ) U.~.v g r.s.f.8.e q ( 2.( q 9 a s.f.s.l h I.^.T.                                      ",
"                                      F D.~.U.h g r.p.8.i w ' { -.] I V e 8.p.p.l g v ~.W.h                                     ",
"                                      / A.W.z.j j a 6.4 , ] 4.| ! ! 1 1 , 4 6.0.j g z P.W.S.K                                   ",
"                                    H O.Y.A.l.C.C.V.9.9 N <XuX3. . .} ! 1 , i V.F.z.h.l.Y.R.E                                   ",
"                                    &.D.j.k.s g.w.t.8 # | :X3. . . . . .! $ 0 p.y.w.9.s u.z.X.                                  ",
"                                  @.1X`.K.Z.B.Z.Z.0.4 @ | 2.} } } } ^  .^ > 9 8.h.B.B.B.h.S. X                                  ",
"                                  ...XH.M.m.w.u v.9.3 @ [ | 1 ! ~ ~ ! &.{ > 9 9.w.9.u e.n.i.F.                                  ",
"                                  ) K.m.f.a.9.t 0.y 5 > ~ ! 1 R ! ! ^ 1.&.> 9 0.5.9.y 0.s.p.u.                                  ",
"                                  ) K.q.5.q.n.l.u.6.7 q V 1 - ! ! ^ 4.2.&.q 8 a.6.e.b.c.0.6.q.                                  ",
"                                  ) K.t 5 y p.y.k y 7.e q : - V ! -.%X-.U 0 5.s.y p.a.q.6 2 w.V.                                ",
"                                  ) K.b.g.e.8.6.y.6 8.5.e U B V [ { [ Y 0 6.a.s.7 5.7.q.h.x.Z.V.                                ",
"                                  U n.m.m.q.6 2 8 4 a r.8.8 N %.*X;.I 0 6.s.a.i.6 5 5 y f.m.M.V.W                               ",
"                                  ! z u.d.v.c.g.t.4 r u 5.6 3 z R.l 4 t y t y 4 y g.h.c.s.r.l.C.                                ",
"                                  R k.l u.e.v.v.c.3 9 h c ( / h x w ( o.( / q , u c.v.v.d.t.l s                                 ",
"                                    x f r i p a z q Z $.%.#.$.;.,.:.:.%.%.%.] C f a p p p i j ~                                 ",
"                                    J < # # % q U : Z :.:.$.=.@X-X&X<.&.%.,.%.N 1 q , % # % M                                   ",
"                                      n & + + : C + : %.:.%.=.oX*XoX#.' $.:.#.+ * - * + + ; G                                   ",
"                                      S m - * - B : Y :.:.%.,.*X8X2X,.%.=.:.%.C * & & * - M                                     ",
"                                        K A B N : : N ' <.*X2X5X6X;X&X#X:.' Z - + + * < A G                                     ",
"                                        P L Y B _ ] Y $.$X4X0XyXtX,X-X$X%.B : * + + = B D S                                     ",
"                                        K +.' - < Y ] ;.*X5X6XrXqXOX&X;XoXY B * * * : Z F                                       ",
"                                          +.] = & B ] $.$X6X6X5X=X,.*X4X#X] Z - ~ N C D K                                       ",
"                                            _ < * C ] ] +X5X6X8X7X&X2X5X@X' N N +X' ' F K                                       ",
"                                            D Z - B %.%.,.=X6XwXyX0X6X5X@X_ < < %X$.#.W                                         ",
"                                            F ] Z B <.,.$.<.5X4X;X8X8X2XOX#.I & : Z +.L                                         ",
"                                            K Y %.#.Y < B ,.5X5X5X5X5X-X:.' %.' ` $.@.Q                                         ",
"                                            K Y < $.#.#.<.>X5X5X5X5X4X&X%.I < < < N A P                                         ",
"                                              _ : < Y %.&X5X6X9X9X6X-X;X1.N * * * B L                                           ",
"                                              _ { ] ] ] @X0XeXqXwX6X+X:.` * + + + %.*.                                          ",
"                                              L ,.:.#.#.#X8XqXqXwX0X$X:._ : * + + ,.=.                                          ",
"                                              J %.` ' ;.*X4X5X6X8X8X2X&X:.Y N < < ] $.                                          ",
"                                              K B N ' :.-X5X9XwX2X*X;X*X,.' _ _ ` M                                             ",
"                                                M #.%.,.-X5XwXuXeX<.;X5X@X#.` I C G                                             ",
"                                                S _ I %.*X5X4X3X<.%.-X5X#X:.+X#.' P                                             ",
"                                                  ' : Z <.6XeX2X=X-X4X5XOX] ,.:.+.                                              ",
"                                                  ' N _ <.2X8X8X8XwXqX5XoXY ` #.L                                               ",
"                                                  F Z ` +X,X;X0X0X6X4X*X,.#.] ] P                                               ",
"                                                    D I 1.@X+X9X9X2X*XOX$.` #.F                                                 ",
"                                                    A Y { %.+X0XwX=X=X<._ - B m                                                 ",
"                                                      T >.2XrXrXtX-.%.%._ B _ m                                                 ",
"                                                      @.OX;X2X8XtX7X<.%.%.$.F                                                   ",
"                                                      W >.;X6XrX8X;X*X,.' D K                                                   ",
"                                                        @.#X5XqX,X+X-X,.' J                                                     ",
"                                                          =.,X7X<X=X-X,.+.                                                      ",
"                                                          +.#X3X7X2X&X%.                                                        ",
"                                                            =.2XtX2X>.W                                                         ",
"                                                              #XyX2X*.                                                          ",
"                                                                :.@.                                                            ",
"                                                                                                                                "
};
