/* XPM */
static char *_e736fe975304742b8be16278ad4c8a5odScVMwcMlTUgs4E[] = {
/* columns rows colors chars-per-pixel */
"64 64 221 2 ",
"   c None",
".  c #3E311F",
"X  c #25252E",
"o  c #2B292B",
"O  c #2C2727",
"+  c #362C25",
"@  c #3C3229",
"#  c #272731",
"$  c #292731",
"%  c #272830",
"&  c #2A2A34",
"*  c #2E2C3A",
"=  c #27293B",
"-  c #312F3C",
";  c #33313E",
":  c #3B353D",
">  c #3B393D",
",  c #373234",
"<  c #422E1E",
"1  c #4A371C",
"2  c #563D1D",
"3  c #6A3F0D",
"4  c #713E0A",
"5  c #623E1D",
"6  c #6B3E15",
"7  c #463627",
"8  c #543C22",
"9  c #573C28",
"0  c #453937",
"q  c #513F3C",
"w  c #402F20",
"e  c #633F26",
"r  c #5B4319",
"t  c #73450A",
"y  c #7A480A",
"u  c #7D5107",
"i  c #6B4314",
"p  c #67481C",
"a  c #724413",
"s  c #7A4A14",
"d  c #795717",
"f  c #69490F",
"g  c #5C4324",
"h  c #5E452D",
"j  c #59482C",
"k  c #59483A",
"l  c #544B39",
"z  c #694927",
"x  c #744C20",
"c  c #6A552A",
"v  c #745B2B",
"b  c #695A36",
"n  c #796529",
"m  c #746938",
"M  c #6A623B",
"N  c #1F2A4D",
"B  c #262C44",
"V  c #353241",
"C  c #3A3645",
"Z  c #3C3A45",
"A  c #3D394B",
"S  c #37354B",
"D  c #232F56",
"F  c #293359",
"G  c #3B3B52",
"H  c #353A5C",
"J  c #3B3D5B",
"K  c #343755",
"L  c #2D314B",
"P  c #1F3368",
"I  c #2B3A69",
"U  c #263564",
"Y  c #343C64",
"T  c #363F68",
"R  c #293B72",
"E  c #413D4E",
"W  c #463D43",
"Q  c #443E52",
"!  c #423F5A",
"~  c #3B455A",
"^  c #3C436A",
"/  c #334174",
"(  c #2B4179",
")  c #434244",
"_  c #454349",
"`  c #4B4B4D",
"'  c #4D4449",
"]  c #54484B",
"[  c #555448",
"{  c #464153",
"}  c #494356",
"|  c #4C465C",
" . c #4E485C",
".. c #494757",
"X. c #514E56",
"o. c #50495F",
"O. c #5C4E58",
"+. c #564854",
"@. c #4B5354",
"#. c #535355",
"$. c #55525C",
"%. c #5A5A5C",
"&. c #5B5A56",
"*. c #635756",
"=. c #60594A",
"-. c #434362",
";. c #4D4964",
":. c #484867",
">. c #534B63",
",. c #584F69",
"<. c #5B5364",
"1. c #5C536C",
"2. c #585368",
"3. c #5D5571",
"4. c #585678",
"5. c #454A73",
"6. c #625B68",
"7. c #635A74",
"8. c #665D79",
"9. c #5E6379",
"0. c #66646B",
"q. c #6C637D",
"w. c #6B6973",
"e. c #844A0C",
"r. c #8A4B0C",
"t. c #874B06",
"y. c #924C03",
"u. c #954E08",
"i. c #8D5304",
"p. c #8B550C",
"a. c #8B590C",
"s. c #885509",
"d. c #9B5304",
"f. c #9B5C03",
"g. c #975708",
"h. c #884B11",
"j. c #875616",
"k. c #965A12",
"l. c #A45504",
"z. c #A35B04",
"x. c #AD5A02",
"c. c #A65906",
"v. c #B25B01",
"b. c #8F650B",
"n. c #9C6304",
"m. c #9D6B07",
"M. c #94680B",
"N. c #896414",
"B. c #946513",
"V. c #986516",
"C. c #9A7619",
"Z. c #937714",
"A. c #A46303",
"S. c #A76A04",
"D. c #B66704",
"F. c #A57507",
"G. c #B77505",
"H. c #A77D14",
"J. c #BE7D12",
"K. c #835E22",
"L. c #935E20",
"P. c #896C25",
"I. c #92782B",
"U. c #8E733A",
"Y. c #8E732E",
"T. c #C37E13",
"R. c #87704A",
"E. c #846F55",
"W. c #897C68",
"Q. c #9E841B",
"!. c #BB8A06",
"~. c #BA950C",
"^. c #A78816",
"/. c #B38614",
"(. c #B89614",
"). c #AD8509",
"_. c #9D8720",
"`. c #A88A26",
"'. c #AA8B2B",
"]. c #C68A06",
"[. c #C89704",
"{. c #D19604",
"}. c #C69217",
"|. c #DAA502",
" X c #D4A614",
".X c #E4B70A",
"XX c #D09822",
"oX c #CCA325",
"OX c #EDC207",
"+X c #F2C602",
"@X c #978050",
"#X c #C19245",
"$X c #6D6482",
"%X c #676689",
"&X c #716684",
"*X c #736985",
"=X c #756A89",
"-X c #796F8B",
";X c #7C728E",
":X c #7E7492",
">X c #7A6F90",
",X c #817695",
"<X c #827894",
"1X c #857A9A",
"2X c #897D9D",
"3X c #8B7FA1",
"4X c #858488",
"5X c #8B819E",
"6X c #97959C",
"7X c #8E82A3",
"8X c #9186A5",
"9X c #9389A4",
"0X c #968AAB",
"qX c #988DAD",
"wX c #9386A9",
"eX c #9B91AD",
"rX c #9B8EB0",
"tX c #9E93B1",
"yX c #A49BB5",
"uX c #A399B6",
"iX c #ABA2BB",
/* pixels */
"                                                                                                                                ",
"                                                                                                                                ",
"                                                                                                                                ",
"                                                                                                                                ",
"                                                                                                                                ",
"                                                                                                                                ",
"                                                                                                                                ",
"                                                                                                                                ",
"                                                                                                                                ",
"                                                                                                                                ",
"                                                                                                                                ",
"                                                                                                                                ",
"                                                                                                                                ",
"                                                                      ~ ~ ~ ~                                                   ",
"                                                              ^ k c z K.P.P.P.U.W.9.(                                           ",
"                                                          P F ) c j.k.S.m.n.D.T.#X@X&.-.                                        ",
"                                                      R F B & 7 z j.c.A.u t l.D.J.H.I.Y.b [                                     ",
"                                                  T T Y L # O 7 s f.x.z.t.y l.D.G.F.C./.(.Q.m @.I                               ",
"                                          I Y J -.;.} G * # O 2 p.A.g.y.d.d.f.f.S.M.N.H.~.~.(.Z.j A J -.:.                      ",
"                                I Y J J H J G A C C A C - & , g a.A.y 4 u.g.a.s.n.m.b.N.n I.^.~.H.v ' }  .>.;.                  ",
"                          U F J ;.;.Q C Q } A - & & C C V V > h a.n.y 3 s j.p.i.S.S.m.d l l n ^.[.^.j > C E } J U               ",
"                      H H J A { 1.2.E A  .} V ; ; V Q A ; - ; 0 p s i i a y t.i.n.n.A.j.z x j.V.].[.Z.1 o & & * B N D           ",
"                F G G A A  .| } >.>.Q } o. .o.} Q } } A C V - C 0 8 r a e.t.4 3 i y a.a.u.l.l.c.D.{.}.c + $ X & # X & *         ",
"          / T K G Q E C Q ,.1.,.>.>. .>.} >.7.>.>.>.>.} | o. . .' g s r.e.6 8 < . < 2 i r.l.x.x.v.T.oXI.. O X & X X # &         ",
"        5.4.3.;. .2.1.2.7.*X=X=X$X8.8.8.| ..3.7.8.$X$X7.7.7.7.1.O.x i.h.e 0 0 > > W 0 7 6 u.l.x.v.D.XX`.f < < + O X & &         ",
"    ^ 4.$X>X:Xq.7.-X:X:X1X7X7X7X5X5X5X1X8.2.q.:X2X3X3X,Xq.3.1.2.O.z y e 0 : Z ` %.0.w.$.q z e.u.l.l.G.!.b.t 4 3 1 , ; ;         ",
"  4.$X,X7X7X9X<Xq.:X7XqXqXqXrX0XqXuXtXwX2X,X2X9XqXqX0X8X=X3.1.,.+.9 8 0 : - ; ) #.w.6X4XX.q 5 y i.i.n.F.M.s s p.a.j E E         ",
"%X:X5X0XtXeXtXqX2X7XqXeXwXyXiXeXtXyXtXqX0X0XqXeXqXeXuXtX<X$X8.7.+.h k E > > > Z ` %.4X<X$.] c C.!.!.!.[.!.H.B.G.].P.]  .        ",
"eX0X8X9XeXyXyXuXtXtXeX9X<XeXyXqXtXyXtXrX0XwXtXyX9XqXiXyX9X<X-X&X*.n E.<.) ) ) ) ` %.0.%.$.6.R.oX.X+X+X+XOX X].|..X'.*.1.        ",
"tXwX5X<X2XeX9X5X8XqXtX8X*X*X1X8XtXuXrXqX0XwXtXeX;X;X8X9X8X1X;X*X*.v E.6.X.X._ _ ` %.%.#.X.<.R.oXOX+X+X+X+X.X{.|.OX`.*.1.        ",
"=X:X1X,X,X,Xq.*X1X7XeXqX,X=X:X7X8X2X2X8X0XqXeX8X:X=X,X1X:Xq.q.q.O.h k | 6.0.X._ ` #.%.` _ ' c H.[.[.[.[.[.).F.!.[.P.] o.        ",
"5.4.&X=X*Xq.1.q.-X,X8XqXwX7X2X1X-Xq.-X2X3X8XwXwX7X2X,X:X$X,.2.7.O.h 9 W <.w.0.$.#.%.#.) C 0 g s.f.A.S.G.m.d d B.M.z E Q         ",
"  ^ 5.,.2.2.>.>.1.q.;X,X1X1X:X&X7.>.8.*X&X-X,X1X1X,X*Xq.8.,.>.2.O.z a e ] <.6.<.$.X._ > 0 9 a p.l.x.G.!.M.p 2 i r @ ; V         ",
"      T J ;.| C Q >.2.1.8.8.1.>.} C E  .>.2.3.1.7.1.>.o.1.3.3.3.O.z e.h.e q ' _ Z > , 0 5 r.d.l.x.D.}.(.d 1 w + O o & &         ",
"        I Y } C E  .| >.8.1.} E ; & & ; {  .Q A Q Q C C >.1.1.2.] g r.l.r.5 7 7 @ 7 7 5 e.l.x.v.v.G.XX'.g + o & X X & #         ",
"            K S G |  .2.7.>.Q C & X % & E E ; ; V ; * - A E A { W 8 e.l.l.y.y i a s p.p.d.x.x.x.D.]. XP.@ $ X $ & & & &         ",
"                I T ^ :.>.! Q C & X % & A C E <...- $ & * & & 0 g p a e.y.y.y.i.g.g.V.K.s h.j.k.G.{.).r o & # * B               ",
"                      R / H K A { { C ; E Q  .7.| ; $ X # & , 9 d i.t 4 t.y.i.i.n.n.B.v j h v H.[.~.n 0 Z { } G                 ",
"                            U ~ 3.4.-.K ! ;.|  .E ; & & $ & , g a.A.y 4 d.z.i.u n.m.M.d c n C.(.~.P.]  .>.1.                    ",
"                                    / I T ^ -.-.G C V ; & X o 8 p.A.t.y d.z.g.i.n.M.N.C.Q.(.(.^.n ' J ^ :.                      ",
"                                            R I Y H G S * X O 2 p.z.l.d.i.y.d.z.A.b.B./.[.(._.M ~ U                             ",
"                                                    F F L = o 1 e.z.x.A.y t d.c.V.B.C.`.C.m @.                                  ",
"                                                        U D B 0 p j.A.S.a.e.u.L.U.U.m =...                                      ",
"                                                              G j N.F.G.F.n.a.P.                                                ",
"                                                                  [ M M                                                         ",
"                                                                                                                                ",
"                                                                                                                                ",
"                                                                                                                                ",
"                                                                                                                                ",
"                                                                                                                                ",
"                                                                                                                                ",
"                                                                                                                                ",
"                                                                                                                                ",
"                                                                                                                                ",
"                                                                                                                                ",
"                                                                                                                                ",
"                                                                                                                                ",
"                                                                                                                                ",
"                                                                                                                                ",
"                                                                                                                                ",
"                                                                                                                                ",
"                                                                                                                                ",
"                                                                                                                                ",
"                                                                                                                                "
};
