/* XPM */
static char *_18307359dc14a9ccc8266f5d2b3c361TnP6gEbLKsoJT0zF[] = {
/* columns rows colors chars-per-pixel */
"64 64 30 1 ",
"  c None",
". c black",
"X c gray13",
"o c gray15",
"O c gray36",
"+ c #6D4C41",
"@ c #F0470D",
"# c #F4511E",
"$ c #8D5949",
"% c #FFBF00",
"& c #FFC20E",
"* c #0E66E0",
"= c #2979FF",
"- c #00EDF7",
"; c #00E5FF",
": c gray58",
"> c gray62",
", c gray70",
"< c #B4B4B4",
"1 c #E1E1E1",
"2 c gray89",
"3 c #E4E4E4",
"4 c #E7E7E7",
"5 c gray93",
"6 c #EFEFEF",
"7 c gray94",
"8 c #F1F1F1",
"9 c #F3F3F3",
"0 c #F4F4F4",
"q c gray99",
/* pixels */
"                                                                ",
"                                                                ",
"                                                                ",
"                                                                ",
"                                                                ",
"                                                                ",
"                                                                ",
"                                                                ",
"                                                                ",
"                                                                ",
"                                                                ",
"                                                                ",
"                                                                ",
"                                                                ",
"                                                                ",
"                                                                ",
"                                                                ",
"                           OOoOOooO       ooOooOOo              ",
"                          8OOoOOooO       ooOooOOo3             ",
"                         oo::o::oo:oo   ::oo:oo::o::            ",
"                         oo::o::oo:oo   ::oo:oo::o::            ",
"                         oo::o::oo:oo   ::oo:oo::o::            ",
"                   o%%%%%%%%%%%%%%%%%%%%%%%%%%%%%%%%%%          ",
"                   o%%%%%%%%%%%%%%%%%%%%%%%%%%%%%%%%%%          ",
"               oo,,o%%%%%%%%%%%%%%%%%%%%%%%%%%%%%%%%%%%%        ",
"              ,oo,,o%%%%%%%%%%%%%%%%%%%%%%%%%%%%%%%%%%%%%       ",
"              ,oo,,o%%%%%%%%%%%%%%%%%%%%%%%%%%%%%%%%%%%%%       ",
"            oo,oo,,o----*--%%%%%%%%%%%%@@@@@@@@@@@%%%%%%%       ",
"            oo,oo,,o----*--%%%%%%%%%%%%@@@@@@@@@@@%%%%%%%       ",
"       qoo,,oo,oo,,***---**--*%%%%%%%%%@$$@@$@@$$@@@%%%%o       ",
"       ,oo,,oo,oo**---**---**---**%%%%%%@@$$@$$@@$@@%%oo.       ",
"       ,oo,,oo,oo**---**---**---**%%%%%%@@$$@$$@@$@@%%oo.       ",
"       <XX<<XX<XX==;;;==;;;==;;;==&&&&&&##++#++##+##&&XX.       ",
"       <XX<<XX<XX==;;;==;;;==;;;==&&&&&&##++#++##+##&&XX.       ",
"       0XX<<XX<XX<<===;;;==;;=&&&&&&&&&#++##+##++###&&&&X       ",
"         8  XX<XX<<X;;;;=;;&&&&&&&&&&&&###########&&&&&&&       ",
"            XX<XX<<X;;;;=;;&&&&&&&&&&&&###########&&&&&&&       ",
"              <XX<<X&&&&&&&&&&&&&&&&&&&&&&&&&&&&&&&&&&&&&       ",
"              <XX<<X&&&&&&&&&&&&&&&&&&&&&&&&&&&&&&&&&&&&&       ",
"              6XX<<X&&&&&&&&&&&&&&&&&&&&&&&&&&&&&&&&&&&&        ",
"                  6X&&&&&&&&&&&&&&&&&&&&&&&&&&&&&&&&&&          ",
"                   X&&&&&&&&&&&&&&&&&&&&&&&&&&&&&&&&&&          ",
"                         XX>>X>>XX>XX   >>XX>XX>>X>>            ",
"                         XX>>X>>XX>XX   >>XX>XX>>X>>            ",
"                         XX>>X>>XX>XX   >>XX>XX>>X>>            ",
"                          8<<X<<XX<1     3XX<XX<<X1             ",
"                           <<X<<XX<       XX<XX<<X              ",
"                                                                ",
"                                                                ",
"                                                                ",
"                                                                ",
"                                                                ",
"                                                                ",
"                                                                ",
"                                                                ",
"                                                                ",
"                                                                ",
"                                                                ",
"                                                                ",
"                                                                ",
"                                                                ",
"                                                                ",
"                                                                ",
"                                                                "
};
