/* XPM */
static char *c08e6b50c9c84bde9dd1fe85dc70b9f0fXIvLOI8dzboJjJ9[] = {
/* columns rows colors chars-per-pixel */
"64 64 222 2 ",
"   c None",
".  c #2A272D",
"X  c #2D2A2D",
"o  c #26262E",
"O  c #322C2B",
"+  c #382D25",
"@  c #3C342A",
"#  c #282732",
"$  c #2A2A34",
"%  c #2B2C3A",
"&  c #262838",
"*  c #312F3B",
"=  c #312E35",
"-  c #34313D",
";  c #3C353B",
":  c #3B3A3E",
">  c #393231",
",  c #2E303B",
"<  c #553D1E",
"1  c #4A341B",
"2  c #663D16",
"3  c #4C3C2B",
"4  c #473625",
"5  c #543D27",
"6  c #463B36",
"7  c #4D3B33",
"8  c #443D3D",
"9  c #513E36",
"0  c #643F23",
"q  c #5A411E",
"w  c #6D440E",
"e  c #7B440C",
"r  c #7A4A0D",
"t  c #6B441B",
"y  c #6B4718",
"u  c #794613",
"i  c #7D4A13",
"p  c #754917",
"a  c #7C5717",
"s  c #7F510D",
"d  c #5C4222",
"f  c #584428",
"g  c #4C403B",
"h  c #594738",
"j  c #634324",
"k  c #684829",
"l  c #685327",
"z  c #745926",
"x  c #634A37",
"c  c #675737",
"v  c #735B35",
"b  c #7C6527",
"n  c #6C643D",
"m  c #766A39",
"M  c #282D45",
"N  c #2D324B",
"B  c #353343",
"V  c #393646",
"C  c #3D3945",
"Z  c #3C394B",
"A  c #37364A",
"S  c #283459",
"D  c #3C3B53",
"F  c #343A5C",
"G  c #3B3D5A",
"H  c #343855",
"J  c #232F53",
"K  c #243565",
"L  c #2D3B6A",
"P  c #2B3864",
"I  c #333C63",
"U  c #3A3E61",
"Y  c #343F6C",
"T  c #2B3C72",
"R  c #443D42",
"E  c #413C4E",
"W  c #483F42",
"Q  c #433E53",
"!  c #3D4157",
"~  c #3C4362",
"^  c #3B426A",
"/  c #364069",
"(  c #374474",
")  c #434245",
"_  c #48444C",
"`  c #4B4B4D",
"'  c #494348",
"]  c #574847",
"[  c #57544A",
"{  c #454154",
"}  c #4A4356",
"|  c #4D4D53",
" . c #44425B",
".. c #4C465C",
"X. c #4D495A",
"o. c #5C4D52",
"O. c #524E58",
"+. c #4A505A",
"@. c #535355",
"#. c #5E5356",
"$. c #55535A",
"%. c #5C545C",
"&. c #5A5A5A",
"*. c #645847",
"=. c #705C48",
"-. c #655755",
";. c #604B40",
":. c #71654F",
">. c #444564",
",. c #484866",
"<. c #544D64",
"1. c #524D68",
"2. c #575165",
"3. c #5B5264",
"4. c #5E5A63",
"5. c #5C536C",
"6. c #575068",
"7. c #484D78",
"8. c #595576",
"9. c #635B6C",
"0. c #635B74",
"q. c #645B76",
"w. c #5E606D",
"e. c #636265",
"r. c #6A696F",
"t. c #6B617C",
"y. c #676077",
"u. c #757277",
"i. c #834A0C",
"p. c #884C07",
"a. c #934D05",
"s. c #934F0A",
"d. c #8C5205",
"f. c #8E5906",
"g. c #85520D",
"h. c #8B540C",
"j. c #87570A",
"k. c #935305",
"l. c #9B5405",
"z. c #945C05",
"x. c #9C5B05",
"c. c #93540C",
"v. c #9A580A",
"b. c #844B13",
"n. c #8A4B10",
"m. c #825311",
"M. c #8D5B13",
"N. c #865917",
"B. c #975A12",
"V. c #A25B06",
"C. c #AD5C03",
"Z. c #A75705",
"A. c #95630C",
"S. c #99630B",
"D. c #996607",
"F. c #8C6313",
"G. c #87681C",
"H. c #936910",
"J. c #956815",
"K. c #997718",
"L. c #916A0A",
"P. c #A66605",
"I. c #B76906",
"U. c #A97609",
"Y. c #B67607",
"T. c #A36B11",
"R. c #A57B16",
"E. c #BA7D16",
"W. c #866B2C",
"Q. c #8B7628",
"!. c #957724",
"~. c #856739",
"^. c #94662A",
"/. c #A97823",
"(. c #A97F3B",
"). c #C37E0E",
"_. c #866E41",
"`. c #8B754B",
"'. c #9D831C",
"]. c #B4860C",
"[. c #BD8C08",
"{. c #B78709",
"}. c #A58A1A",
"|. c #A78516",
" X c #BB8818",
".X c #9E842C",
"XX c #B89422",
"oX c #A08629",
"OX c #C28806",
"+X c #C99604",
"@X c #CCA30D",
"#X c #D4A40A",
"$X c #DEB20A",
"%X c #E6B802",
"&X c #1D3C86",
"*X c #515885",
"=X c #6D6482",
"-X c #68688D",
";X c #716684",
":X c #726984",
">X c #766C8A",
",X c #786E8B",
"<X c #7B718E",
"1X c #7C7A81",
"2X c #7D7392",
"3X c #817694",
"4X c #837996",
"5X c #867B9A",
"6X c #897E9D",
"7X c #8A7EA0",
"8X c #8B819E",
"9X c #86809E",
"0X c #8E84A1",
"qX c #9186A4",
"wX c #9389A5",
"eX c #968BAB",
"rX c #998DAC",
"tX c #9387A9",
"yX c #9B92AE",
"uX c #9E93B2",
"iX c #9A8DB0",
"pX c #A096B4",
/* pixels */
"                                                                                                                                ",
"                                                                                                                                ",
"                                                                                                                                ",
"                                                                                                                                ",
"                                                                                                                                ",
"                                                                                                                                ",
"                                                                                                                                ",
"                                                                                                                                ",
"                                                                                                                                ",
"                                                                                                                                ",
"                                                                                                                                ",
"                                                                                                                                ",
"                                                                                                                                ",
"                                                                                                                                ",
"                                                                                                                                ",
"                                                                                                                                ",
"                                                                                                                                ",
"                                                                                                                                ",
"                                                                                                                                ",
"                                                  c *.[                                                                         ",
"                                          ~.N.N.H.H.J.z h !                                                                     ",
"                                @.*.=.~.^.^.c.h.z.P.P.M.l 6 N J K                                                               ",
"                            [ m Q.!.!.J.J.B.c.p.d.x.V.v.i 5 = M J S P P                                                         ",
"                      I ` n Q.}.|.R.J.H.S.x.l.k.d.k.x.x.g.< O $ M N H H I L T                                                   ",
"                >.~  .[ b !.}.}.K.K.H.A.S.z.k.l.k.p.d.z.g.q O $ & * B A D U ^ ^ Y L (                                           ",
"              ,...} *.W.|.|.K.b b G.F.D.S.f.k.l.a.e i.f.m.d > $ $ & % B Q ..>. .G G ~ ,.,.~ P                                   ",
"          H D E R h b |.].R.G.z l z F.S.z.f.d.a.p.e r s p 5 > $ $ # & B } <...Q Z V Z Q { D H I Y (                             ",
"        M % % = @ l K.[.Y.T.M.b.a N.M.f.d.d.p.a.a.p.u y f 6 ; * % $ $ - { } { E V - % % - Z D  .,.,.^ Y L                       ",
"    & & & # . X 3 b ].OXI.C.Z.l.h.m.i p w w e p.a.s.i j g _ Q E Z - * B Z Z Z E Z - $ $ * V { <.6.<.,. .D H S                   ",
"  & # . . X O @ l !. XY.I.C.Z.l.i.t 5 5 3 3 5 t b.s.b.k ] <.<.<...E E Q { Q {  .Q V - * V Q X.6.5.6.<.} Q Z G U L               ",
"  % $ O + 4 4 < a R.E.I.C.Z.c.b.0 3 6 8 R ' ] h k i i k o.6.5.5.6.<.<.5.0.0.5.5.<.X.{ E } <.0.t.t.q.5.<.} { } >.>.^             ",
"  B ; 3 q t t y H.Y.Y.P.Z.c.p j 7 8 ' ` | $.3.%.] k t x o.3.6.5.0.t.;X,X2X2X<X,X;Xt.0.6.0.=X,X2X4X2X,Xt.5.2.<.6.5.8.7.(         ",
"  Q ' l F.F.N.F.U.Y.Y.P.P.M.k 9 R ' | @.@.$.4.9.%.] f x o.5.5.0.=X,X2X4X6X0XqX0X6X4X>X:X>X4X5X5X0X0X0X3X:Xy.q.y.=X=X=X8.7.      ",
"  X.*.Q.].{.U.].+X+X+X+X[.R.v ] _ ` @.@.| | $.4.3.o.;.x -.q.t.;X<X5X4X3X5XqXrXeXtX0X6X6X8X6X4X3X5XqXeX0X4X<X,X<X2X2X2X2X-X*X    ",
"  2.:.oX@X#X+X#X%X%X%X%X$XXX~.-.O.@.&.@.` _ _ | O.%.=.=.-.t.>X3X8XwXqX5X6XwXyXrXeXeXrXrXrXwX8X3X3X0XrXrXqX0X0XqX8X6X8X0X8X-X    ",
"  2.=..X@X+X+X@X$X%X%X%X$XXX~.-.%.e.e.&.` ' ) ) _ #.=.v -.t.>X3X0XyXyXwXwXyXyXeXeXiXuXpXuXyXyXqX8XwXrXrXeXyXuXyXrXqX0XqX9X-X    ",
"  ..[ W.R.U.T.U.[.+XOXOX{.K.v ] 4.u.u.e.| ) : : C ' h x #.9.q.:X4XrXuXyXrXrXeXtXtXrXuXuXuXuXpXyXrXrXeX0X0XwXyXyXrXqX5X2X-X      ",
"  Z W k N.h.g.j.D.U.U.P.x.h.t h #.u.1Xr.$.) : ; ; 7 5 h o.6.0.q.,X8XeXeXwX0X5X4X5XqXeXrXeXeXrXrXeXqX8X3X<X3X8X0X6X2X=X8.        ",
"  B - 6 < 2 2 w F.U.Y.C.l.a.b.k h #.e.4.@.' : ; 7 0 t k o.3.5.0.=X<X5X5X4X<X=Xq.t.2X5X5X6X6X7X6X4X2X>X;Xy.t.>X>X=X8.7.          ",
"  & & X + + 1 1 a R. XI.C.Z.l.n.t h g ' 8 8 6 7 0 u i k o.3.5.5.5.q.t.=Xt.q.5.<.<.0.t.t.=X:X>X;Xq.5.5.6.<.1.8.8.7.              ",
"  & $ o . . X + f Q. X).I.C.Z.l.i.y d 5 4 4 < 2 u b.p j ] } X.......<.<.<.<.2.<...<.<.<.6.5.5.6...{ {  .G U ^ (                 ",
"  M & & & # # . @ z |.OXY.P.v.c.h.m.m.r w w w e e u y d g R C V Z E { { Q } ......} } <.<..... .Q D D F P                       ",
"    J J M M * * > f G.].{.T.N.a p N.A.z.f.d.i.r u w y y j 7 ; - B V Z V B V E } } Q { <.<. .G G F F                             ",
"        K H D Z C g l K.].R.G.z l N.A.D.D.f.h.m.i u r h.a f ; - B V V - - B Z Q Q D Q >.>.U P K                                 ",
"            >... .{ ] v K.|.'.!.G.G.A.D.D.z.f.c.p.i.g.z.m.d > = - V Z Z A A D G F F F I L                                       ",
"                >.~ ! _ c W.'.}.|.K.H.D.P.x.l.k.k.d.k.x.m.< O $ B D G  .G U I L                                                 ",
"                        ~ @.m Q.'.R.K.U.U.P.l.p.d.x.V.c.p 4 O & N F I /                                                         ",
"                              [ n m Q./.E.I.V.d.f.x.v.M.y 3 , J S T                                                             ",
"                                  +.-.`.(./.T.A.A.S.M.z k ) S K                                                                 ",
"                                    ( w.:._.W.b b z c h ` ~                                                                     ",
"                                            +.| |  .                                                                            ",
"                                                                                                                                ",
"                                                                                                                                ",
"                                                                                                                                ",
"                                                                                                                                ",
"                                                                                                                                ",
"                                                                                                                                ",
"                                                                                                                                ",
"                                                                                                                                ",
"                                                                                                                                ",
"                                                                                                                                ",
"                                                                                                                                ",
"                                                                                                                                ",
"                                                                                                                              &X"
};
