/* XPM */
static char *_511370bc88444e1efe807b83e294393G6okpPUwGzeEw5Ls[] = {
/* columns rows colors chars-per-pixel */
"64 64 30 1 ",
"  c None",
". c black",
"X c gray13",
"o c gray15",
"O c gray36",
"+ c #6D4C41",
"@ c #F0470D",
"# c #F4511E",
"$ c #8D5949",
"% c #FFBF00",
"& c #FFC20E",
"* c #0E66E0",
"= c #2979FF",
"- c #00EDF7",
"; c #00E5FF",
": c gray58",
"> c gray62",
", c gray70",
"< c #B4B4B4",
"1 c #E1E1E1",
"2 c gray89",
"3 c #E4E4E4",
"4 c #E7E7E7",
"5 c gray93",
"6 c #EFEFEF",
"7 c gray94",
"8 c #F1F1F1",
"9 c #F3F3F3",
"0 c #F4F4F4",
"q c gray99",
/* pixels */
"                                                                ",
"                                                                ",
"                                                                ",
"                                                                ",
"                                                                ",
"                                                                ",
"                                                                ",
"                                                                ",
"                                                                ",
"                                                                ",
"                                                                ",
"                                                                ",
"                                                                ",
"                                                                ",
"                                                                ",
"                                                                ",
"                                                                ",
"              X<<XX<XX       <XX<<X<<                           ",
"             1X<<XX<XX3     1<XX<<X<<8                          ",
"            >>X>>XX>XX>>   XX>XX>>X>>XX                         ",
"            >>X>>XX>XX>>   XX>XX>>X>>XX                         ",
"            >>X>>XX>XX>>   XX>XX>>X>>XX                         ",
"          &&&&&&&&&&&&&&&&&&&&&&&&&&&&&&&&&&X                   ",
"          &&&&&&&&&&&&&&&&&&&&&&&&&&&&&&&&&&X6                  ",
"        &&&&&&&&&&&&&&&&&&&&&&&&&&&&&&&&&&&&X<<XX6              ",
"       &&&&&&&&&&&&&&&&&&&&&&&&&&&&&&&&&&&&&X<<XX<              ",
"       &&&&&&&&&&&&&&&&&&&&&&&&&&&&&&&&&&&&&X<<XX<              ",
"       &&&&&&&###########&&&&&&&&&&&&;;=;;;;X<<XX<XX            ",
"       &&&&&&&###########&&&&&&&&&&&&;;=;;;;X<<XX<XX  8         ",
"       X&&&&###++##+##++#&&&&&&&&&=;;==;;;===<<XX<XX<<XX0       ",
"       .XX&&##+##++#++##&&&&&&==;;;==;;;==;;;==XX<XX<<XX<       ",
"       .XX&&##+##++#++##&&&&&&==;;;==;;;==;;;==XX<XX<<XX<       ",
"       .oo%%@@$@@$$@$$@@%%%%%%**---**---**---**oo,oo,,oo,       ",
"       .oo%%@@$@@$$@$$@@%%%%%%**---**---**---**oo,oo,,oo,       ",
"       o%%%%@@@$$@@$@@$$@%%%%%%%%%*--**---***,,oo,oo,,ooq       ",
"       %%%%%%%@@@@@@@@@@@%%%%%%%%%%%%--*----o,,oo,oo            ",
"       %%%%%%%@@@@@@@@@@@%%%%%%%%%%%%--*----o,,oo,oo            ",
"       %%%%%%%%%%%%%%%%%%%%%%%%%%%%%%%%%%%%%o,,oo,              ",
"       %%%%%%%%%%%%%%%%%%%%%%%%%%%%%%%%%%%%%o,,oo,              ",
"        %%%%%%%%%%%%%%%%%%%%%%%%%%%%%%%%%%%%o,,oo               ",
"          %%%%%%%%%%%%%%%%%%%%%%%%%%%%%%%%%%o                   ",
"          %%%%%%%%%%%%%%%%%%%%%%%%%%%%%%%%%%o                   ",
"            ::o::oo:oo::   oo:oo::o::oo                         ",
"            ::o::oo:oo::   oo:oo::o::oo                         ",
"            ::o::oo:oo::   oo:oo::o::oo                         ",
"             3oOOooOoo       OooOOoOO8                          ",
"              oOOooOoo       OooOOoOO                           ",
"                                                                ",
"                                                                ",
"                                                                ",
"                                                                ",
"                                                                ",
"                                                                ",
"                                                                ",
"                                                                ",
"                                                                ",
"                                                                ",
"                                                                ",
"                                                                ",
"                                                                ",
"                                                                ",
"                                                                ",
"                                                                ",
"                                                                "
};
