/* XPM */
static char *_cb01cb47c804678f9ca4df38948ce8apcRT8osBlkKx3rUT[] = {
/* columns rows colors chars-per-pixel */
"64 64 220 2 ",
"   c None",
".  c #27262E",
"X  c #2B292D",
"o  c #2B272C",
"O  c #322A29",
"+  c #372C24",
"@  c #3C3228",
"#  c #272631",
"$  c #282731",
"%  c #2B2A33",
"&  c #2D2C3A",
"*  c #262939",
"=  c #312F3C",
"-  c #312E34",
";  c #35333D",
":  c #3C3738",
">  c #49341C",
",  c #573919",
"<  c #683E17",
"1  c #42362D",
"2  c #45382A",
"3  c #573D28",
"4  c #4A3A32",
"5  c #433A3A",
"6  c #483B37",
"7  c #533E35",
"8  c #653F22",
"9  c #5B431F",
"0  c #7B450C",
"q  c #7D4C0B",
"w  c #78480A",
"e  c #6B4415",
"r  c #63441B",
"t  c #6B471A",
"y  c #744514",
"u  c #734B15",
"i  c #784917",
"p  c #79551B",
"a  c #6D4F12",
"s  c #594428",
"d  c #594639",
"f  c #5F543B",
"g  c #4F4423",
"h  c #674524",
"j  c #69562A",
"k  c #745725",
"l  c #69583A",
"z  c #654B3B",
"x  c #7B6323",
"c  c #776736",
"v  c #7E7231",
"b  c #272D45",
"n  c #2C314C",
"m  c #363342",
"M  c #393545",
"N  c #3D3A43",
"B  c #35364C",
"V  c #3D394B",
"C  c #38374B",
"Z  c #222F57",
"A  c #2D355A",
"S  c #3B3B54",
"D  c #343B5C",
"F  c #353958",
"G  c #2B3762",
"H  c #283767",
"J  c #323C64",
"K  c #373E66",
"L  c #2B3D73",
"P  c #333F70",
"I  c #423D4E",
"U  c #443E44",
"Y  c #433E53",
"T  c #3D435A",
"R  c #3F4264",
"E  c #3A436B",
"W  c #374578",
"Q  c #2F4074",
"!  c #444346",
"~  c #47454B",
"^  c #49454B",
"/  c #49494B",
"(  c #4D4545",
")  c #564845",
"_  c #595348",
"`  c #454154",
"'  c #4A4255",
"]  c #4E4C52",
"[  c #44425B",
"{  c #4C465B",
"}  c #4F485E",
"|  c #444D5B",
" . c #544D5C",
".. c #564E56",
"X. c #535254",
"o. c #56535A",
"O. c #5B575B",
"+. c #4E5259",
"@. c #604B41",
"#. c #655745",
"$. c #665852",
"%. c #666244",
"&. c #686257",
"*. c #72635B",
"=. c #786540",
"-. c #454463",
";. c #4C4962",
":. c #4D4B69",
">. c #44476A",
",. c #534C63",
"<. c #5A4E61",
"1. c #5B5263",
"2. c #5C536C",
"3. c #575269",
"4. c #454B73",
"5. c #4E527A",
"6. c #5A5672",
"7. c #645C6A",
"8. c #635A67",
"9. c #605772",
"0. c #645B75",
"q. c #645D79",
"w. c #685E7A",
"e. c #646268",
"r. c #6C637D",
"t. c #6D6971",
"y. c #76757B",
"u. c #8D4C05",
"i. c #844C0D",
"p. c #8A4B0B",
"a. c #834807",
"s. c #934E04",
"d. c #8B5404",
"f. c #8C570B",
"g. c #8A5809",
"h. c #945404",
"j. c #9B5305",
"k. c #935B04",
"l. c #995C05",
"z. c #94530B",
"x. c #985A0B",
"c. c #874B13",
"v. c #875713",
"b. c #925915",
"n. c #AA5703",
"m. c #A35B04",
"M. c #AC5A03",
"N. c #A25806",
"B. c #B15C02",
"V. c #96650E",
"C. c #996607",
"Z. c #88661A",
"A. c #966915",
"S. c #987616",
"D. c #956F0F",
"F. c #A76805",
"G. c #B76A06",
"H. c #A87506",
"J. c #B47807",
"K. c #A27815",
"L. c #BE7D1E",
"P. c #866D28",
"I. c #867428",
"U. c #977827",
"Y. c #8F6F32",
"T. c #A37220",
"R. c #C27B07",
"E. c #897446",
"W. c #887350",
"Q. c #9C821C",
"!. c #AD8309",
"~. c #B7880A",
"^. c #A68818",
"/. c #B78813",
"(. c #B59414",
"). c #AB9017",
"_. c #998320",
"`. c #B48E25",
"'. c #AF882C",
"]. c #C58C09",
"[. c #C6960A",
"{. c #CA9913",
"}. c #CD910E",
"|. c #D7A804",
" X c #DFB002",
".X c #D2AD17",
"XX c #E5B708",
"oX c #F1C502",
"OX c #A68041",
"+X c #5B5E84",
"@X c #4D5481",
"#X c #625E81",
"$X c #6D6382",
"%X c #716783",
"&X c #746B86",
"*X c #756B8A",
"=X c #796E8C",
"-X c #7C728E",
";X c #7E7392",
":X c #757193",
">X c #6F6F92",
",X c #817694",
"<X c #847A97",
"1X c #867B9B",
"2X c #897E9C",
"3X c #8B7FA0",
"4X c #8B829D",
"5X c #87809D",
"6X c #8A888D",
"7X c #8D82A2",
"8X c #9186A5",
"9X c #9389A5",
"0X c #9387A9",
"qX c #968BAA",
"wX c #998EAD",
"eX c #9B92AD",
"rX c #9B8EB1",
"tX c #9E94B2",
"yX c #A096B3",
"uX c #A39AB4",
/* pixels */
"                                                                W                                                               ",
"                                                              @X+X                                                              ",
"                                                            5.:X7X>X                                                            ",
"                                                          4.#X2XeX5X+X                                                          ",
"                                                          5.*X2X9X4X*X5.                                                        ",
"                                                        >.q.=X<X4X8X1X#X                                                        ",
"                                                      J -.q.=X,X4XwX8X*X5.                                                      ",
"                                                    H K ;.0.*X2XwXtXqX,X#XW                                                     ",
"                                                    D [ ,.2.r.<XeXuXqX1X$X4.                                                    ",
"                                                  A C Y ' 2.r.-XeXyX9X;Xq.-.J                                                   ",
"                                                  A C V ' 0.*X<XqXwX<X%X2.[ D                                                   ",
"                                                  K ` ' 3.%X<X7XwXqX,X%X9.' S                                                   ",
"                                                L -.{ ,.0.;X7XqXeXwX7X,Xr.} S F                                                 ",
"                                                E ;.,.,.r.2XqXwXwXwXqX2Xr.{ V S                                                 ",
"                                                E 3.2.2.%X7X8X2X1X8XwX7X%X} V S                                                 ",
"                                              L R ,.2.0.*X7X1X=X,X9XeX8X-X2.' S G                                               ",
"                                              G S ' } 2.%X1X1X-X4XuXyX0X,Xw.,.[ F                                               ",
"                                              F C V Y } w.;X1X2XqXyXtX0X,Xw.,.Y S H                                             ",
"                                            >.[ M ; m Y 2.&X1X9XwXeXrX0X;X0.,.} ;.K                                             ",
"                                            5.;.m % & m { 0.,XqXyXyXtXqX-X6.,.3.3.R                                             ",
"                                            4.{ ; $ % ; { w.;X8XtXyXtXqX=X2.{ { ' T                                             ",
"                                            K C = % & M 3.*X1X0XrXrXrX8X=X2.{ I V S J                                           ",
"                                          L J C m m M ` 9.;X7XqXwXwX0X,Xq.,.{ ' Y S J                                           ",
"                                          Q R ` I V Y  .0.,X0XqXqXqX7X&X,.' { { { Y J                                           ",
"                                          P -.' Y V I ,.r.2XqXwXwXwX7X&X2.3.,.' I Y D                                           ",
"                                          K -.,.,.I M } %X2XqXwXtXtX9X,Xr.2.,.I m C F                                           ",
"                                        H D [ } ,.I M } %X3X7X4X9XeXwX7X&X2.{ V = m S E                                         ",
"                                        G F C V V M C ,.%X1X,X-X5XqXwX8X=X6.{ V = ; Y R                                         ",
"                                        A B m & % & M { w.;X,X,X9XyXtX8X;X9.{ I m m Y R L                                       ",
"                                      H F M & % $ % m Y 9.=X,X4XeXuXwX7X*X3.' I V M V D L                                       ",
"                                      H n = % $ % = V { 6.$X-X4XqXqX2X;Xr.,.I M m m m B G                                       ",
"                                      Z & % % % % m ' 3.2.9.r.,X4X,X%Xw.0.3.I m ; = & & b G                                     ",
"                                    G b . . % & & m } 2.2.,.9.*X,X*X0.2.9.3.I ; ; ; % . * Z                                     ",
"                                    B @ @ @ 2 1 : N } 2.2.3.0.%X*X$X9.2.2.,.I ; 6 4 2 @ @ ; D                                   ",
"                                  ` d 9 e u u t s 6 ' <.1.1.8.7.7.8.<.<.<. .U 4 h p u t 9 s )                                   ",
"                                  f p v.z.l.l.f.u 3 d d @.@.) #.%.#.) d z d s s v.x.l.z.v.p j /                                 ",
"                                  x V.l.m.l.d.d.w e y i t h s l E.l s h i i r r q f.k.N.x.b.k (                                 ",
"                                  Z.F.F.m.u.w w 0 p.z.p.i 3 ( $.*._ 6 3 0 i.i e e w a.j.m.F.v.)                                 ",
"                                  Z.F.k.h.s.u.a.a.s.j.c.h )  .1. .~ N 4 8 i i.y y 0 u.h.k.C.A.f                                 ",
"                                  Z.C.q a.j.N.h.s.s.p.h ) 1.7.O.^ N ; : 4 8 0 0 i v.j.u.w g.A.#.                                ",
"                                    f.p.s.j.l.h.s.u.y 7 ..e.7.X.! : ; ; 5 3 < 0 i.f.l.h.u.l.A.l                                 ",
"                                    b.x.N.j.d.d.d.a., 6  .2.o./ ! N : N U 1 , w d.g.k.m.M.G.T.#.                                ",
"                                    Y.A.m.l.k.k.k.i., 5 ] o.] / / ~ ~ ] / @ , q l.k.l.F.G.L.OX&.                                ",
"                                    W.Y.V.C.C.C.l.i., : ~ X.X.X.X.X.O.8.] 1 , d.F.F.C.H.J.'.W.6.                                ",
"                                    &.P.A.V.V.V.V.f.r 1 ! X.O.O.O.e.y.y.o.4 e f.F.C.V.D.S.Y.e.                                  ",
"                                    +.Y.K.D.Z.Z.Z.v.u 2 : ~ ] X.O.y.6Xy.] 3 u f.V.Z.A.K.U.%.E                                   ",
"                                      c /.^.Z.j k v.i.< 4 5 ! / X.e.t.O.d r i.v.k k S./.U._                                     ",
"                                      _ ^.(.I.j h z.j.i.8 6 U ] o.o.] d h p.j.c.h j ^.(.I.|                                     ",
"                                        I.(.Q.k p j.n.j.i s d #.*.#.d h c.N.n.b.k P.).Q.%.                                      ",
"                                        %._.^.S.b.N.B.n.z.i p U.'.U.p q j.M.M.x.A.^.).v |                                       ",
"                                        T c ^./.J.F.B.M.N.z.H.{..X[.C.s.n.B.B.G.~.~.S._                                         ",
"                                          / P./.].R.G.G.M.m.J. XoX|.F.j.M.G.R.].~.S.j T                                         ",
"                                          D _ P.!.[.}.R.G.F.J. XoX|.H.F.J.}.{.~.S.j ( J                                         ",
"                                          J ' _ p S.`.`./.J.~. XoX|.J.H./.`._.Z.s ( [ P                                         ",
"                                            -.^ 2 g j P.K.H.~. XoX|.!.H.S.x s 2 : I -.                                          ",
"                                            :.' ; O @ g a v.H.|.XX[.D.g.a > O o ; ` ;.                                          ",
"                                              ;.m $ o @ , t A.].|.~.v.w , + . $ m { >.                                          ",
"                                                m $ $ + , u D.].[.~.x.0 , O $ % C -.                                            ",
"                                                n * $ O > p H.|.XX[.F.y > o $ * n                                               ",
"                                                  * $ o @ h S.(..X(.Z.s + . . * Z                                               ",
"                                                  b % . - 6 z c E.=.d 5 % . $ b                                                 ",
"                                                    % % & V ' ..8. .~ M & % % b                                                 ",
"                                                            [ :.6.:.[ B b * b                                                   ",
"                                                                                                                                "
};
