/* XPM */
static char *_c794a0bc0bb46a992eaa0ec802cae4f0QPlRulHzomy2tqJ[] = {
/* columns rows colors chars-per-pixel */
"64 64 30 1 ",
"  c None",
". c black",
"X c gray13",
"o c gray15",
"O c gray36",
"+ c #6D4C41",
"@ c #F0470D",
"# c #F4511E",
"$ c #8D5949",
"% c #FFBF00",
"& c #FFC20E",
"* c #0E66E0",
"= c #2979FF",
"- c #00EDF7",
"; c #00E5FF",
": c gray58",
"> c gray62",
", c gray70",
"< c #B4B4B4",
"1 c #E1E1E1",
"2 c gray89",
"3 c #E4E4E4",
"4 c #E7E7E7",
"5 c gray93",
"6 c #EFEFEF",
"7 c gray94",
"8 c #F1F1F1",
"9 c #F3F3F3",
"0 c #F4F4F4",
"q c gray99",
/* pixels */
"                                                                ",
"                                                                ",
"                                                                ",
"                                                                ",
"                                                                ",
"                                                                ",
"                                                                ",
"                             0<<,,q                             ",
"                             XXXooo                             ",
"                            9XXXooo                             ",
"                             <<<,,,                             ",
"                             <<<,,,                             ",
"                           XXXXXooooo                           ",
"                           XXXXXooooo                           ",
"                        6<<<<<<<,,,,,,,                         ",
"                        XXXXXXXXoooooooo                        ",
"                        XXXXXXXXoooooooo                        ",
"                        <<<<<<==**,,,,,,                        ",
"                       6<<<<<<==**,,,,,,                        ",
"                      XXXXXXX=;;--*ooooooo                      ",
"                      &&&&&;;=;;--*--%%%%%                      ",
"                      &&&&&;;=;;--*--%%%%%                      ",
"                      &&&&&;;;==**---%%%%%                      ",
"                      &&&&&;;;==**---%%%%%                      ",
"                      &&&&&==;;;---**%%%%%                      ",
"                   XXX&&&&&;;=;;--*--%%%%%ooo                   ",
"                  9XXX&&&&&;;=;;--*--%%%%%ooo9                  ",
"                 <<>>>&&&&&&&;==**-%%%%%%%:::OO                 ",
"                 <<>>>&&&&&&&;==**-%%%%%%%:::OO                 ",
"                 XXXXX&&&&&&&=;;--*%%%%%%%ooooo                 ",
"                 <<>>>&&&&&&&&;;--%%%%%%%%:::OO                 ",
"                 <<>>>&&&&&&&&;;--%%%%%%%%:::OO                 ",
"                 XXXXX&&&&&&&&==**%%%%%%%%ooooo                 ",
"                 XXXXX&&&&&&&&==**%%%%%%%%ooooo                 ",
"                 <<>>>&&&&&&&&&&%%%%%%%%%%:::OO                 ",
"                  2XXX&&&&&&&&&&%%%%%%%%%%ooo                   ",
"                   XXX&&&&&&&&&&%%%%%%%%%%ooo                   ",
"                      &&&&&&&&&&%%%%%%%%%%                      ",
"                      &&&&&&&&&&%%%%%%%%%%                      ",
"                      &&&&&###&&%%@@@%%%%%                      ",
"                   >>>&&&&&##+##@@$@@%%%%%:::                   ",
"                  3>>>&&&&&##+##@@$@@%%%%%:::                   ",
"                 XXXXX&&&&&###++$$@@@%%%%%ooooo                 ",
"                 XXXXX&&&&&###++$$@@@%%%%%ooooo                 ",
"                 <<>>>&&&&&##+##@@$@@%%%%%:::OO                 ",
"                 XXXXX&&&&&###++$$@@@%%%%%ooooo                 ",
"                 XXXXX&&&&&###++$$@@@%%%%%ooooo                 ",
"                 <<>>>&&&&&##+##@@$@@%%%%%:::OO                 ",
"                 <<>>>&&&&&##+##@@$@@%%%%%:::OO                 ",
"                 XXXXX&&&&&###++$$@@@%%%%%ooooo                 ",
"                  2>>>&&&&&&&###@@@%%%%%%%:::3                  ",
"                   >>>&&&&&&&###@@@%%%%%%%:::                   ",
"                      &&&&&&&&&&%%%%%%%%%%                      ",
"                      &&&&&&&&&&%%%%%%%%%%                      ",
"                        &&&&&&XXoo%%%%%%                        ",
"                        &&&&&&XXoo%%%%%%                        ",
"                         &&&&X....o%%%%                         ",
"                                                                ",
"                                                                ",
"                                                                ",
"                                                                ",
"                                                                ",
"                                                                ",
"                                                                "
};
