/* XPM */
static char *result[] = {
/* columns rows colors chars-per-pixel */
"64 64 95 2 ",
"   c #131616",
".  c #141515",
"X  c #141616",
"o  c #202222",
"O  c #363838",
"+  c #373838",
"@  c #41523B",
"#  c #41533B",
"$  c #414242",
"%  c #414343",
"&  c #5B6757",
"*  c #328125",
"=  c #318225",
"-  c #328224",
";  c #328225",
":  c #3C8830",
">  c #4B9A3D",
",  c #4A9B3D",
"<  c #4B9B3D",
"1  c #4B9A3E",
"2  c #4A9B3E",
"3  c #4B9B3E",
"4  c #5AC62A",
"5  c #5BC62A",
"6  c #5AC72A",
"7  c #5BC72A",
"8  c #5AC62B",
"9  c #5BC62B",
"0  c #5AC72B",
"q  c #5BC72B",
"w  c #63C935",
"e  c #63CA35",
"r  c #63C936",
"t  c #63CA36",
"y  c #4B8442",
"u  c #4C8443",
"i  c #4D8943",
"p  c #509445",
"a  c #519645",
"s  c #519446",
"d  c #519546",
"f  c #55974A",
"g  c #57984D",
"h  c #5D9654",
"j  c #648E5D",
"k  c #54A047",
"l  c #57A046",
"z  c #54A048",
"x  c #60AA4C",
"c  c #65AF4F",
"v  c #67B146",
"b  c #67B147",
"n  c #68B547",
"m  c #6BBC48",
"M  c #6CBC48",
"N  c #6BBD4D",
"B  c #62A557",
"V  c #63A757",
"C  c #63A758",
"Z  c #65A95A",
"A  c #65A95B",
"S  c #66AA5A",
"D  c #66AB5A",
"F  c #69AC5E",
"G  c #6FB550",
"H  c #68B157",
"J  c #71BC5B",
"K  c #6CAD61",
"L  c #71B067",
"P  c #7EBF62",
"I  c #7AB869",
"U  c #6CC348",
"Y  c #6CC349",
"T  c #6CC449",
"R  c #6FC749",
"E  c #6FC849",
"W  c #70C74D",
"Q  c #72CE4A",
"!  c #73CE4A",
"~  c #72CF4A",
"^  c #73CF4A",
"/  c #72CE4B",
"(  c #73CE4B",
")  c #70C84D",
"_  c #77D04E",
"`  c #74C752",
"'  c #73C156",
"]  c #73C454",
"[  c #74C358",
"{  c #79D152",
"}  c #7AD153",
"|  c #83BC78",
" . c #85C66E",
".. c #87CD6D",
"X. c #88CC70",
/* pixels */
"; ; ; ; 3 3 3 3 3 3 3 3 3 3 3 3 3 z q q q 9 q 9 q ^ q 9 9 q q q q 9 q q q q q q q q q q q q t ; ; ; ; ; ; ; ; ; ; ; ; ; c q q q ",
"; ; ; ; 3 3 3 3 3 3 3 3 3 3 3 3 3 z q q q q q q q ^ q q q q q q q q q q q q 7 9 q 9 q q q q r ; ; ; ; ; ; ; ; ; ; ; ; ; c q q q ",
"; ; - ; 3 3 3 3 3 3 3 3 3 3 3 3 3 z q q 7 5 q 7 q ^ q q 0 q q q q 8 q q q q q q q q q q q q t ; ; ; ; ; ; ; ; ; ; ; ; ; c q q q ",
"; ; ; ; 3 3 3 3 3 3 3 1 3 3 3 3 3 z q 5 q 8 q 5 q ^ q q 5 9 q q q 5 q q q q q q q q q q q q t ; ; ; ; ; ; ; ; ; ; ; ; ; c q 9 q ",
"; ; ; ; 3 3 3 3 3 3 3 3 3 3 3 > 3 k q q q q q q q ^ q q q q q q q 9 q q q 0 0 q 0 0 q q q 0 t ; ; ; ; = ; ; ; ; ; ; ; ; c q 0 q ",
"; - - - 3 3 3 3 3 3 3 3 < 3 < < 3 z q q q 4 q 5 9 ^ q 7 8 q q q q 8 q q q q q q q q q q q q t ; ; ; ; ; ; ; ; ; ; ; ; ; c q q q ",
"= ; ; - , < 3 3 3 3 3 < < < < < 3 z q q q 9 q q 9 ^ q q 9 q q 7 q q q q q q q q q q q q q q t ; ; ; ; ; ; ; ; ; ; ; ; ; c q q q ",
"f f f f B B B B B B F F F F F F F L ] ] ] ] ] ] ] ..] ] ] ] ] ] _ _ _ _ _ _ _ N N N N N N N ' f f f f f f x x x x x x x  ._ _ _ ",
"* * ; ; ; * ; ; ; ; 3 3 3 3 3 3 3 z 3 3 3 3 3 3 3 Z 3 3 3 3 3 3 q q q q q q q ; ; * - - ; ; : ; * ; ; - ; 9 q q q q q q { q q q ",
"= ; ; - - ; ; ; ; ; 3 < < < < < 3 z 3 < 3 2 3 3 3 Z 3 3 < 3 3 2 q q q q q q q ; ; ; ; ; ; ; : ; ; ; ; ; ; q q q q q q q { q q q ",
"; ; ; ; ; ; ; ; ; ; 3 3 3 3 3 3 3 z 3 1 3 3 1 3 3 Z 3 3 3 3 3 3 q q q 5 q 9 7 ; - ; ; ; ; ; : ; ; - ; ; ; 9 9 q 0 7 q q { 5 9 9 ",
"; ; = ; ; = ; ; ; ; 3 2 3 3 3 3 3 z 3 3 3 3 3 3 3 Z 3 3 3 3 3 1 q q 7 0 0 0 q ; ; ; ; ; ; ; : ; ; ; ; ; ; q 8 q q q 6 q { q q 6 ",
"; ; ; ; ; ; ; ; ; ; 3 3 3 3 3 3 3 z 3 3 3 3 3 3 3 Z 3 3 3 3 3 1 q q q 0 q q q ; ; ; ; ; ; ; : ; ; ; ; ; ; q q 0 q q q q { q q 0 ",
"; * ; ; ; ; ; ; ; ; 3 3 3 3 3 3 3 z 3 3 3 3 3 3 3 Z 3 3 3 3 3 3 q 9 9 9 q 9 7 ; ; ; ; ; ; ; : ; ; = ; ; ; 9 q q q q q q { 7 q q ",
"q q q q q q q q 8 q X X X X X X X o X X X X X X X h 3 3 3 3 3 3 3 3 3 3 3 3 3 X X X X X X X o X X X X X X q q q q q q q { q q q ",
"q q q 7 q q 9 q q q . X X X X X X o X   . X X X X h 3 3 3 3 3 1 1 3 3 1 3 3 3 X X X X X X X o X X X X X X q q 0 q q q q { q q 0 ",
"q q q q q q 9 q q q X X . X X X X o X X X X X X X h 3 3 3 3 < 1 1 1 3 3 3 3 2 X X X X X X X o X X X X X X q q 0 q q q q { q q 0 ",
"q q q q q q q q 8 q X X X X X X X o X X X X X X X h 3 3 3 3 3 3 3 3 3 3 3 3 3 X X X X X X X o X X X X X X q q q q q q q { q q q ",
"q q q 7 q q 9 q q q . X X X X X X o X   . X X X X h 3 3 3 3 3 1 1 3 3 1 3 3 3 X X X X X X X o X X X X X X q q 0 q q q q { q q 0 ",
"q q q q q q 9 q 9 9 . X . X X . X o X X X X X X X h 3 3 3 3 3 1 1 3 3 3 3 3 3 X X X X X X X o X X X X X X q q 0 q q 7 q { q q q ",
"q q q q q q 9 q 8 q . X X X X X X o X X X X X X X h 1 1 1 3 1 1 1 1 3 3 3 3 3 X X X X X X X o X X X X X X q q 0 0 0 0 q { q 0 q ",
"a a a a ^ ^ ! ^ ! ! + + + + + + + % + + + + + + + P / ( ( Q / / s s s d d d d O + O O O O O % O O O O O + ^ ^ ~ ~ ^ ~ ^ X.S D S ",
"; ; ; ; q q 9 q 9 9 . X . X X . X o X X X X X X X n q q q q q q ; ; ; ; ; ; ; X X X X X X X o X X X X X X q q 0 q q 7 q [ 3 3 3 ",
"; - ; ; 6 5 0 q q 8 X X X X X X X o X X X X X X X n q q q q q q ; ; ; ; ; ; ; X X X X X X X o X X X X . X q q q q 0 q q [ 1 3 3 ",
"; ; ; ; q q q q q 9 X X X X X X X o X X X X X X X n 9 9 9 q q 8 ; ; ; ; ; ; ; X X X X X X X o X X   X X X q q 0 0 9 8 q [ 3 3 3 ",
"; ; ; ; q q 9 q 9 9 . X . X X . X o X X X X X X X n q q q q q q ; ; ; ; ; ; ; X X X X X X X o X X X X X X q q 0 q q 7 q [ 3 3 3 ",
"; - ; ; 6 5 0 q q 8 X X X X X X X o X X X X X X X n q q q q q q ; ; ; ; ; ; ; X X X X X X X o X X X X . X q q q q 0 q q [ 1 3 3 ",
"; ; ; ; q q q q q 9 X X X X X X X o X X X X X X X n 9 9 9 q q 8 ; ; ; ; ; ; ; X X X X X X X o X X   X X X q q 0 0 9 8 q [ 3 3 3 ",
"; ; ; ; q q q 9 q q X X X X X X X o X X X X X X X n q q q q q q ; ; ; ; ; ; ; . X X X X X X o X X   X X X 9 q 0 q 9 9 q [ 3 3 3 ",
"; - ; ; 6 5 0 q q 8 q q q q q q q e q q q q q q q # X X X X X X X X X X X X X 9 q q q 0 q 0 r 9 q q q q q 3 3 3 1 3 3 3 K 1 3 3 ",
"; ; - ; 7 7 q q 0 q q q q q 0 q q t q q q q q q q @ X X X X X X X X X X X X X 9 q q q 0 q q r q q q q 0 9 3 3 3 3 3 3 3 K 3 3 3 ",
"; ; ; ; q q q 9 q q 9 9 q 9 q q q t 0 q q q q q q #   X X X X . X X X X X . X q q q q 9 q 9 t 0 q q 9 q q 3 3 3 3 3 3 3 K 3 3 3 ",
"; - ; ; 6 5 0 q q 8 q q q q q q q e q q q q q q q # X X X X X X X X X X X X X 9 q q q 0 q 0 r 9 q q q q q 3 3 3 1 3 3 3 K 1 3 3 ",
"; ; ; ; q q q 9 q q 9 9 q 9 q q q t 0 q q q q q q #   X X X X . X X X X X . X q q q q 9 q 9 t 0 q q 9 q q 3 3 3 3 3 3 3 K 3 3 3 ",
"; ; ; ; q q 9 9 q q 9 q 9 q 9 q q t q q q q q q q # X X X X . X X X X X X . X q q q q q q q t 0 q q q q 7 3 3 3 3 3 3 3 K 3 3 3 ",
"l l l l T U Y Y Y T Y T Y T Y Y Y ` b b b b b b b & + O + O O O + O O + O O + v b v b v v b G W ) ) ) W W A Z A A Z A A | H H H ",
"q q q q ; ; ; ; ; ; ; ; ; ; ; ; * : X X X X X X X O X X X X X X X X X X X X X X X X X X X X o 3 3 3 3 3 3 3 3 3 3 3 3 3 J q 0 q ",
"q 7 q 7 ; ; ; ; ; ; ; ; ; ; ; ; ; : X X X X X X X + X X X X . X X X X X X . X X X X X X X X o 3 3 3 3 3 3 3 3 3 3 3 3 3 J q q q ",
"7 q q 7 ; ; ; ; ; ; ; ; ; ; ; ; ; : X X X . X X . O . . . X   . X X X X X X X X X X X X X X o 3 3 3 3 3 3 3 3 3 3 3 3 3 J q q q ",
"q q q q ; ; ; ; ; ; ; ; ; ; ; ; * : X X X X X X X O X X X X X X X X X X X X X X X X X X X X o 3 3 3 3 3 3 3 3 3 3 3 3 3 J q 0 q ",
"7 q q q ; ; ; ; ; ; ; ; ; ; ; ; ; : X X . X X X X + X X X X X X X X X X X X X X X X X X X X o 3 3 3 3 3 3 3 1 3 3 3 3 3 J 0 q q ",
"q q q q - ; ; ; ; ; ; ; ; ; ; ; ; : X X X X X X X O X X X X X X X X X X X X X X X X X X X X o 3 3 3 3 3 3 3 3 3 3 3 3 3 J q 0 q ",
"q q q q ; ; ; ; ; ; ; ; ; ; ; ; * : X X X X X X X O X X X X X X X X X X X X X X X X X X X X o 3 3 3 3 3 3 3 3 3 3 3 3 3 J q 0 q ",
"q q q q ; ; ; ; ; ; 9 9 q 9 9 9 q r X X X X X X X + X X X X X X X X X X X X X X X X X X X X o q q 0 q 0 q ; ; ; ; ; ; ; g ; ; ; ",
"q q q q - ; ; ; ; ; q 0 q q q 9 q t X X X X X X X O X X X X X X X X X X X X X X X X X X X X o 0 0 q q q 0 ; ; ; ; ; ; ; g ; ; ; ",
"q 5 7 q - - ; ; ; ; q q q q q 9 q t X . X X X X X O X X X X . X X . X X X X X X X X X X . X o 7 7 q q q 6 ; ; ; ; ; ; ; g ; ; ; ",
"q q q q ; ; ; ; ; ; 9 9 q 9 9 9 q r X X X X X X X + X X X X X X X X X X X X X X X X X X X X o q q 0 q 0 q ; ; ; ; ; ; ; g ; ; ; ",
"q q q q - ; ; ; ; ; q 0 q q q 9 q t X X X X X X X O X X X X X X X X X X X X X X X X X X X X o 0 0 q q q 0 ; ; ; ; ; ; ; g ; ; ; ",
"q 5 7 q - - ; ; ; ; q q q q q 9 q t X . X X X X X O X X X X . X X . X X X X X X X X X X . X o 7 7 q q q 6 ; ; ; ; ; ; ; g ; ; ; ",
"q q q q ; ; ; ; ; ; 9 9 q 9 9 9 q r X X X X X X X + X X X X X X X X X X X X X X X X X X X X o q q 0 q 0 q ; ; ; ; ; ; ; g ; ; ; ",
"^ ! ^ ^ C C C V C C ! ! ^ ! ! ! ^ } + O + + O + + j i i i i i i m M m m m M m + + + O O + O $ ^ ^ ^ ^ ^ ^ p p p p p p p I E E R ",
"q 5 7 q 3 3 3 3 3 3 q q q q q 9 q t X . X X X X X y ; ; ; ; ; ; q q q q q 0 4 X X X X X . X o 7 7 q q q 6 ; ; ; ; ; ; ; c 9 q q ",
"q q 5 q 3 3 3 3 3 3 q q q q q 9 q t X X X X X X X y ; ; ; ; ; ; q 0 q 7 q 6 9 X X X X X X X o q 7 q q 6 q ; ; ; ; ; ; ; c q 7 q ",
"q 9 q q 3 3 3 < 3 3 9 9 q q 9 9 q t X X X X X X X u ; ; ; ; ; ; q q q 7 q 7 q X X X X X X X o 0 7 q q 0 q ; ; ; ; ; ; ; c 0 7 q ",
"q q 5 q 3 3 3 3 3 3 q q q q q 9 q t X X X X X X X y ; ; ; ; ; ; q 0 q 7 q 6 9 X X X X X X X o q 7 q q 6 q ; ; ; ; ; ; ; c q 7 q ",
"q 9 q q 3 3 3 < 3 3 9 9 q q 9 9 q t X X X X X X X u ; ; ; ; ; ; q q q 7 q 7 q X X X X X X X o 0 7 q q 0 q ; ; ; ; ; ; ; c 0 7 q ",
"7 q q q 3 3 3 3 3 3 q 0 9 q q q q t X X . X X X X u ; ; ; ; ; ; q q q q q 0 q X X X X X X X o 0 q q q 0 q ; ; ; ; ; ; ; c 0 q q ",
"3 3 3 3 3 3 3 3 3 3 q q q q q 9 q t ; ; ; ; ; ; ; p ; ; ; ; ; ; q 0 q 7 q 6 9 5 q 7 6 6 6 q w q 7 q q 6 q 3 3 3 3 3 3 3 K 3 3 3 ",
"3 3 3 3 3 3 3 3 3 3 9 q 9 q 9 9 9 t ; ; ; * ; * * p ; * * ; * * 9 9 q 6 0 6 q 5 q 7 0 6 6 q w q 7 0 q 6 q 3 3 3 3 3 3 3 K 3 3 3 ",
"3 3 3 3 3 3 3 3 3 3 q 0 9 q q q q t ; ; ; ; ; ; ; p ; ; ; ; ; ; q q q q q 0 q q q 0 0 q 9 q t 0 q q q 0 q 3 1 3 3 3 3 3 K 3 3 1 ",
"3 3 3 3 3 3 3 3 3 3 q 0 q q q 9 q t ; ; ; ; ; * ; p ; ; ; ; ; ; q q q q q 0 0 q 0 q 0 0 q 0 t 0 0 q q q 0 3 3 3 3 3 3 3 K 3 3 3 ",
"3 3 3 3 3 3 3 3 3 3 9 q 9 q 9 9 9 t ; ; ; * ; * * p ; * * ; * * 9 9 q 6 0 6 q 5 q 7 0 6 6 q w q 7 0 q 6 q 3 3 3 3 3 3 3 K 3 3 3 ",
"3 3 3 3 3 3 3 3 3 3 q 0 9 q q q q t ; ; ; ; ; ; ; p ; ; ; ; ; ; q q q q q 0 q q q 0 0 q 9 q t 0 q q q 0 q 3 1 3 3 3 3 3 K 3 3 1 ",
"3 3 3 3 3 3 3 3 3 3 q 0 q q q 9 q t ; ; ; ; ; * ; p ; ; ; ; ; ; q q q q q 0 0 q 0 q 0 0 q 0 t 0 0 q q q 0 3 3 3 3 3 3 3 K 3 3 3 "
};
