/* XPM */
static char * Untitled0_xpm[] = {
"32 32 788 2",
"  	c #77BDAB",
". 	c #5D9FA8",
"+ 	c #6DB1A9",
"@ 	c #63A6A8",
"# 	c #67ABA9",
"$ 	c #68ABA9",
"% 	c #64A7A9",
"& 	c #6AADA9",
"* 	c #61A3A8",
"= 	c #4D8FA6",
"- 	c #4D90A6",
"; 	c #5191A7",
"> 	c #84A9B2",
", 	c #ACC7BD",
"' 	c #93C2B4",
") 	c #6AAAA9",
"! 	c #66A9A8",
"~ 	c #68ACA8",
"{ 	c #4F90A3",
"] 	c #48889D",
"^ 	c #47879C",
"/ 	c #49899C",
"( 	c #6AADA0",
"_ 	c #75B8A2",
": 	c #77BBA2",
"< 	c #78BCA2",
"[ 	c #79BDA2",
"} 	c #76BAA2",
"| 	c #76B9A2",
"1 	c #72C3B9",
"2 	c #5CADB7",
"3 	c #69BAB8",
"4 	c #60B2B7",
"5 	c #64B5B8",
"6 	c #64B6B8",
"7 	c #62B3B8",
"8 	c #66B7B8",
"9 	c #5EB0B8",
"0 	c #4EA1B6",
"a 	c #51A3B6",
"b 	c #84B7C0",
"c 	c #B6D9CE",
"d 	c #C5ECD2",
"e 	c #BCE7CE",
"f 	c #8FC7C1",
"g 	c #68B6B9",
"h 	c #65B6B8",
"i 	c #51A4B6",
"j 	c #4EA1B5",
"k 	c #4FA2B5",
"l 	c #6ABBB8",
"m 	c #72C4B9",
"n 	c #81D4BB",
"o 	c #8CDFBC",
"p 	c #8EE2BD",
"q 	c #8EE3BD",
"r 	c #8BDFBC",
"s 	c #80D2BB",
"t 	c #76C5BA",
"u 	c #79C7BB",
"v 	c #56AAB9",
"w 	c #54A7B8",
"x 	c #55A8B9",
"y 	c #52A7B8",
"z 	c #53A7B8",
"A 	c #54A7B9",
"B 	c #57A7B9",
"C 	c #82B9C1",
"D 	c #B6DAD0",
"E 	c #BEECD0",
"F 	c #B1EDCB",
"G 	c #BFEDD1",
"H 	c #B3DACE",
"I 	c #86BCC2",
"J 	c #5BAAB9",
"K 	c #53A5B8",
"L 	c #4FA4B8",
"M 	c #54A9B9",
"N 	c #6BBEBB",
"O 	c #7ACDBD",
"P 	c #7ED1BD",
"Q 	c #7ED2BD",
"R 	c #74C0BD",
"S 	c #89BFC3",
"T 	c #ADD3CD",
"U 	c #88BBC3",
"V 	c #6EAFBD",
"W 	c #55A6B9",
"X 	c #7FB7C1",
"Y 	c #76B3BF",
"Z 	c #83B9C2",
"` 	c #9BC6C8",
" .	c #B5DAD0",
"..	c #C1EED2",
"+.	c #A0E6C5",
"@.	c #8FDFC0",
"#.	c #A3E7C6",
"$.	c #BDEAD0",
"%.	c #B5D9CF",
"&.	c #98C4C7",
"*.	c #86BAC2",
"=.	c #59A7B9",
"-.	c #50A4B8",
";.	c #54A9B8",
">.	c #59ADB9",
",.	c #5AAEB9",
"'.	c #6DB4BC",
").	c #8BC1C3",
"!.	c #A4CCCA",
"~.	c #C3DED5",
"{.	c #E2F5E0",
"].	c #8CBDC4",
"^.	c #BCD9D2",
"/.	c #91C5C5",
"(.	c #63AFBB",
"_.	c #57ACB9",
":.	c #90C3C4",
"<.	c #AFD2CE",
"[.	c #ABCFCD",
"}.	c #BDDED2",
"|.	c #D4F0DA",
"1.	c #C2EED2",
"2.	c #9FE8C5",
"3.	c #84D7BE",
"4.	c #77CBBC",
"5.	c #86D8BF",
"6.	c #C1EDD2",
"7.	c #D1EDD9",
"8.	c #C0DFD3",
"9.	c #8EBFC4",
"0.	c #85BAC2",
"a.	c #84B9C2",
"b.	c #63ABBB",
"c.	c #51A5B8",
"d.	c #4DA4B8",
"e.	c #67ACBC",
"f.	c #7CB5C0",
"g.	c #9FC7C9",
"h.	c #CCE2D8",
"i.	c #E6F4E2",
"j.	c #E4F7E1",
"k.	c #D3F6D9",
"l.	c #D0E9D9",
"m.	c #A3CCCA",
"n.	c #89CEC1",
"o.	c #6BBCBB",
"p.	c #6CBFBB",
"q.	c #80C7BF",
"r.	c #A0CEC9",
"s.	c #BFDED3",
"t.	c #C4EDD3",
"u.	c #B5EFCC",
"v.	c #A1E9C5",
"w.	c #82D6BD",
"x.	c #75C8BC",
"y.	c #78CCBC",
"z.	c #76C9BC",
"A.	c #86D7BF",
"B.	c #A0E8C5",
"C.	c #B0ECCB",
"D.	c #BBEACF",
"E.	c #D3ECDA",
"F.	c #DCEEDE",
"G.	c #DBEDDD",
"H.	c #9BC5C8",
"I.	c #6EB0BD",
"J.	c #A4CBCA",
"K.	c #CFE5D9",
"L.	c #E4F2E1",
"M.	c #EEFAE5",
"N.	c #EEFDE4",
"O.	c #D2F6D8",
"P.	c #A4EBC6",
"Q.	c #B4EBCC",
"R.	c #74BABD",
"S.	c #64B6BA",
"T.	c #5BAFB9",
"U.	c #5FB2B9",
"V.	c #5DB1B9",
"W.	c #6CB1BC",
"X.	c #9EC8C8",
"Y.	c #C4E8D4",
"Z.	c #B7EECD",
"`.	c #80D6BD",
" +	c #74C7BC",
".+	c #78CCBD",
"++	c #73C6BC",
"@+	c #77CABC",
"#+	c #7DD2BD",
"$+	c #8CD1C2",
"%+	c #C4F0D2",
"&+	c #EEFDE5",
"*+	c #F5FFE8",
"=+	c #DFEFDF",
"-+	c #D5E9DB",
";+	c #D3E8DB",
">+	c #E2F2E0",
",+	c #F1FBE6",
"'+	c #F6FEE8",
")+	c #EDFCE4",
"!+	c #D1F5D8",
"~+	c #A5EBC6",
"{+	c #90E8BF",
"]+	c #6DC1BB",
"^+	c #58ACB8",
"/+	c #4FA5B8",
"(+	c #4BA3B8",
"_+	c #78B3BF",
":+	c #B1D5CE",
"<+	c #C9EDD4",
"[+	c #CBF2D5",
"}+	c #A8D5CB",
"|+	c #60B1BA",
"1+	c #64B8BA",
"2+	c #5EB0B9",
"3+	c #65B7BA",
"4+	c #60B3BA",
"5+	c #61B4BA",
"6+	c #66B9BA",
"7+	c #6DBFBB",
"8+	c #9BE6C4",
"9+	c #C5F3D3",
"0+	c #F6FFE9",
"a+	c #E9FBE2",
"b+	c #BCF0CF",
"c+	c #A8ECC7",
"d+	c #91E8BF",
"e+	c #92E8C0",
"f+	c #51A6B8",
"g+	c #4BA3B7",
"h+	c #4CA3B8",
"i+	c #4AA3B7",
"j+	c #47A2B7",
"k+	c #7DB5C0",
"l+	c #B0D5CE",
"m+	c #BFEAD1",
"n+	c #B0EECA",
"o+	c #B5EECC",
"p+	c #C5E8D4",
"q+	c #9FC8C9",
"r+	c #5CA9BA",
"s+	c #4EA5B8",
"t+	c #5FB3B9",
"u+	c #7DD0BD",
"v+	c #9CE8C4",
"w+	c #CDF4D6",
"x+	c #E6FBE1",
"y+	c #F4FEE8",
"z+	c #C8F3D4",
"A+	c #A6ECC7",
"B+	c #96E9C1",
"C+	c #93E7C0",
"D+	c #87DBBE",
"E+	c #58A6BA",
"F+	c #98C3C7",
"G+	c #77B3BF",
"H+	c #8DBDC4",
"I+	c #A5CACB",
"J+	c #B7DAD0",
"K+	c #BDE9D0",
"L+	c #A8E9C8",
"M+	c #8BDCC0",
"N+	c #92DFC1",
"O+	c #B6EFCD",
"P+	c #C0E5D2",
"Q+	c #9DC6C8",
"R+	c #7DB6C0",
"S+	c #8ABCC4",
"T+	c #83B8C2",
"U+	c #61B4B9",
"V+	c #7DD1BD",
"W+	c #99E7C3",
"X+	c #9EEAC4",
"Y+	c #C1F2D1",
"Z+	c #C4F2D2",
"`+	c #A7ECC7",
" @	c #91E4C0",
".@	c #85D9BE",
"+@	c #7BCEBC",
"@@	c #6DC0BB",
"#@	c #57ABB9",
"$@	c #73BFBD",
"%@	c #AACECC",
"&@	c #BADDD1",
"*@	c #C9EAD6",
"=@	c #A8E8C8",
"-@	c #8ADAC0",
";@	c #78CDBC",
">@	c #7CD0BD",
",@	c #94E1C2",
"'@	c #B5EDCC",
")@	c #CAEED5",
"!@	c #C4E6D4",
"~@	c #B0D4CE",
"{@	c #9ACBC7",
"]@	c #63B4BA",
"^@	c #60B4BA",
"/@	c #7CD1BD",
"(@	c #8DE3BF",
"_@	c #A5ECC6",
":@	c #9AE4C3",
"<@	c #89DBBF",
"[@	c #7BD0BD",
"}@	c #4EA3B8",
"|@	c #7BCDBD",
"1@	c #8BC3C3",
"2@	c #B6DCCF",
"3@	c #B6E4CE",
"4@	c #AFE8CB",
"5@	c #8CDBC0",
"6@	c #79CDBC",
"7@	c #96E2C2",
"8@	c #AAEAC9",
"9@	c #B1E6CC",
"0@	c #BBE2D0",
"a@	c #A6D1CA",
"b@	c #83C5C0",
"c@	c #6BBDBB",
"d@	c #85DABE",
"e@	c #86DCBE",
"f@	c #7ACEBD",
"g@	c #6ABDBB",
"h@	c #5FB2BA",
"i@	c #69BCBB",
"j@	c #7AB9BF",
"k@	c #A1D6C8",
"l@	c #8FCFC3",
"m@	c #80D0BE",
"n@	c #74C8BC",
"o@	c #72C5BB",
"p@	c #71C4BB",
"q@	c #72C4BC",
"r@	c #72C5BC",
"s@	c #7DD3BD",
"t@	c #82CDBF",
"u@	c #99D5C5",
"v@	c #80C2C0",
"w@	c #5EB1B9",
"x@	c #61B3BA",
"y@	c #61ABBB",
"z@	c #71B0BE",
"A@	c #54A6B9",
"B@	c #62B5BA",
"C@	c #69BCBA",
"D@	c #54A8B8",
"E@	c #ACD3CD",
"F@	c #9BD1C6",
"G@	c #72B9BD",
"H@	c #63B5BA",
"I@	c #64B7BA",
"J@	c #60B3B9",
"K@	c #63B6BA",
"L@	c #65B8BA",
"M@	c #5CB0B9",
"N@	c #56A6B9",
"O@	c #B3D2CF",
"P@	c #59A7BA",
"Q@	c #4DA3B8",
"R@	c #4EA4B8",
"S@	c #B4D7D0",
"T@	c #C6ECD4",
"U@	c #BBDFD1",
"V@	c #92C2C5",
"W@	c #66ACBC",
"X@	c #A1C9C9",
"Y@	c #DFF0DF",
"Z@	c #C2DCD4",
"`@	c #B7D6D1",
" #	c #85B9C2",
".#	c #69ADBC",
"+#	c #5AA8BA",
"@#	c #D2F5D9",
"##	c #A9EBC8",
"$#	c #C2F0D2",
"%#	c #BAE0D1",
"&#	c #68ADBC",
"*#	c #54A5B9",
"=#	c #53A5B9",
"-#	c #61AABB",
";#	c #84BAC1",
">#	c #D9F5DC",
",#	c #EFFDE5",
"'#	c #F1FDE6",
")#	c #C2DDD4",
"!#	c #ACCFCD",
"~#	c #64ACBC",
"{#	c #52A6B8",
"]#	c #50A5B8",
"^#	c #94E7C1",
"/#	c #8ADEBF",
"(#	c #91E3C1",
"_#	c #BFEFD1",
":#	c #BDE1D1",
"<#	c #A0CAC9",
"[#	c #86BBC2",
"}#	c #73B2BE",
"|#	c #7BB5BF",
"1#	c #74B2BE",
"2#	c #7EB6C1",
"3#	c #72B1BE",
"4#	c #80B8C1",
"5#	c #98C5C7",
"6#	c #B5DACF",
"7#	c #C8F1D5",
"8#	c #AFEDCA",
"9#	c #D9F7DC",
"0#	c #E1F9DF",
"a#	c #F1FEE6",
"b#	c #CCE3D8",
"c#	c #94C6C6",
"d#	c #6EBABC",
"e#	c #61B5BA",
"f#	c #56A7B9",
"g#	c #7CB6C0",
"h#	c #BDDAD3",
"i#	c #89DDBF",
"j#	c #6EC1BC",
"k#	c #7FD2BD",
"l#	c #BEEFD0",
"m#	c #DEF7DD",
"n#	c #D3EBDA",
"o#	c #B2D4CF",
"p#	c #BBD8D2",
"q#	c #AAD1CC",
"r#	c #51A9B8",
"s#	c #4FA7B8",
"t#	c #92C4C5",
"u#	c #C0DCD4",
"v#	c #C8E4D6",
"w#	c #E0F7DF",
"x#	c #C9F2D4",
"y#	c #9AE8C3",
"z#	c #8FE3C0",
"A#	c #97E8C2",
"B#	c #9BEAC3",
"C#	c #D6F6D9",
"D#	c #E8FBE1",
"E#	c #E8FAE2",
"F#	c #A3E9C6",
"G#	c #6FC3BB",
"H#	c #6FB6BD",
"I#	c #B0D7CE",
"J#	c #E8FBE2",
"K#	c #7CCEBA",
"L#	c #6DBFBA",
"M#	c #7CCEBB",
"N#	c #93DFBF",
"O#	c #9DE4C2",
"P#	c #B1E7CA",
"Q#	c #C2E3D2",
"R#	c #A7CCC9",
"S#	c #7CC4BA",
"T#	c #71C2B8",
"U#	c #69B8B6",
"V#	c #7ECBBB",
"W#	c #99CBC6",
"X#	c #C2E0D3",
"Y#	c #B9E7CD",
"Z#	c #A0E4C3",
"`#	c #97E2C1",
" $	c #82D3BA",
".$	c #6EBDB8",
"+$	c #89DBBB",
"@$	c #8EE1BC",
"#$	c #9BE4C3",
"$$	c #99E5C3",
"%$	c #91E3C0",
"&$	c #8CE1BF",
"*$	c #88DDBF",
"=$	c #88DCBF",
"-$	c #93E1C1",
";$	c #51A2B4",
">$	c #5D98A0",
",$	c #579DAC",
"'$	c #5C9BA4",
")$	c #63A5A8",
"!$	c #66A7A9",
"~$	c #71A6AA",
"{$	c #7CAAB1",
"]$	c #6D99A7",
"^$	c #598794",
"/$	c #598995",
"($	c #578795",
"_$	c #6DACA4",
":$	c #83CBBA",
"<$	c #89C3BD",
"[$	c #77AAAC",
"}$	c #67A6A8",
"|$	c #64A7AA",
"1$	c #5D9097",
"2$	c #558394",
"3$	c #609296",
"4$	c #639697",
"5$	c #66ADAF",
"6$	c #67B5B7",
"7$	c #67B7B9",
"8$	c #66B7BA",
"9$	c #64B5B9",
"0$	c #65B5B8",
"a$	c #67B6B8",
"b$	c #4D8099",
"c$	c #4E748C",
"d$	c #4D7B94",
"e$	c #4E768F",
"f$	c #4F7991",
"g$	c #4F7A91",
"h$	c #517990",
"i$	c #537B93",
"j$	c #51758F",
"k$	c #4D6B87",
"l$	c #4E6E87",
"m$	c #649897",
"n$	c #76BFAF",
"o$	c #74C5BA",
"p$	c #78C4B7",
"q$	c #67A0A0",
"r$	c #527E92",
"s$	c #4F7B91",
"t$	c #4E6E88",
"u$	c #4F6E87",
"v$	c #4F6F88",
"w$	c #4F7E94",
"x$	c #4F8399",
"y$	c #5095A8",
"z$	c #51A1B4",
"A$	c #52A5B7",
"B$	c #52A1B3",
"C$	c #5193A7",
"D$	c #51869B",
"E$	c #538A9C",
"F$	c #4C6C88",
"G$	c #4D6C87",
"H$	c #4C6C87",
"I$	c #4C6A86",
"J$	c #4C6A87",
"K$	c #639696",
"L$	c #74BCAE",
"M$	c #6BBAB7",
"N$	c #60B2B9",
"O$	c #6BBCB8",
"P$	c #71B8AD",
"Q$	c #639899",
"R$	c #4F7189",
"S$	c #4D6B86",
"T$	c #4C6985",
"U$	c #4C6885",
"V$	c #4C6B87",
"W$	c #4D7A94",
"X$	c #4D859D",
"Y$	c #4D88A0",
"Z$	c #4E89A0",
"`$	c #4E869D",
" %	c #538396",
".%	c #659A9A",
"+%	c #78BEAB",
"@%	c #507088",
"#%	c #689E9A",
"$%	c #5A858F",
"%%	c #639596",
"&%	c #5E8C92",
"*%	c #659998",
"=%	c #71B0A3",
"-%	c #73BAAC",
";%	c #6CBDB9",
">%	c #58A6B3",
",%	c #5199AD",
"'%	c #5AA8B4",
")%	c #6BBBB7",
"!%	c #73B9AD",
"~%	c #70ADA1",
"{%	c #679C99",
"]%	c #507188",
"^%	c #4D6986",
"/%	c #4D6E89",
"(%	c #4C6E8A",
"_%	c #568190",
":%	c #679F9D",
"<%	c #74B5A6",
"[%	c #7FC8AF",
"}%	c #86D8BB",
"|%	c #6BA39D",
"1%	c #74B4A5",
"2%	c #5F989E",
"3%	c #4F7990",
"4%	c #4C748F",
"5%	c #5E959B",
"6%	c #6EADA3",
"7%	c #71B1A4",
"8%	c #79C9B8",
"9%	c #6DBEB8",
"0%	c #57A7B4",
"a%	c #4E93A8",
"b%	c #4D8BA2",
"c%	c #4F94A9",
"d%	c #6DBDB8",
"e%	c #79C7B7",
"f%	c #75BDAF",
"g%	c #6BA59E",
"h%	c #69A19B",
"i%	c #69A09B",
"j%	c #567C8C",
"k%	c #4D6A86",
"l%	c #4C6785",
"m%	c #59818E",
"n%	c #659897",
"o%	c #72B0A3",
"p%	c #82CCB1",
"q%	c #8CDEBB",
"r%	c #86D9BC",
"s%	c #7AC6B4",
"t%	c #669E9D",
"u%	c #558FA0",
"v%	c #4E7C94",
"w%	c #4D7E97",
"x%	c #53899B",
"y%	c #639B9C",
"z%	c #73B5A8",
"A%	c #74C2B7",
"B%	c #67BABB",
"C%	c #4E92A8",
"D%	c #4D8AA1",
"E%	c #4E8BA2",
"F%	c #58A6B4",
"G%	c #60AFB6",
"H%	c #6AB5B2",
"I%	c #7DCBB5",
"J%	c #87D7B7",
"K%	c #88D7B6",
"L%	c #70ACA1",
"M%	c #649697",
"N%	c #629295",
"O%	c #73B2A3",
"P%	c #83CFB2",
"Q%	c #8CDDBA",
"R%	c #8EE2BE",
"S%	c #89DEBF",
"T%	c #59ACB9",
"U%	c #63AEB2",
"V%	c #527F92",
"W%	c #4D7690",
"X%	c #4C708B",
"Y%	c #4C728D",
"Z%	c #4C718D",
"`%	c #557D8E",
" &	c #6AA39E",
".&	c #76C3B4",
"+&	c #6CBFBA",
"@&	c #5599A9",
"#&	c #4D839C",
"$&	c #4E889F",
"%&	c #4D839B",
"&&	c #4D889F",
"*&	c #4D869D",
"=&	c #4D8BA3",
"-&	c #5694A3",
";&	c #6DBFB9",
">&	c #91E7C0",
",&	c #8AD9B8",
"'&	c #86D3B4",
")&	c #85D2B4",
"!&	c #8BDCB9",
"~&	c #8EE3BE",
"{&	c #8DE3C0",
"]&	c #86DBBF",
"^&	c #5AADB9",
"/&	c #4B7C97",
"(&	c #4C6D8A",
"_&	c #4C6784",
":&	c #4E6C86",
"<&	c #5E8C93",
"[&	c #70B3A8",
"}&	c #73C3B7",
"|&	c #74C7BA",
"1&	c #6EB0A8",
"2&	c #537E91",
"3&	c #4D7892",
"4&	c #4C718C",
"5&	c #4C7691",
"6&	c #4C738E",
"7&	c #4D7791",
"8&	c #55A3B3",
"9&	c #88DEBE",
"0&	c #8FE4C0",
"a&	c #91E8C1",
"b&	c #93EAC1",
"c&	c #91E8C0",
"d&	c #86DBBE",
"e&	c #4DA1B6",
"f&	c #4FA0B5",
"g&	c #608E93",
"h&	c #72B5A9",
"i&	c #70C0B7",
"j&	c #5FB3BA",
"k&	c #64B6B9",
"l&	c #77C5B5",
"m&	c #6DA89F",
"n&	c #537689",
"o&	c #4D6985",
"p&	c #52A3B5",
"q&	c #71C3BC",
"r&	c #90E5BF",
"s&	c #6FC2BB",
"t&	c #57ABB8",
"u&	c #4DA2B7",
"v&	c #4E96AB",
"w&	c #4D859C",
"x&	c #506F87",
"y&	c #6CA59D",
"z&	c #5C8891",
"A&	c #669B99",
"B&	c #72B1A2",
"C&	c #77BEAD",
"D&	c #6FBFB7",
"E&	c #5BADB6",
"F&	c #4D95AC",
"G&	c #509AAE",
"H&	c #64B8BC",
"I&	c #76C3B5",
"J&	c #76B9A8",
"K&	c #6EA99F",
"L&	c #5E8D92",
"M&	c #4E6A86",
"N&	c #4C6986",
"O&	c #4C708C",
"P&	c #4D8AA2",
"Q&	c #4EA0B5",
"R&	c #75C9BC",
"S&	c #6ABEBB",
"T&	c #57ACBA",
"U&	c #4E9FB4",
"V&	c #4E94AA",
"W&	c #4D7C95",
"X&	c #528A9D",
"Y&	c #70B2A7",
"Z&	c #72B1A3",
"`&	c #76BFB0",
" *	c #7ACAB9",
".*	c #70C3BA",
"+*	c #5BACB5",
"@*	c #4E95AA",
"#*	c #4D8DA3",
"$*	c #509BAF",
"%*	c #78CBBB",
"&*	c #78C7B6",
"**	c #74B7A9",
"=*	c #73B3A5",
"-*	c #65A1A1",
";*	c #4E7B93",
">*	c #4F9EB4",
",*	c #52A6B9",
"'*	c #51A0B2",
")*	c #4F95AA",
"!*	c #4E8AA1",
"~*	c #4D7993",
"{*	c #4F8FA4",
"]*	c #568695",
"^*	c #70B5AB",
"/*	c #6AB4B0",
"(*	c #5EABB4",
"_*	c #56A5B3",
":*	c #5097AB",
"<*	c #4D8CA3",
"[*	c #539FB0",
"}*	c #58A8B5",
"|*	c #62AEB1",
"1*	c #70B9B0",
"2*	c #66A2A1",
"3*	c #53889A",
"4*	c #4D8098",
"5*	c #4C6987",
"6*	c #4B6584",
"7*	c #4C6886",
"8*	c #4E95AB",
"9*	c #4D89A0",
"0*	c #4D7790",
"a*	c #5C8C94",
"b*	c #5FA0A6",
"c*	c #56909F",
"d*	c #4F8BA1",
"e*	c #4D849C",
"f*	c #4D839A",
"g*	c #4D8DA4",
"h*	c #51899D",
"i*	c #5997A3",
"j*	c #548597",
"k*	c #4D728C",
"l*	c #53778A",
"m*	c #5B8690",
"  . + @ # $ % & * = - ; > , ' ) ! ~ { ] ^ / ( _ : < [ [ < : } | ",
"1 2 3 4 5 6 7 8 9 0 a b c d e f g h i j j k l m n o p q r s t u ",
"v w x y z x x x A B C D E F G H I J K L L L M v N O P Q O R S T ",
"B U V W L V X Y Z `  ...+.@.#.$.%.&.*.=.-.-.L L ;.>.,.'.).!.~.{.",
"].^./.(._.:.<.[.}.|.1.2.3.4.5.#.6.7.8.9.0.a.b.c.d.e.f.g.h.i.j.k.",
"l.m.n.o.p.q.r.s.t.u.v.w.x.y.z.A.B.C.D.E.F.G.H.Y I.J.K.L.M.N.O.P.",
"Q.R.S.T.U.V.W.X.Y.Z.`. +.+++@+z.#+w.$+%+&+*+=+-+;+>+,+'+)+!+~+{+",
"]+^+/+L L (+_+:+<+[+}+|+1+2+3+4+5+6+7+8+9+&+'+'+'+0+a+!+b+c+d+e+",
"f+g+h+i+j+k+l+m+n+o+p+q+r+i+s+d.d.y t+u+v+9+w+x+y+a+z+A+B+C+D+4.",
"E+F+G+H+I+J+K+L+M+N+O+P+<.Q+R+S+T+K z U+V+W+X+Y+k.Z+`+ @.@+@@@#@",
"$@:+%@&@*@1.=@-@;@>@,@'@)@!@~@<.{@]@f+y ^@/@(@X+_@:@<@[@N T.v }@",
"|@1@2@3@4@#.5@6@@+@+[@7@8@9@0@a@b@c@f+h+f+^@V+d@e@f@g@h@v }@L L ",
"i@j@k@l@m@[@n@o@p@q@r@@+s@t@u@v@w@x@y@z@A@h+B@C@g@^@D@}@L L L L ",
"G+E@F@G@H@B@U.I@J@B@K@w@L@V.1+M@L N@T+O@X I.P@}@Q@R@L L L L L R@",
"S@T@U@V@W@-.R@L R@R@L L L R@L R@L b.X@Y@Z@`@ #.#+#c.R@L L L L B ",
"@###$#%#V@&#B A@W *#L L =#N@A@N@-#;#%.>#,#'#)#!#S+~#{#f+]#L P@X ",
"^#/#(#_#:#<#[#}#|#1#d.Q@&#2#3#4#5#6#7#8#9#0#)+a#b#c#d#e##@f#g#h#",
"i#j#k#(#l#m#n#o#p#q#r#s#t#u#<.v#w#x#y#z#A#B#C#D#E#[+F#e@G#H#I#J#",
"4+K#L#M#N#O#P#Q#R#S#T#U#V#W#X#Y#Z#`# $.$+$@$#$+.+.$$%$&$*$=$-$+.",
";$>$,$'$)$!$~${$]$^$/$($_$:$<$[$}$|$1$2$3$4$5$6$7$8$3+I@S.9$0$a$",
"b$c$d$e$f$g$h$i$j$k$l$m$n$o$p$q$r$s$t$k$u$v$w$x$y$z$A$A$B$C$D$E$",
"F$G$H$I$J$k$G$G$k$v$K$L$M$N$O$P$Q$R$S$T$U$U$V$F$W$X$Y$Z$`$ %.%+%",
"@%#%$%l$U$$%%%&%*%=%-%;%>%,%'%)%!%~%{%]%^%^%U$U$V$/%(%_%:%<%[%}%",
"|%1%2%3%4%5%6%7%L$8%9%0%a%b%c%'%d%e%f%g%h%i%j%k%l%m%n%o%p%q%r%x.",
"s%t%u%v%w%x%y%z%A%B%0%C%D%E%D%c%F%G%H%I%J%K%L%M%N%O%P%Q%R%S%x.T%",
"U%V%W%X%Y%Z%`% &.&+&@&#&$&%&&&*&=&- -&;&*$>&,&'&)&!&~&{&]&x.^&}@",
"/&(&U$l%_&:&<&[&}&|&1&2&3&4&5&6&6&7&w%8&p.9&0&a&b&c&d& +6+T.e&f&",
"_&k%^%k%S$g&h&i&j&k&l&m&n&o&U$o&o&U$6&D%p&N q&.@r&D+s&t&u&j v&w&",
"x&y&z&A&B&C&D&E&F&G&H&I&J&K&L&*%N%M&N&O&P&Q&L i@R&S&T&U&V&$&W&_&",
"X&Y&Z&`& *.*+*@*D%#*$*k&%*&***=*-*;*I$N&O&=&>*,*M '*)*!*~*V$I$U$",
"{*]*^*/*(*_*:*b%E%E%<*[*}*|*1*2*3*4*5*6*7*O&<*V&8*9*3&(%V$l%U$U$",
"0*a*b*c*d*D%e*X$f*e*X$X$g*h*i*j*X%k*l*m*:&6*Z%W%W%4&J$l%U$U$U$U$"};
