/* XPM */
static char *result[] = {
/* columns rows colors chars-per-pixel */
"64 64 118 2 ",
"   c gray39",
".  c gray30",
"X  c gray20",
"o  c gray26",
"O  c gray34",
"+  c #909090",
"@  c #979797",
"#  c gray53",
"$  c DimGray",
"%  c gray60",
"&  c #505050",
"*  c gray23",
"=  c #585858",
"-  c #343434",
";  c gray22",
":  c #3A3A3A",
">  c #393839",
",  c #414141",
"<  c #6A6A6A",
"1  c #393939",
"2  c #5A5A5A",
"3  c #4C4C4C",
"4  c #3E3E3E",
"5  c #484848",
"6  c #3F3E3F",
"7  c #656565",
"8  c #888888",
"9  c #8D8D8D",
"0  c #838383",
"q  c #6F6F6F",
"w  c #646464",
"e  c gray40",
"r  c gray36",
"t  c gray19",
"y  c #353535",
"u  c gray29",
"i  c gray48",
"p  c #686868",
"a  c gray47",
"s  c gray46",
"d  c gray31",
"f  c #232323",
"g  c #222222",
"h  c gray15",
"j  c #535353",
"k  c #4B4B4B",
"l  c #7B7B7B",
"z  c #797979",
"x  c gray42",
"c  c #767676",
"v  c #323232",
"b  c #4E4E4E",
"n  c #252525",
"m  c #2C2C2C",
"M  c gray14",
"N  c #2A2A2A",
"B  c gray49",
"V  c #626262",
"C  c #989898",
"Z  c gray35",
"A  c gray16",
"S  c #373737",
"D  c #3C3C3C",
"F  c #2D2D2D",
"G  c gray18",
"H  c #313131",
"J  c gray24",
"K  c gray27",
"L  c gray55",
"P  c gray32",
"I  c #5B5B5B",
"U  c #515151",
"Y  c #777777",
"T  c #444444",
"R  c #6C6C6C",
"E  c #6D6D6D",
"W  c gray17",
"Q  c #939393",
"!  c gray43",
"~  c gray25",
"^  c gray56",
"/  c gray37",
"(  c #3F3F3F",
")  c gray44",
"_  c #8B8B8B",
"`  c gray51",
"'  c #5D5D5D",
"]  c #565656",
"[  c #464646",
"{  c #2F2F2F",
"}  c gray13",
"|  c #5F5F5F",
" . c #676767",
".. c #929292",
"X. c gray33",
"o. c gray38",
"O. c #747474",
"+. c #818181",
"@. c #8E8E8E",
"#. c gray21",
"$. c #282828",
"%. c #575657",
"&. c gray28",
"*. c #555555",
"=. c #494949",
"-. c #585758",
";. c #7C7C7C",
":. c #717171",
">. c #727272",
",. c gray57",
"<. c #959595",
"1. c #606060",
"2. c gray58",
"3. c gray59",
"4. c #898989",
"5. c gray54",
"6. c #9A9A9A",
"7. c #272727",
/* pixels */
"        . X X X X X X X X X X X X X X X o O O O + @ @ @ #       O O O $ @ @ @ % O O O & X X X X X X X * O O O = - X X ; O O O O ",
"        . X X X X X X X X X X X X X X X o O O O + @ @ @ #       O O O $ @ @ @ % O O O & X X X X X X X : O O O = - X X > O O O O ",
"        . X X X X X X X X X X X X X X X , O O O + @ @ @ #       O O O < @ @ @ % O O O & X X X X X X X : O O O = - X X 1 O O O O ",
"2 2 2 2 3 4 4 4 4 4 4 4 o 5 5 5 6 4 4 4 3 7 7 7 8 9 9 9 0 q q q & & & w @ @ @ % e e e r 4 4 4 4 t t t y & & & & * * * 4 & & & & ",
"X X X X u               i @ @ @ p       a @ @ @ <       s @ @ @ X X X d @ @ @ @ @ @ @ 9       7 f g g h X X X X O O O j X X X X ",
"X X X X k               i @ @ @ p       a @ @ @ <       s @ @ @ X X X d @ @ @ @ @ @ @ 9       7 f g g h X X X X O O O j X X X X ",
"X X X X k               i @ @ @ p       a @ @ @ <       s @ @ @ X X X d @ @ @ @ @ @ @ 9       7 f g g h X X X X O O O j X X X X ",
"X X X X k 7 7 7 w w w w l % % % $ 7 7 7 z % % % x w w w c % % % v v v b % % % % % % % 9 w w w 7 g g g n v v v v O O O j X X X X ",
"X X X X m f f f - - - - - - - - M f f f N - - - X - - - - - - - @ @ @ B - - - X = = = O O O O O O O O V @ @ @ C = O O Z         ",
"X X X X m g g g - X X X X X X X M g g g A X X X X X X X X X X X @ @ @ B X X X X O O O O O O O O O O O   @ @ @ C = O O Z         ",
"X X X X m g g g - X X X X X X X M g g g A X X X X X X X X X X X @ @ @ B X X X X O O O O O O O O O O O   @ @ @ C = O O Z         ",
": : : : ; S S S * D D D D D D D F F F F G H H H 1 : : : J K K K L 9 9 c 1 1 1 1 P P P P P P P P P P P I # # # 8 P U U j V V V V ",
"O O O O Y @ @ @ e               Z O O O T g g g P O O O R @ @ @ O O O O O O O = X X X X X X X X X X X X X X X X X X X 1 O O O O ",
"O O O O Y @ @ @ e               Z O O O T g g g P O O O E @ @ @ O O O O O O O Z X X X X X X X X X X X X X X X X X X X 1 O O O O ",
"O O O O Y @ @ @ e               Z O O O T g g g P O O O E @ @ @ O O O O O O O Z X X X X X X X X X X X X X X X X X X X 1 O O O O ",
"= = = = Y % % % 7         w w w Z = = = T g g g P = = = E C C C = = = = = = = Z X X X X X X X X X X X X X X X X X X X ; = = = = ",
"f f f f W - - - Q @ @ @ ! - - - - - - - X X X X X X X X ~ = = = X X X X X X X X       ! @ @ @ @ @ @ @ ^               / - - - - ",
"g g g g W X X X Q @ @ @ ! X X X X X X X X X X X X X X X ( O O O X X X X X X X X       ) @ @ @ @ @ @ @ ^               / X X X X ",
"g g g g W X X X Q @ @ @ ! X X X X X X X X X X X X X X X ( O O O X X X X X X X X       ) @ @ @ @ @ @ @ ^               / X X X X ",
"n n n n G 1 1 1 _ ^ ^ ^ < 1 1 1 - X X X y 1 1 1 1 1 1 1 , j j j X X X X v v v t       R ^ ^ ^ ^ _ _ _ ` ' ' ' ' r r r ] X X X X ",
"X X X X K O O O O O O O O O O O S X X X , O O O O O O O 3 X X X X X X t g g g g O O O O O O O = X X X X X X X - g g g n X X X X ",
"X X X X [ O O O O O O O O O O O S X X X , O O O O O O O 3 X X X X X X t g g g g O O O O O O O = X X X X X X X - g g g n X X X X ",
"X X X X K O O O O O O O O O O O S X X X , O O O O O O O . X X X X X X t g g g g O O O O O O O = X X X X X X X - g g g n X X X X ",
"X X X X T O O O O O O O O O O O S X X X , O O O O O O O 3 X X X X X X { g g g } O O O O O O O = X X X X X X X X g g g n - - - - ",
"@ @ @ @ @ @ @ @ e       | O O O V       Y @ @ @ @ @ @ @ #       O O O I       V @ @ @ @ @ @ @ C       R @ @ @ C - X X H g g g g ",
"@ @ @ @ @ @ @ @  .      | O O O         Y @ @ @ @ @ @ @ 8       O O O I         @ @ @ @ @ @ @ % w     E @ @ @ % - X X v g g g g ",
"@ @ @ @ @ @ @ @  .      | O O O V       Y @ @ @ @ @ @ @ 8       O O O I         @ @ @ @ @ @ @ % w     E @ @ @ % - X X v g g g g ",
"................7 V V V ' X.X.X.o.V V V O...............+.| | | X.X.X.O / / / r @.@.@.@.@.@.@.^       < @.@.@.^ 1 1 1 #.$.$.$.$.",
"] %.%.%.%.%.%.%.O O O O &.- - - *.O O O O O O O O O O O k X X X X X X G g g g } X X X X X X X v O O O U X X X v w 7 7   Z Z Z Z ",
"O O O O O O O O O O O O 5 X X X *.O O O O O O O O O O O . X X X X X X t g g g g X X X X X X X X O O O P X X X X       V O O O O ",
"O O O O O O O O O O O O =.X X X *.O O O O O O O O O O O . X X X X X X t g g g g X X X X X X X X O O O P X X X X       V O O O O ",
"O O O O O -.-.-.-.-.-.-.5 - - - *.= = = = = = = O O O O . - - - X X X { f f f g - - - X - - - X O O O P X - - X       V O O O O ",
"        ;.@ @ @ @ @ @ @ B O O O S - - - - - - - X.O O O O O O O       :.@ @ @ @ @ @ @ L       V @ @ @ @ @ @ @ @ @ @ @ @ @ @ @ @ ",
"        B @ @ @ @ @ @ @ B O O O S X X X X X X X X.O O O O O O O       >.@ @ @ @ @ @ @ 9         @ @ @ @ @ @ @ @ @ @ @ @ @ @ @ @ ",
"        B @ @ @ @ @ @ @ B O O O S X X X X X X X X.O O O O O O O       >.@ @ @ @ @ @ @ 9         @ @ @ @ @ @ @ @ @ @ @ @ @ @ @ @ ",
"        z ,.,.,.,.,.,.,.Y X.X.X.#.X X X - #.#.#.P *.*.*.] O O O o.o.o.! <.<.<.<.Q Q Q 8 o.o.o.1.,.............,.@ @ @ @ 2.2.2.2.",
"O O O O [ X X X X X X X m g g g v X X X , = = = ; - - - ( O O O - - - ~         O O O d - - - - X X X X X X X v @ @ @ ,.        ",
"O O O O [ X X X X X X X F g g g v X X X , O O O ; X X X ~ O O O X X X ,       w O O O & X X X X X X X X X X X X @ @ @ ,.        ",
"O O O O &.X X X X X X X F g g g v X X X , O O O ; X X X ~ O O O X X X ,       w O O O & X X X X X X X X X X X X @ @ @ ,.        ",
"O O O O [ - - - - - - - m g g g v - - - , O O O ; X X X ~ = = = X X X , w w w w = = = & - - - - - - - - - - - X @ C C ,.w w w w ",
"                <.@ @ @ E X X X 1.      c @ @ @ @ @ @ @ Y - - - g g g $.- - - v @ @ @ @ @ @ @ @ @ @ @ @.      w - - - - - - - - ",
"                <.@ @ @ ! X X X 1.      Y @ @ @ @ @ @ @ a X X X g g g $.X X X v @ @ @ @ @ @ @ @ @ @ @ ^       w - X X X X X X X ",
"                <.@ @ @ ! X X X 1.      Y @ @ @ @ @ @ @ a X X X g g g $.X X X v @ @ @ @ @ @ @ @ @ @ @ ^       w - X X X X X X X ",
"                3.@ @ @ ! X X X 1.      Y @ @ @ @ @ @ @ a X X X g g g $.X X X v @ @ @ @ @ @ @ @ @ @ @ ^       w - X X X X X X X ",
"M M M M D O O O = = = = = = = = S - - - - y y y X.= = = r w w w C C C C @ @ @ % = = = I w w w w w w w R C C C C @ @ @ 4.f f f f ",
"g g g g D O O O O O O O O O O O S X X X X X X X j O O O r       @ @ @ @ @ @ @ % O O O 2               E @ @ @ @ @ @ @ 5.g g g g ",
"g g g g D O O O O O O O O O O O S X X X X X X X j O O O r       @ @ @ @ @ @ @ % O O O 2               E @ @ @ @ @ @ @ 5.g g g g ",
"g g g g D = = = = = = = = = = = S X X X X X X X j = = = r w w w @ @ @ @ @ @ @ % = = = 2 w w w w w w w E @ @ @ @ @ @ @ 4.g g g g ",
"O O O O [ - - - - - - - - - - - 1.      | O O O ; - - - - - - - w w w >.@ @ @ 6.- - - - - - - - - - - - - - - - - - - 1 O O O O ",
"O O O O [ X X X X X X X X X X X 1.      1.O O O 1 X X X X X X X       >.@ @ @ 6.- X X X X X X X X X X X X X X X X X X 1 O O O O ",
"O O O O [ X X X X X X X X X X X 1.      1.O O O 1 X X X X X X X       >.@ @ @ 6.- X X X X X X X X X X X X X X X X X X 1 O O O O ",
"O O O O [ X X X X X X X X X X X 1.      1.O O O 1 X X X X X X X       >.@ @ @ 6.- X X X X X X X X X X X X X X X X X X 1 O O O O ",
"        l 3.<.<.7       a 3.3.3.' = = = T M M M & O O O 3 X X X y y y y #.#.#.S f f f h X X X X O O O Z       V <.3.3.3.3.3.3.3.",
"        B @ @ @  .      i @ @ @ ' O O O T g g g U O O O 3 X X X X X X X X X X - g g g h X X X X O O O 2         @ @ @ @ @ @ @ @ ",
"        B @ @ @  .      i @ @ @ ' O O O T g g g U O O O 3 X X X X X X X X X X - g g g h X X X X O O O 2         @ @ @ @ @ @ @ @ ",
"        B @ @ @  .      z @ @ @ ' = = = T f f f U O = = 3 X X X - - - - - - - - f f f 7.- - - X O O O 2         @ @ @ @ @ @ @ @ ",
"          w w w = O O O =.- - - - - - - , O O O ; X X X X X X X O O O I w w w V @ @ @ @ @ @ @ C O O O P - - - - - - - 1 = = = = ",
"                = O O O =.X X X X X X X o O O O 1 X X X X X X X O O O I       V @ @ @ @ @ @ @ % O O O P X X X X X X X 1 O O O O ",
"                = O O O =.X X X X X X X o O O O 1 X X X X X X X O O O I       V @ @ @ @ @ @ @ % O O O P X X X X X X X 1 O O O O ",
"                = O O O =.X X X X X X X o O O O 1 X X X X X X X O O O I       V @ @ @ @ @ @ @ % O O O P X X X X X X X 1 O O O O ",
"#.#.#.#.G h h h y #.#.#.y X X X n f f f b <.<.<.Q Q Q Q 0 V V V #.#.#.( = = = O e  . .= $.$.$.$.#.#.#.y X X X X ] ] ] =         ",
"X X X X m g g g X X X X X X X X M g g g b @ @ @ @ @ @ @ 8       X X X 4 O O O O       ] g g g g X X X X X X X X O O O Z         ",
"X X X X m g g g - X X X X X X X M g g g b @ @ @ @ @ @ @ 8       X X X 4 O O O O       ] g g g g X X X X X X X X O O O Z         ",
"X X X X m g g g - X X X X X X X M g g g b @ @ @ @ @ @ @ 8       X X X 4 O O O O       ] g g g g X X X X X X X X O O O Z         "
};
