/* XPM */
static char *_691961b5e4e4851fcecac31a1ef2be3ZfnGUoS1taNlPtkJ[] = {
/* columns rows colors chars-per-pixel */
"64 64 6 1 ",
"  c #524F40",
". c #1B2632",
"X c #493C2B",
"o c #9D9D9D",
"O c #656D71",
"+ c #A46422",
/* pixels */
" .......XXXXX.....XX..           ..ooooooOOOOOOOO+++o+oooooooo+o",
"X..XXXXXXXXX...XXOOX... XX      X. OOO               ++OOOO+O++O",
"X..XXXXXXX....XXoOO+O...XXXXX   X.XO  X........X.X..XXXXXX.. ++O",
"X...XXX......XoooXO+O+O..XXXXX  X. X X.......XX+X.     XXXXX. +O",
"X...XX.....XooOooXO+O+O+..XXXX  X.O  ....XXXOOO++O+      XXXX.OO",
".........XoOoOOooXO+O+OOO..XX   ..OOX...X       O + OO     XXX.O",
"X.......XoOOOOOoXXO+OOOO+O.XX   X.OOX..X          + O O     XX O",
".......oooOOOOOoX+OOOO+O+OO .X  .. O .X         O   O +O    XXX.",
".....XOOOOOOOOOoXOOO+O+O+O+OO.XX..XO .X              +   O   XXO",
"....OOOOOOOOOOOoXO+O+O+O+O+O X.... O .X O         O . O+  OO XX ",
"X.XOOOOOOOOOOOOoXO+O+OOO+O+  XX.X.XO .X            .OOOOOO+O+XX.",
"XXXXXXXOOOOOOOooXO+O+OOO+OXoooXXXX X X           O.O ++O ++O+ X.",
" OO O XXXOOOOoooXOOOXXoo.oX   X. O X  O O      X. O   O +O+O+ .O",
"    O O OXXXOOoXOOoooo        X.  OX  O O OOOO.OO O OOOO+OO  ..O",
"    O   OOOXXXOXXoX          X..  OX OO OOOOO.O    OOO+O+   . .O",
"        OOOXXXXX.XX   X X X  X..  X  OOOOO  .OOOO OO O+ ...OOX .",
"        OXXX  X...++  X X X  X..  .OOOOO O X  OO O    +XO++OOXXO",
"      OOXX    X.XX.++XX   X  X..  .OOOOO   .O O  O  XX.O+O+OXXXO",
"     OXX      X.XXXXX+X  XX  X..  . O OO  X.O        O+ +O+  OX+",
"   OXXX       X.XXXXXX+X      X.   XO  OXX. O         O   +O XX+",
"  OXXX        X.XXXXXX.++     X.    O   ...                O O++",
"  OXX         X.XXXXXXX.X +   X.  OXO XXOX.OOO      O      O O++",
" OXX     X    X..XXXXXX...X   X. OOX ..O  .O            O    O++",
"OXXX   XXX   X...X.XXX......+ X.OX X.XO  O.             +      +",
"XXXXXXXXXX   X....X.X.........XXXX..OO    .O        O + +      O",
"OOX..XXXXXX XX...........XX.XXoXOO O O    .O          + + O  O O",
"X+OOXX.XXXXX X.........XX..XOoooX+O OO    .O      O     O O O OO",
"X+O+O+XX.XX X........XX...OOOoOoX+X  OOOO OO  OOO ++++     OOOOO",
"XXO+O+OOX.X X.....XX.....OOOOOOoXX.X OOO .++++OOOOXOO+ +OO+.OOO ",
"oXO+OO+OO+.XX...XX......OOOOOOOOoX..  OO.OO.OXX..X.XX.  XOO+O. .",
"oXX+OOOO+O+XX..X.......XXXXOOOOOoX...... O................X.....",
"............X.XXXX....X...X+X.......XXXXX+OO+.X.......  X  XXXXX",
" ..ooooooOOOOOOOO+++o+oooooooo+o ........XXXXX.....XX..         ",
"X. OOO               ++OOOO+O++OOX..XXXXXXXXX...XXOOX... XX     ",
"X.XO  X........X.X..XXXXXX.. ++O ...XXXXXXX....XXoOO+O...XXXXX  ",
"X. X X.......XX+X.     XXXXX. +O+....XXX......XoooXO+O+O..XXXXX.",
"X.O  ....XXXOOO++O+      XXXX.OOX....XX.....X oOooXO+O+O+..XX...",
"..OOX...X       O + OO     XXX.OX.........X oOOOooXO+O+OOO.X...O",
"X.OOX..X          + O O     XX OX........XooOOOOoXXO+OOOO+O...OO",
".. O .X         O   O +O    XXX.+.......oOOOOOOOoX+OOOO+O+OO .OO",
"..XO .X              +   O   XXO+X....X    OOOOOoXOOO+O+O+O+OOOO",
".. O .X O         O . O+  OO XX .....OOO    OOOOoXO+O+O+O+O+O .O",
"X.XO .X            .OOOOOO+O+XX.X..XOO       OOOoXO+O+OOO+O+  .O",
"XX X X           O.O ++O ++O+ X. .XXXXXXOOOOO OooXO+O+OOO+OooOO.",
" O X  O O      X. O   O +O+O+ .O .OO O XXXOOOOoooXOOOXXoooOX   .",
"  OX  O O OOOO.OO O OOOO+OO  ..O .      OOXXXOOoXOOoooo        X",
"  OX OO OOOOO.O    OOO+O+   . .O .         OXXXOXXoX          X.",
"  X  OOOOO  .OOOO OO O+ ...OOX .X.        OOXXXXX.XX   X X X  X.",
"  .OOOOO O X  OO O    +XO++OOXXO..       OXXX  X...++  X X X  X.",
"  .OOOOO   .O O  O  XX.O+O+OXXXO X     O XX    X.XX.++XX   X  X.",
"  . O OO  X.O        O+ +O+  OX+ .     XX      X.XXXXX+X  XX  X.",
"   XO  OXX. O         O   +O XX+ .  O XX       X.XXXXXX+X      X",
"    O   ...                O O++ . O XX        X.XXXXXX.++     X",
"  OXO XXOX.OOO      O      O O++ .OOXX         X.XXXXXXX.X +   X",
" OOX ..O  .O            O    O++O.OXX     X    X..XXXXXX...O   X",
"OX X.XO  O.             +      +O.XXX   XXX   X...X.XXX......+ O",
"XX..OO    .O        O + +      OO.XXXXXXXXX   X....X.X.........O",
"OO O O    .O          + + O  O OO.OX..XXXXXX XX...............OO",
"X+O OO    .O      O     O O O OOO.+OOXX.XXXXX X.........X...X.OO",
"X+X  OOOO OO  OOO ++++     OOOOO .+O+O+XX.XX X........XX...XO+XO",
"XX.X OOO .++++OOOOXOO+ +OO+.OOO  .XO+O+OOX.X X.....XX....XX+O+OX",
"oX..  OO.OO.OXX..X.XX.  XOO+O. ...XO+OO+OO+.XX...XX.... X O+O+O+",
"oX...... O................X.......XX+OOOO+O+XX.........X+ OOO+O+",
"...XXOOOOXXXXo    .. .XooOOO XXX...XXOOOOXXX.. X.... .X.X++ +O+O"
};
