/* XPM */
static char *ef4ce15f6b294247ef759578e6e9fdddNLPqnvwa7EQn82ly[] = {
/* columns rows colors chars-per-pixel */
"64 64 137 2 ",
"   c #FE0001",
".  c #F4010B",
"X  c #EC0213",
"o  c #E3031C",
"O  c #DC0423",
"+  c #D4052B",
"@  c #CC0634",
"#  c #C4073B",
"$  c #BD0742",
"%  c #BB0844",
"&  c #B4094B",
"*  c #AC0A53",
"=  c #A40A5B",
"-  c #9D0B62",
";  c #940C6B",
":  c #8C0D73",
">  c #830E7C",
",  c #7C0F83",
"<  c #760F89",
"1  c #781087",
"2  c #75108A",
"3  c #761089",
"4  c #73108C",
"5  c #72108D",
"6  c #71108E",
"7  c #72108D",
"8  c #6F1090",
"9  c #6F1190",
"0  c #6E1091",
"q  c #6E1191",
"w  c #6D1092",
"e  c #6C1193",
"r  c #6B1094",
"t  c #6A1195",
"y  c #6C1193",
"u  c #671198",
"i  c #661199",
"p  c #65119A",
"a  c #63129C",
"s  c #62129D",
"d  c #61129E",
"f  c #60129F",
"g  c #63129C",
"h  c #5E12A1",
"j  c #5D12A2",
"k  c #5A12A5",
"l  c #5A13A5",
"z  c #5813A7",
"x  c #5C13A3",
"c  c #5613A9",
"v  c #5514AA",
"b  c #5414AB",
"n  c #5314AC",
"m  c #5214AD",
"M  c #5014AF",
"N  c #5414AB",
"B  c #4E14B1",
"V  c #4D14B2",
"C  c #4D15B2",
"Z  c #4A14B5",
"A  c #4915B6",
"S  c #4A15B5",
"D  c #4715B8",
"F  c #4615B9",
"G  c #4415BB",
"H  c #4215BD",
"J  c #4216BD",
"K  c #4016BF",
"L  c #4315BC",
"P  c #3F16C0",
"I  c #3D16C2",
"U  c #3C16C3",
"Y  c #3C17C3",
"T  c #3A17C5",
"R  c #3917C6",
"E  c #3817C7",
"W  c #3C16C3",
"Q  c #3617C9",
"!  c #3517CA",
"~  c #3317CC",
"^  c #3217CD",
"/  c #3117CE",
"(  c #3417CB",
")  c #3018CF",
"_  c #2F17D0",
"`  c #2F18D0",
"'  c #2E18D1",
"]  c #2C18D3",
"[  c #2B18D4",
"{  c #2919D6",
"}  c #2818D7",
"|  c #2819D7",
" . c #2B18D4",
".. c #2719D8",
"X. c #2619D9",
"o. c #2519DA",
"O. c #2419DB",
"+. c #2319DC",
"@. c #2119DE",
"#. c #2019DF",
"$. c #2319DC",
"%. c #1E1AE1",
"&. c #1D1AE2",
"*. c #1C1AE3",
"=. c #1A1AE5",
"-. c #191AE6",
";. c #181AE7",
":. c #1C1AE3",
">. c #171AE8",
",. c #161AE9",
"<. c #151BEA",
"1. c #141BEB",
"2. c #131BEC",
"3. c #121BED",
"4. c #111BEE",
"5. c #101BEF",
"6. c #131BEC",
"7. c #0F1BF0",
"8. c #0E1BF1",
"9. c #0D1BF2",
"0. c #0D1CF2",
"q. c #0C1CF3",
"w. c #0B1CF4",
"e. c #0A1CF5",
"r. c #091CF6",
"t. c #081CF7",
"y. c #0B1CF4",
"u. c #071CF8",
"i. c #061CF9",
"p. c #051CFA",
"a. c #051DFA",
"s. c #041DFB",
"d. c #031DFC",
"f. c #021DFD",
"g. c #011DFE",
"h. c #001DFF",
"j. c #031DFC",
/* pixels */
"V D h , - $ + o X                                                                                           . o + # & - ..s.g.g.",
"Z 3.} , - $ + o X                                                                                           . o + # & , q.g.g.s.",
"k 8.g.h ; * # + O X .                                                                                       . O @ % = T e.g.g.^ ",
", d g.e.> : - & # O o X .                                                                                   X @ & - 3 8.g.g.g.> ",
"- 9 g.g.@.9 3 : * # + o X                                                                               . . o # - , U 8.g.g.J - ",
"% % T g.g.=.M 9 : * # + o .                                                                           . . . O & > b 8.g.g.g.; * ",
"+ + * >.g.g.^ d , - & # O .                                                                           . X o @ = , ] e.g.g.U & % ",
"O O @ , s.g.s.d 1 : - & + o .                                                                         . o O # - t 8.g.g.] & # # ",
"o o + & V g.g.U k 9 : = # O . .                                                                       X O + % ; D s.g.g.6 $ + + ",
". . o # = ^ g.g.>.=.3 ; & + X . .                                                                   . o + # * > =.g.g.8.; @ O O ",
"    X @ & ; e.g.e.g.k : * @ O o .                                                                   . O @ & - t e.g.g.U * + X X ",
"    X + # * V g.3.g.^ , - & @ O X .                                                                 X + % - : ! >.g.s., % O X X ",
"    . o @ $ - e.s.q.>.3 : = & @ o .                                                               . o # = : i 8.8.g.] = # o . . ",
"    . X O + % J g.3.s.d , : = $ O .                                                             . . O % ; 6 T >.g.g., $ + X     ",
"      . o O @ = ..e.g.M 3 > ; & + X                                                             . . O & ; d >.>.g.3.& @ o .     ",
"      . X o + % ; =.g.T 3 , : * @ X                                                             . . O % ; M 3.e.g.c @ O X .     ",
"        . . o @ & t s.8.6 9 , - # o .                                                           . . O $ ; ..@.s.g.* O o X       ",
"            . O # & @.g.M i 9 ; % O . .                                                         . . o # , 3.3.g...O X X .       ",
"            . o + # > g.=.i 9 ; & O X .                 .                                     . X o + % J %.3.g.d o . .         ",
"              X O + $ %.g.b 6 ; % O X .               . d O                                   X O + $ : 3.=.8.g.; o . .         ",
"              . X O @ 3 g...3 - % O X .               . %.D   .                             . o @ $ * M %.e.g.3.% o . .         ",
"              . . X O * e.s.9 - $ O X .                 U e.+ i -                           . O # = > %...e.g.D $ o .           ",
"                . . O $ } g.Z - $ O X . .             . =.g., ] D                           X + & ; k >.3.e.g.6 $ o .           ",
"                . . o # d s.3.; % O X . .               i g...! ] .                         X @ * > ..} 3.s.e.; # X             ",
"                . . o # , e.g.9 % + o X .               O s.s.! =.+                         X # = i e.%.>.s.} * @ X             ",
"                . . o # > q.e.} & + o X .                 U g.%.>.! .                       o # - D 3.q.e.g.d % + .             ",
"                . . o # - %.@.s.: # + O X .               ; g.s.e.=.                        o % ; @.3.3.3.s.: # O .             ",
"                  . o # * J @.s.! = & # O X             . + s.g.g....                     . O & , q.e.8.8.3.= @ O .             ",
"                    X @ * t 3.%.e.i ; * @ X           . . X } g.g.=.O                   . . O & i s.8.e.s.! $ + o .             ",
"                    X @ & > >.T e...9 ; % o .         . X o i g.g.@.&                   . . O * T s.@.e.3.d # + o .             ",
"                    X + % - ^ ) e.q.b : & O . .     . X O + Z g.g.%.d                 . . X + = =.e.%.s.=., @ O X               ",
"                    . O # & d ..3.e.Z > * O X . . . X O # = q.g.s.e.%.O .             . . X + ; e.=.3.e.3.: + O X               ",
"                    . o + # > =.] e.T > * + X X X X o @ * c g.>.8.g.s.% .             . X X @ 6 g.} e.>.8.- + o X               ",
"                      X o + = 3.D s.@., = + o X X X O % ; 8.s.J 3.s.g., X             . X o @ Z s.^ g.} >.* O o X               ",
"                      . X o & %.M s.3.6 - # O O O o + * k g.e.h ] @.g.@.o .           . X o # %.3.) g.T } % O o .               ",
"                      . X o @ ! Z 8.e.d ; & # @ @ + # = 3.e.8.t D ] s.g.& X .         . X o * q.} ] s.T U @ o X .               ",
"                      . . X + d } %.q.J > - * & $ # % M g.@...6 k =.} g.J o . .       . X o ; 3.D >.3.^ h + X . .               ",
"                        . . O ; 3.] 3.%.< : ; = * & ; e.>.=.J 9 h q.Z g.s.% X . .     . X X 6 3.c s.} @.: O . .                 ",
"                        . . o * %.J 8.q.t > : ; - * ! e.V q.h 6 t =.J e.g.D O X .     . X o D 8.U g.Z >.- o .                   ",
"                          . X @ Z ! q.q.t : : ; - > e.} i =.> > , U ..%.s.e.- O X .   . o @ %.8.>.e.D %.* O . .                 ",
"                            . O : =.%.@.V : : : ; ! s., U Z = - : d 8.^ s.s.! # O .   X o & 3.>.s.=.^ T & O . .                 ",
"                              X $ >.Z ] ..: : : , s.} : %.: $ * - > >.T e.3.8.; + X . X O = 3.>.s.^ >.k & O . .                 ",
"                              . o ! i @.3., > > D g.d < %.& @ $ * - D } q.3.q.U @ X . o + 9 %.3.s.U q.< & O . .                 ",
"                              . . 9 J >.%.h < < =.q.6 Z U # + # $ & > >.3.q.8.8.= O o + # U @.e.>.V =.; # o .                   ",
"                              . . * %.>.! ! ! M s...d %.6 # + @ @ # & ! @.>.%.e.9 + O @ * @.>.s.U U T & @ X                     ",
"                              . . @ %.=.V =.q.} g.T Z 3.: # O O O + @ , 3.>.3.e.} # + # ; 3.e.e.d %.3 @ O .                     ",
"                                . X J =.c 8.e.8.q.Z ..} = @ O o o o O & =.q.>.%.q.- # & 6 >.s.e.9 8.- + o .                     ",
"                                . . : >.Z q.e.g.] Z q.i * + o o X X o @ h s.! =.e.c & - Z %.g.8.h %.& + o .                     ",
"                                  . $ 8.T 3.s.g.n ^ @.; % O X X . . X + = e.! 3.3.=.; : ..%.g.%.! M # + o .                     ",
"                                    @ 3...%.g.8.t >.k = # o . .     . o @ ! 3.U =.s.6 t 3.8.g.U >.> @ + o .                     ",
"                                    + %.>.%.g._ D =.< - # o . .     . X O , s.h 3.g.Z k e.s.g.T %.= @ O X                       ",
"                                    O _ 8.>.g.T 3.T 9 ; % O . .       X o & e.U @.s.%.V s.g.s...Z & + O X                       ",
"                                  . o M 8.e.g.} e.J h : & O . .       . X + @.3.b e.s.! s.g.3.3.9 % + o X                       ",
"                                . . O 6 3.g.g.3.=.T B , * + . .       . . X Z 8.c q.g.>.s.g.=.8., $ O o .                       ",
"                                . . O > y.g.g.s.] U c > * O . .         . . , =.} ] s.g.g.g.3.%.: $ O o X                       ",
"                                . . O - q.g.g.e.V k 9 ; % O .           . X - >.3.U s.g.g.g.s.U : % + o X                       ",
"                                . . O * >.g.g.%.i 6 : * @ X           . . X & 3.....e.g.g.g.e.b : % + o X                       ",
"                                . . O & =.g.g.^ , : = $ + X           . . X + ! } e.3.g.g.g.=.k > & + O X                       ",
"                                . . O = 3.g.g.U : = & @ o .           . . X + t >.e.3.g.g.g.] d : % + o X                       ",
"                                  . o ; q.g.g.U - & # + o .             . . + ; >.>.8.g.g.s.D 6 - # O o .                       ",
"                                    o , 3.g.g.J * $ @ O X               . . O & J >.8.e.g.s.c > = @ o X .                       ",
"                                    X V q.s.g.J $ @ O o .                 . o % < e.s.>.g.s.h : & O X .                         ",
"                                    X ] 8.q.g.J # + o X .                   o $ ; %.e.8.g.s.k ; $ o . .                         ",
"                                    o ! c > ! = # + o X .                   o $ ; D s.8.s.s.Z ; $ o . .                         "
};
